<?xml version="1.0" encoding="utf-8"?>
<!-- Generator: Adobe Illustrator 25.3.1, SVG Export Plug-In . SVG Version: 6.00 Build 0)  -->
<svg version="1.1" id="Layer_1" xmlns="http://www.w3.org/2000/svg" xmlns:xlink="http://www.w3.org/1999/xlink" x="0px" y="0px"
	 viewBox="0 0 250 250" style="enable-background:new 0 0 250 250;" xml:space="preserve">
<style type="text/css">
	.st0{display:none;fill:#FFFFFF;}
	.st1{fill:#E4E8EC;}
	.st2{display:none;}
	.st3{display:inline;}
	.st4{fill:#606060;}
	.st5{fill:#FF901B;}
	.st6{fill:#00E7E9;}
	.st7{fill:#00D1C5;}
	.st8{fill:#FFF4E4;}
	.st9{fill:none;stroke:#171819;stroke-width:2;stroke-linecap:round;stroke-linejoin:round;stroke-miterlimit:10;}
	.st10{fill:#FFDEC5;}
	.st11{fill:#EFB58E;}
	.st12{fill:none;stroke:#171819;stroke-width:6;stroke-linecap:round;stroke-linejoin:round;stroke-miterlimit:10;}
	.st13{fill:#171819;}
	.st14{fill:#B0AEFA;}
	.st15{fill:#DCDBFF;}
	.st16{fill:#FFFFFF;}
	.st17{fill:#FF9472;}
	.st18{fill:#EF7756;}
	.st19{fill:#FF4F7C;}
</style>
<rect x="-380.5" y="-383.3" class="st0" width="1000" height="1000"/>
<ellipse class="st1" cx="119.7" cy="192.3" rx="105.3" ry="11"/>
<g class="st2">
	<g class="st3">
		<g>
			<g>
				<path class="st4" d="M-317.3,575.9c0,2.5-1.2,3.7-2.6,3.7c-1.1,0-1.9-0.5-2.1-1.4c-0.4,0.5-1,0.8-1.8,0.8
					c-1.5,0-2.6-1.2-2.6-2.8s1.1-2.8,2.6-2.8c0.7,0,1.2,0.3,1.6,0.7v-0.5h1.6v3.9c0,0.8,0.3,1.4,1,1.4c0.9,0,1.7-0.9,1.7-3
					c0-3-2.3-5.3-5.4-5.3c-3.1,0-5.6,2.4-5.6,5.7s2.5,5.7,5.9,5.7c1.1,0,2.1-0.2,2.9-0.4v0.6c-0.8,0.3-1.7,0.4-2.9,0.4
					c-3.7,0-6.5-2.6-6.5-6.2c0-3.4,2.7-6.2,6.2-6.2C-319.4,570-317.3,573.1-317.3,575.9z M-322.2,576.2c0-0.8-0.6-1.4-1.3-1.4
					c-0.8,0-1.3,0.5-1.3,1.4c0,0.8,0.6,1.3,1.3,1.3C-322.7,577.6-322.2,577-322.2,576.2z"/>
			</g>
		</g>
		<g>
			<g>
				<path class="st4" d="M-311.1,571.8v2c-1.2-0.1-2.6,0.5-2.6,2.4v4.3h-1.9v-8.6h1.9v1.4C-313.2,572.2-312.2,571.8-311.1,571.8z"/>
			</g>
		</g>
		<g>
			<g>
				<path class="st4" d="M-305.9,579c1,0,1.8-0.5,2.2-1.1l1.5,0.9c-0.8,1.2-2.1,1.9-3.8,1.9c-2.8,0-4.7-1.9-4.7-4.5
					c0-2.5,1.8-4.5,4.5-4.5c2.6,0,4.3,2.1,4.3,4.5c0,0.3,0,0.5-0.1,0.8h-6.8C-308.4,578.3-307.3,579-305.9,579z M-303.6,575.5
					c-0.3-1.5-1.3-2.1-2.5-2.1c-1.4,0-2.3,0.8-2.6,2.1H-303.6z"/>
			</g>
		</g>
		<g>
			<g>
				<path class="st4" d="M-291.6,571.9v8.6h-1.9v-1.2c-0.7,0.9-1.7,1.5-3,1.5c-2.3,0-4.3-2-4.3-4.5c0-2.6,1.9-4.5,4.3-4.5
					c1.3,0,2.3,0.5,3,1.4V572L-291.6,571.9L-291.6,571.9z M-293.4,576.2c0-1.6-1.2-2.7-2.7-2.7s-2.7,1.1-2.7,2.7
					c0,1.6,1.2,2.7,2.7,2.7C-294.6,579-293.4,577.8-293.4,576.2z"/>
			</g>
		</g>
		<g>
			<g>
				<path class="st4" d="M-289.4,568h1.9v12.5h-1.9V568z"/>
			</g>
		</g>
		<g>
			<g>
				<path class="st4" d="M-277.6,571.9l-3.3,8.6h-2.1l-3.3-8.6h2l2.4,6.5l2.4-6.5H-277.6z"/>
			</g>
		</g>
		<g>
			<g>
				<path class="st4" d="M-276.3,571.9h1.9v8.9c0,2.4-1.2,3.5-3.5,3.3v-1.8c1.1,0.1,1.7-0.3,1.7-1.5L-276.3,571.9L-276.3,571.9z
					 M-276.5,569.5c0-0.7,0.5-1.2,1.2-1.2c0.7,0,1.2,0.5,1.2,1.2c0,0.6-0.5,1.2-1.2,1.2C-276,570.7-276.5,570.1-276.5,569.5z"/>
			</g>
		</g>
		<g>
			<g>
				<path class="st4" d="M-264.5,571.9l-3.3,8.8c-0.8,2.2-2.2,3.3-4.2,3.2v-1.7c1.2,0.1,1.9-0.5,2.3-1.7l0.1-0.2l-3.6-8.4h2l2.6,6.2
					l2.2-6.2L-264.5,571.9L-264.5,571.9z"/>
			</g>
		</g>
	</g>
	<g class="st3">
		<g>
			<path class="st4" d="M-321.6,555.4c0,2.1-1.5,3.8-3.6,3.8h-3v-7.6h3C-323.1,551.6-321.6,553.3-321.6,555.4z M-322.6,555.4
				c0-1.6-1.1-2.9-2.6-2.9h-2v5.7h2C-323.7,558.3-322.6,557-322.6,555.4z"/>
		</g>
		<g>
			<path class="st4" d="M-313.5,558.3v1h-4.6v-7.6h4.5v1h-3.5v2.3h3.2v0.9h-3.2v2.4L-313.5,558.3L-313.5,558.3z"/>
		</g>
		<g>
			<path class="st4" d="M-310.5,557.5l0.9-0.5c0.3,0.8,0.9,1.4,2,1.4s1.6-0.5,1.6-1.2c0-0.8-0.7-1-1.8-1.4c-1.2-0.4-2.4-0.8-2.4-2.2
				s1.1-2.2,2.4-2.2c1.3,0,2.2,0.7,2.6,1.7l-0.8,0.5c-0.3-0.7-0.8-1.2-1.7-1.2c-0.8,0-1.4,0.4-1.4,1.1c0,0.7,0.5,1,1.6,1.3
				c1.3,0.4,2.6,0.8,2.6,2.3c0,1.3-1.1,2.2-2.6,2.2C-309,559.4-310.1,558.6-310.5,557.5z"/>
		</g>
		<g>
			<path class="st4" d="M-300.5,551.6v7.6h-1v-7.6H-300.5z"/>
		</g>
		<g>
			<path class="st4" d="M-289.2,555.9c0,1.9-1.4,3.5-3.7,3.5c-2.4,0-4-1.8-4-4s1.7-4,4-4c1.4,0,2.7,0.8,3.3,1.8l-0.9,0.5
				c-0.4-0.8-1.4-1.4-2.4-1.4c-1.8,0-3,1.3-3,3s1.2,3,3,3c1.6,0,2.5-0.9,2.7-2h-2.8v-0.9h3.8C-289.2,555.4-289.2,555.9-289.2,555.9z
				"/>
		</g>
		<g>
			<path class="st4" d="M-279.9,551.6v7.6h-0.8l-3.9-5.7v5.7h-1v-7.6h0.8l3.9,5.7v-5.7H-279.9z"/>
		</g>
		<g>
			<path class="st4" d="M-271.4,558.3v1h-4.6v-7.6h4.5v1h-3.5v2.3h3.2v0.9h-3.2v2.4L-271.4,558.3L-271.4,558.3z"/>
		</g>
		<g>
			<path class="st4" d="M-261.3,555.4c0,2.1-1.5,3.8-3.6,3.8h-3v-7.6h3C-262.9,551.6-261.3,553.3-261.3,555.4z M-262.3,555.4
				c0-1.6-1.1-2.9-2.6-2.9h-2v5.7h2C-263.4,558.3-262.3,557-262.3,555.4z"/>
		</g>
		<g>
			<path class="st4" d="M-247.3,557.1c0,1.2-1,2.2-2.2,2.2h-3.3v-7.6h3c1.2,0,2.1,0.9,2.1,2.1c0,0.7-0.3,1.2-0.8,1.6
				C-247.8,555.6-247.3,556.2-247.3,557.1z M-251.8,552.5v2.3h2c0.6,0,1.1-0.5,1.1-1.2c0-0.6-0.5-1.2-1.1-1.2h-2V552.5z M-248.3,557
				c0-0.7-0.5-1.2-1.2-1.2h-2.3v2.5h2.3C-248.8,558.3-248.3,557.7-248.3,557z"/>
		</g>
		<g>
			<path class="st4" d="M-241.1,556.1v3.1h-1v-3.1l-2.7-4.5h1.1l2.1,3.6l2.1-3.6h1.1L-241.1,556.1z"/>
		</g>
	</g>
	<g class="st3">
		<g>
			<g>
				<g>
					<path class="st4" d="M465.6,555.4c0,2.1-1.5,3.8-3.6,3.8h-3v-7.6h3C464.1,551.6,465.6,553.3,465.6,555.4z M464.7,555.4
						c0-1.6-1.1-2.9-2.6-2.9h-2v5.7h2C463.6,558.3,464.7,557,464.7,555.4z"/>
				</g>
			</g>
			<g>
				<g>
					<path class="st4" d="M468.8,555.4c0-2.2,1.7-4,3.9-4s4,1.8,4,4s-1.7,4-4,4C470.5,559.4,468.8,557.6,468.8,555.4z M475.6,555.4
						c0-1.7-1.3-3-2.9-3c-1.7,0-2.9,1.3-2.9,3s1.3,3,2.9,3C474.4,558.4,475.6,557.1,475.6,555.4z"/>
				</g>
			</g>
			<g>
				<g>
					<path class="st4" d="M479.3,551.6h1.1l1.7,6.3l1.9-6.3h1l1.9,6.3l1.7-6.3h1.1l-2.2,7.6h-1.2l-1.8-6.1l-1.8,6.1h-1.2
						L479.3,551.6z"/>
				</g>
			</g>
			<g>
				<g>
					<path class="st4" d="M498.8,551.6v7.6H498l-3.9-5.7v5.7h-1v-7.6h0.8l3.9,5.7v-5.7H498.8z"/>
				</g>
			</g>
			<g>
				<g>
					<path class="st4" d="M507,558.3v1h-4.3v-7.6h1v6.7h3.3V558.3z"/>
				</g>
			</g>
			<g>
				<g>
					<path class="st4" d="M509.4,555.4c0-2.2,1.7-4,3.9-4s4,1.8,4,4s-1.7,4-4,4C511.1,559.4,509.4,557.6,509.4,555.4z M516.3,555.4
						c0-1.7-1.3-3-2.9-3c-1.7,0-2.9,1.3-2.9,3s1.3,3,2.9,3S516.3,557.1,516.3,555.4z"/>
				</g>
			</g>
			<g>
				<g>
					<path class="st4" d="M524.9,557.5h-3.4l-0.6,1.7h-1.1l2.8-7.6h1.1l2.8,7.6h-1L524.9,557.5z M524.6,556.6l-1.4-3.8l-1.4,3.8
						H524.6z"/>
				</g>
			</g>
			<g>
				<g>
					<path class="st4" d="M536.4,555.4c0,2.1-1.5,3.8-3.6,3.8h-3v-7.6h3C534.9,551.6,536.4,553.3,536.4,555.4z M535.4,555.4
						c0-1.6-1.1-2.9-2.6-2.9h-2v5.7h2C534.4,558.3,535.4,557,535.4,555.4z"/>
				</g>
			</g>
			<g>
				<g>
					<path class="st4" d="M546,552.5v2.5h3.2v1H546v3.2h-1v-7.6h4.4v1H546V552.5z"/>
				</g>
			</g>
			<g>
				<g>
					<path class="st4" d="M555.7,556.3h-1.8v2.9h-1v-7.6h3c1.3,0,2.4,1.1,2.4,2.4c0,1-0.7,1.9-1.6,2.2l1.8,3.1h-1.1L555.7,556.3z
						 M553.9,555.4h2c0.8,0,1.4-0.6,1.4-1.4c0-0.8-0.6-1.4-1.4-1.4h-2V555.4z"/>
				</g>
			</g>
			<g>
				<g>
					<path class="st4" d="M561.4,555.4c0-2.2,1.7-4,3.9-4s4,1.8,4,4s-1.7,4-4,4C563.1,559.4,561.4,557.6,561.4,555.4z M568.3,555.4
						c0-1.7-1.3-3-2.9-3c-1.7,0-2.9,1.3-2.9,3s1.3,3,2.9,3S568.3,557.1,568.3,555.4z"/>
				</g>
			</g>
			<g>
				<g>
					<path class="st4" d="M579.9,559.2h-1v-6l-2.5,4.2h-0.1l-2.5-4.1v5.9h-1v-7.6h1.1l2.4,4l2.4-4h1.1L579.9,559.2L579.9,559.2z"/>
				</g>
			</g>
		</g>
		<g>
			<g>
				<g>
					<path class="st4" d="M458.8,569.6c0-0.7,0.5-1.2,1.2-1.2s1.2,0.5,1.2,1.2s-0.5,1.2-1.2,1.2
						C459.4,570.8,458.8,570.3,458.8,569.6z M459.1,572.1h1.9v8.9h-1.9V572.1z"/>
				</g>
			</g>
			<g>
				<g>
					<path class="st4" d="M463.2,568.1h1.9V581h-1.9V568.1z"/>
				</g>
			</g>
			<g>
				<g>
					<path class="st4" d="M467.3,568.1h1.9V581h-1.9V568.1z"/>
				</g>
			</g>
			<g>
				<g>
					<path class="st4" d="M471.5,568.1h1.9V581h-1.9V568.1z"/>
				</g>
			</g>
			<g>
				<g>
					<path class="st4" d="M483.5,572.1v8.9h-1.9v-1.1c-0.6,0.9-1.5,1.4-2.7,1.4c-2,0-3.4-1.3-3.4-3.6v-5.4h1.9v5.2
						c0,1.3,0.8,2.1,2,2.1c1.3,0,2.2-0.7,2.2-2.5v-4.7h1.9V572.1z"/>
				</g>
			</g>
			<g>
				<g>
					<path class="st4" d="M492.1,578.5c0,1.8-1.5,2.7-3.5,2.7c-1.8,0-3-0.8-3.6-2.1l1.6-1c0.3,0.8,1,1.3,2,1.3c0.8,0,1.5-0.3,1.5-1
						c0-1.6-4.8-0.7-4.8-3.9c0-1.7,1.4-2.7,3.2-2.7c1.5,0,2.7,0.7,3.3,1.8l-1.6,0.9c-0.3-0.7-0.9-1-1.7-1c-0.7,0-1.3,0.3-1.3,0.9
						C487.4,576.2,492.1,575.2,492.1,578.5z"/>
				</g>
			</g>
			<g>
				<g>
					<path class="st4" d="M496.2,574v4.2c0,1.1,0.7,1.1,2.2,1v1.7c-2.9,0.4-4.1-0.5-4.1-2.8v-4.2h-1.6v-1.8h1.6v-1.9l1.9-0.6v2.5
						h2.2v1.8L496.2,574L496.2,574z"/>
				</g>
			</g>
			<g>
				<g>
					<path class="st4" d="M504.9,572v2.1c-1.3-0.1-2.7,0.5-2.7,2.5v4.5h-1.9v-8.9h1.9v1.5C502.7,572.4,503.7,572,504.9,572z"/>
				</g>
			</g>
			<g>
				<g>
					<path class="st4" d="M514.8,572.1v8.9h-1.9v-1.3c-0.7,0.9-1.7,1.5-3.1,1.5c-2.4,0-4.4-2-4.4-4.7c0-2.6,2-4.7,4.4-4.7
						c1.4,0,2.4,0.6,3.1,1.5V572h1.9V572.1z M512.9,576.6c0-1.6-1.2-2.8-2.8-2.8s-2.8,1.2-2.8,2.8s1.2,2.8,2.8,2.8
						S512.9,578.2,512.9,576.6z"/>
				</g>
			</g>
			<g>
				<g>
					<path class="st4" d="M519.8,574v4.2c0,1.1,0.7,1.1,2.2,1v1.7c-2.9,0.4-4.1-0.5-4.1-2.8v-4.2h-1.6v-1.8h1.6v-1.9l1.9-0.6v2.5
						h2.2v1.8L519.8,574L519.8,574z"/>
				</g>
			</g>
			<g>
				<g>
					<path class="st4" d="M523.4,569.6c0-0.7,0.5-1.2,1.2-1.2s1.2,0.5,1.2,1.2s-0.5,1.2-1.2,1.2C524,570.8,523.4,570.3,523.4,569.6z
						 M523.7,572.1h1.9v8.9h-1.9V572.1z"/>
				</g>
			</g>
			<g>
				<g>
					<path class="st4" d="M527.3,576.6c0-2.6,2.1-4.7,4.7-4.7c2.6,0,4.7,2,4.7,4.7c0,2.6-2.1,4.7-4.7,4.7
						C529.4,581.2,527.3,579.2,527.3,576.6z M534.8,576.6c0-1.6-1.2-2.8-2.8-2.8s-2.8,1.2-2.8,2.8s1.2,2.8,2.8,2.8
						S534.8,578.2,534.8,576.6z"/>
				</g>
			</g>
			<g>
				<g>
					<path class="st4" d="M546.5,575.6v5.4h-1.9v-5.2c0-1.3-0.8-2.1-2-2.1c-1.3,0-2.2,0.7-2.2,2.5v4.7h-1.9V572h1.9v1.1
						c0.6-0.9,1.5-1.4,2.7-1.4C545,571.9,546.5,573.3,546.5,575.6z"/>
				</g>
			</g>
			<g>
				<g>
					<path class="st4" d="M555,578.5c0,1.8-1.5,2.7-3.5,2.7c-1.8,0-3-0.8-3.6-2.1l1.6-1c0.3,0.8,1,1.3,2,1.3c0.8,0,1.5-0.3,1.5-1
						c0-1.6-4.8-0.7-4.8-3.9c0-1.7,1.4-2.7,3.2-2.7c1.5,0,2.7,0.7,3.3,1.8l-1.6,0.9c-0.3-0.7-0.9-1-1.7-1c-0.7,0-1.3,0.3-1.3,0.9
						C550.2,576.2,555,575.2,555,578.5z"/>
				</g>
			</g>
			<g>
				<g>
					<path class="st4" d="M556.3,579.9c0-0.7,0.6-1.3,1.3-1.3s1.3,0.6,1.3,1.3s-0.6,1.3-1.3,1.3
						C556.9,581.2,556.3,580.6,556.3,579.9z"/>
				</g>
			</g>
			<g>
				<g>
					<path class="st4" d="M559.8,576.6c0-2.6,2-4.7,4.7-4.7c1.7,0,3.2,0.9,3.9,2.3l-1.6,1c-0.4-0.8-1.3-1.4-2.3-1.4
						c-1.6,0-2.7,1.2-2.7,2.8s1.2,2.8,2.7,2.8c1.1,0,1.9-0.5,2.4-1.4l1.6,0.9c-0.7,1.4-2.2,2.3-4,2.3
						C561.8,581.2,559.8,579.2,559.8,576.6z"/>
				</g>
			</g>
			<g>
				<g>
					<path class="st4" d="M569.2,576.6c0-2.6,2.1-4.7,4.7-4.7c2.6,0,4.7,2,4.7,4.7c0,2.6-2.1,4.7-4.7,4.7
						C571.3,581.2,569.2,579.2,569.2,576.6z M576.7,576.6c0-1.6-1.2-2.8-2.8-2.8s-2.8,1.2-2.8,2.8s1.2,2.8,2.8,2.8
						S576.7,578.2,576.7,576.6z"/>
				</g>
			</g>
		</g>
	</g>
	<g class="st3">
		<path class="st4" d="M-170.6,559.8c-1.2,0-2.2-0.4-3-1.2s-1.2-1.8-1.2-2.9c0-1.2,0.4-2.1,1.2-2.9c0.8-0.8,1.8-1.2,3-1.2
			c0.7,0,1.4,0.2,2,0.5s1.1,0.8,1.4,1.4l-0.9,0.5c-0.2-0.4-0.6-0.8-1-1s-0.9-0.4-1.5-0.4c-0.9,0-1.7,0.3-2.2,0.9
			c-0.6,0.6-0.9,1.3-0.9,2.2s0.3,1.6,0.9,2.2c0.6,0.6,1.3,0.9,2.2,0.9c0.5,0,1-0.1,1.5-0.4c0.5-0.3,0.8-0.6,1-1l0.9,0.5
			c-0.3,0.6-0.8,1.1-1.4,1.4S-169.9,559.8-170.6,559.8z"/>
		<path class="st4" d="M-158.4,558.6c-0.8,0.8-1.8,1.2-2.9,1.2s-2.1-0.4-2.9-1.2s-1.2-1.8-1.2-2.9c0-1.2,0.4-2.1,1.2-2.9
			c0.8-0.8,1.8-1.2,2.9-1.2s2.1,0.4,2.9,1.2c0.8,0.8,1.2,1.8,1.2,2.9C-157.2,556.8-157.6,557.8-158.4,558.6z M-163.5,557.9
			c0.6,0.6,1.3,0.9,2.2,0.9s1.6-0.3,2.2-0.9c0.6-0.6,0.9-1.3,0.9-2.2s-0.3-1.6-0.9-2.2c-0.6-0.6-1.3-0.9-2.2-0.9s-1.6,0.3-2.2,0.9
			c-0.6,0.6-0.9,1.3-0.9,2.2C-164.4,556.5-164.1,557.3-163.5,557.9z"/>
		<path class="st4" d="M-153.2,559.6l-2.8-7.9h1.1l2.3,6.6l2.3-6.6h1.1l-2.8,7.9H-153.2z"/>
		<path class="st4" d="M-147.2,551.7h1.1v7.9h-1.1V551.7z"/>
		<path class="st4" d="M-140.3,551.7c1.1,0,2,0.4,2.7,1.2s1.1,1.7,1.1,2.8s-0.4,2.1-1.1,2.8c-0.7,0.8-1.6,1.2-2.7,1.2h-3.1v-8
			H-140.3z M-140.3,558.6c0.8,0,1.5-0.3,2-0.9c0.5-0.6,0.8-1.3,0.8-2.1s-0.3-1.6-0.8-2.1c-0.5-0.6-1.2-0.9-2-0.9h-2v5.9
			L-140.3,558.6L-140.3,558.6z"/>
		<path class="st4" d="M-134.3,556.6v-1h4.1v1H-134.3z"/>
		<path class="st4" d="M-127.9,559.6v-0.9l2.8-2.9c0.7-0.7,1.1-1.4,1.1-1.9c0-0.4-0.1-0.8-0.4-1c-0.3-0.2-0.6-0.4-1-0.4
			c-0.7,0-1.3,0.4-1.6,1.1l-0.9-0.5c0.2-0.5,0.6-0.9,1-1.2s0.9-0.4,1.5-0.4c0.7,0,1.2,0.2,1.7,0.7c0.5,0.4,0.7,1,0.7,1.8
			s-0.5,1.7-1.4,2.6l-2,2h3.6v1L-127.9,559.6L-127.9,559.6z"/>
	</g>
	<g class="st3">
		<path class="st4" d="M-172.4,581.5l-3.7-13h2.3l2.7,10.2l3-10.2h2l2.9,10.2l2.7-10.2h2.3l-3.7,13h-2.5l-2.8-9.5l-2.8,9.5H-172.4z"
			/>
		<path class="st4" d="M-153.4,581.8c-1.4,0-2.5-0.5-3.5-1.4s-1.4-2.1-1.4-3.5s0.5-2.5,1.4-3.5s2.1-1.4,3.5-1.4s2.5,0.5,3.5,1.4
			s1.4,2.1,1.4,3.5s-0.5,2.5-1.4,3.5S-152,581.8-153.4,581.8z M-155.5,579c0.6,0.6,1.2,0.8,2.1,0.8c0.8,0,1.5-0.3,2.1-0.8
			c0.6-0.6,0.8-1.3,0.8-2.1s-0.3-1.5-0.8-2.1c-0.6-0.6-1.2-0.8-2.1-0.8c-0.8,0-1.5,0.3-2.1,0.8c-0.6,0.6-0.8,1.3-0.8,2.1
			S-156,578.4-155.5,579z"/>
		<path class="st4" d="M-144.7,573.8c0.5-1.2,1.5-1.7,2.9-1.7v2.2c-0.8,0-1.4,0.1-2,0.5s-0.9,1.1-0.9,2.1v4.7h-2v-9.3h2V573.8z"/>
		<path class="st4" d="M-132.1,581.5h-2.4l-3.8-4.3v4.3h-2v-13h2v7.8l3.6-4.1h2.5l-4.1,4.6L-132.1,581.5z"/>
		<path class="st4" d="M-118.3,570.6h-5.5v3.6h5.3v2h-5.3v5.3h-2.1v-13h7.6V570.6z"/>
		<path class="st4" d="M-114.4,573.8c0.5-1.2,1.5-1.7,2.9-1.7v2.2c-0.8,0-1.4,0.1-2,0.5s-0.9,1.1-0.9,2.1v4.7h-2v-9.3h2V573.8z"/>
		<path class="st4" d="M-106.1,581.8c-1.4,0-2.5-0.5-3.5-1.4s-1.4-2.1-1.4-3.5s0.5-2.5,1.4-3.5s2.1-1.4,3.5-1.4s2.5,0.5,3.5,1.4
			s1.4,2.1,1.4,3.5s-0.5,2.5-1.4,3.5S-104.8,581.8-106.1,581.8z M-108.2,579c0.6,0.6,1.2,0.8,2.1,0.8c0.8,0,1.5-0.3,2.1-0.8
			c0.6-0.6,0.8-1.3,0.8-2.1s-0.3-1.5-0.8-2.1c-0.6-0.6-1.2-0.8-2.1-0.8c-0.8,0-1.5,0.3-2.1,0.8c-0.6,0.6-0.8,1.3-0.8,2.1
			S-108.8,578.4-108.2,579z"/>
		<path class="st4" d="M-89.2,572c1.1,0,1.9,0.3,2.5,1s1,1.6,1,2.8v5.8h-2V576c0-0.6-0.2-1.1-0.5-1.5s-0.8-0.5-1.3-0.5
			c-0.6,0-1.1,0.2-1.5,0.6c-0.4,0.4-0.5,1-0.5,1.8v5.2h-2V576c0-0.6-0.2-1.1-0.5-1.5s-0.7-0.5-1.3-0.5c-0.6,0-1.1,0.2-1.5,0.6
			c-0.4,0.4-0.6,1-0.6,1.8v5.2h-2v-9.3h2v1.1c0.6-0.9,1.5-1.4,2.7-1.4s2.1,0.5,2.6,1.5C-91.5,572.5-90.5,572-89.2,572z"/>
		<path class="st4" d="M-71.1,568.5h2.1v13h-2.1v-5.6h-5.6v5.6h-2.1v-13h2.1v5.3h5.6V568.5z"/>
		<path class="st4" d="M-62.1,581.8c-1.4,0-2.5-0.5-3.5-1.4s-1.4-2.1-1.4-3.5s0.5-2.5,1.4-3.5s2.1-1.4,3.5-1.4s2.5,0.5,3.5,1.4
			s1.4,2.1,1.4,3.5s-0.5,2.5-1.4,3.5S-60.7,581.8-62.1,581.8z M-64.1,579c0.6,0.6,1.2,0.8,2.1,0.8c0.8,0,1.5-0.3,2.1-0.8
			c0.6-0.6,0.8-1.3,0.8-2.1s-0.3-1.5-0.8-2.1c-0.6-0.6-1.2-0.8-2.1-0.8c-0.8,0-1.5,0.3-2.1,0.8c-0.6,0.6-0.8,1.3-0.8,2.1
			S-64.7,578.4-64.1,579z"/>
		<path class="st4" d="M-45.2,572c1.1,0,1.9,0.3,2.5,1s1,1.6,1,2.8v5.8h-2V576c0-0.6-0.2-1.1-0.5-1.5s-0.8-0.5-1.3-0.5
			c-0.6,0-1.1,0.2-1.5,0.6c-0.4,0.4-0.5,1-0.5,1.8v5.2h-2V576c0-0.6-0.2-1.1-0.5-1.5s-0.7-0.5-1.3-0.5c-0.6,0-1.1,0.2-1.5,0.6
			c-0.4,0.4-0.6,1-0.6,1.8v5.2h-2v-9.3h2v1.1c0.6-0.9,1.5-1.4,2.7-1.4s2.1,0.5,2.6,1.5C-47.4,572.5-46.4,572-45.2,572z"/>
		<path class="st4" d="M-37.9,577.7c0.1,0.7,0.5,1.2,1,1.6s1.2,0.6,2,0.6c1.1,0,1.9-0.4,2.4-1.2l1.7,1c-0.9,1.4-2.3,2-4.1,2
			c-1.5,0-2.7-0.5-3.7-1.4c-0.9-0.9-1.4-2.1-1.4-3.5s0.5-2.6,1.4-3.5s2.1-1.4,3.5-1.4s2.5,0.5,3.4,1.4c0.9,1,1.3,2.1,1.3,3.5
			c0,0.2,0,0.5-0.1,0.8h-7.4V577.7z M-37.9,576.1h5.5c-0.1-0.8-0.4-1.3-0.9-1.7s-1.1-0.6-1.7-0.6c-0.7,0-1.4,0.2-1.9,0.6
			C-37.5,574.8-37.8,575.4-37.9,576.1z"/>
		<path class="st4" d="M-24.6,581.5v-1.7l4.5-4.6c1.1-1.1,1.7-2.1,1.7-2.9c0-0.6-0.2-1.1-0.6-1.5s-0.9-0.5-1.4-0.5
			c-1.1,0-1.9,0.5-2.4,1.6l-1.8-1.1c0.4-0.9,1-1.5,1.7-2s1.6-0.7,2.5-0.7c1.1,0,2.1,0.4,2.9,1.1c0.8,0.7,1.2,1.7,1.2,2.9
			c0,1.3-0.7,2.7-2.2,4.2l-2.9,2.9h5.4v2.1h-8.6V581.5z"/>
	</g>
</g>
<path class="st5" d="M141.9,193.3H48.7c-7.5,0-13.6-5.5-13.6-12.3v-29.7c0-3.6,1.7-6.9,4.8-9.3l21.1-16.2h55.2l21.1,16.2
	c3,2.3,4.8,5.7,4.8,9.3L141.9,193.3L141.9,193.3z"/>
<path class="st6" d="M141.9,193.3H48.7c-7.5,0-13.6-5.5-13.6-12.3v-29.7c0-3.6,1.7-6.9,4.8-9.3l21.1-16.2h55.2l21.1,16.2
	c3,2.3,4.8,5.7,4.8,9.3L141.9,193.3L141.9,193.3z"/>
<path class="st7" d="M35.1,174.9v6.2c0,6.8,6.1,12.3,13.6,12.3h93.2v-6.2H48.7C41.2,187.1,35.1,181.6,35.1,174.9z"/>
<path class="st7" d="M137.1,142.1L116,125.9h-8.2l21.1,16.2c3,2.3,4.8,5.7,4.8,9.3v42h8.2v-42C141.9,147.8,140.1,144.4,137.1,142.1z
	"/>
<polygon class="st8" points="69.5,131 88.4,143.2 107.3,131 "/>
<path class="st9" d="M141.9,193.3H48.7c-7.5,0-13.6-5.5-13.6-12.3v-29.7c0-3.6,1.7-6.9,4.8-9.3l21.1-16.2h55.2l21.1,16.2
	c3,2.3,4.8,5.7,4.8,9.3L141.9,193.3L141.9,193.3z"/>
<rect x="68.7" y="175.9" class="st10" width="21.2" height="17.4"/>
<rect x="68.7" y="189.5" class="st11" width="21.2" height="3.8"/>
<rect x="68.7" y="175.9" class="st9" width="21.2" height="17.4"/>
<path class="st9" d="M53.8,131.5l17.8,22.4c0,0,4.6-12.7,16.7-10.7C70.8,131.5,69.5,131,69.5,131"/>
<path class="st9" d="M123.1,131.2l-17.8,22.4c0,0-4.6-12.7-16.7-10.7c17.6-11.7,18.9-12.2,18.9-12.2"/>
<line class="st12" x1="88.4" y1="143.2" x2="88.4" y2="184.1"/>
<ellipse class="st13" cx="95" cy="155" rx="1.8" ry="1.6"/>
<ellipse class="st13" cx="95" cy="165.2" rx="1.8" ry="1.6"/>
<g>
	<g>
		<path class="st14" d="M156.9,193.7H86c-2.7,0-4.9-2-4.9-4.4v-0.8c0-2.5,2.2-4.4,4.9-4.4h75.9v5.2
			C161.9,191.8,159.6,193.7,156.9,193.7z"/>
		<path class="st9" d="M156.9,193.7H86c-2.7,0-4.9-2-4.9-4.4v-0.8c0-2.5,2.2-4.4,4.9-4.4h75.9v5.2
			C161.9,191.8,159.6,193.7,156.9,193.7z"/>
	</g>
	<path class="st8" d="M209,193.8h-67.7c-3.1,0-5.4-2.6-4.8-5.3l12.7-51.2c1.1-4.2,5-7.2,9.5-7.2h63.5c5.2,0,9.1,4.8,7.9,9.7
		l-11.6,46.9C217.4,190.8,213.5,193.8,209,193.8z"/>
	<path class="st15" d="M209,193.8h-67.7c-3.1,0-5.4-2.6-4.8-5.3l12.7-51.2c1.1-4.2,5-7.2,9.5-7.2h63.5c5.2,0,9.1,4.8,7.9,9.7
		l-11.6,46.9C217.4,190.8,213.5,193.8,209,193.8z"/>
	<path class="st14" d="M212.3,191.5h-67.8c-3.1,0-5.4-2.6-4.8-5.3l12.7-51.2c0.4-1.6,1.2-3,2.3-4.2c-2.7,1.2-4.8,3.5-5.5,6.4
		l-12.7,51.2c-0.7,2.7,1.6,5.3,4.8,5.3H209c2.8,0,5.3-1.1,7.1-3C215,191.2,213.6,191.5,212.3,191.5z"/>
	<path class="st14" d="M142,188.4l12.7-51.2c1.1-4.2,5-7.2,9.5-7.2h-5.5c-4.5,0-8.4,3-9.5,7.2l-12.7,51.2c-0.7,2.7,1.6,5.3,4.8,5.3
		h5.5C143.6,193.8,141.3,191.1,142,188.4z"/>
	<path class="st9" d="M209,193.8h-67.7c-3.1,0-5.4-2.6-4.8-5.3l12.7-51.2c1.1-4.2,5-7.2,9.5-7.2h63.5c5.2,0,9.1,4.8,7.9,9.7
		l-11.6,46.9C217.4,190.8,213.5,193.8,209,193.8z"/>
	<path class="st16" d="M189,157.6c0-0.4,0.1-0.8,0.2-1.1c-0.5-0.1-1-0.2-1.5-0.1c-3.6,0.1-7,3.1-7.7,6.7c-0.7,3.6,1.6,6.4,5.2,6.3
		c3.4-0.1,6.7-2.8,7.6-6.2C190.4,162.4,188.7,160.2,189,157.6z"/>
</g>
<g>
	<path class="st10" d="M102.6,178.9h3.9c1.6,0,2.9,1.2,2.9,2.6l0,0c0,1.4-1.3,2.6-2.9,2.6H98"/>
	<path class="st9" d="M101.4,178.9h5.1c1.6,0,2.9,1.2,2.9,2.6l0,0c0,1.4-1.3,2.6-2.9,2.6H98"/>
</g>
<g>
	<path class="st10" d="M86,175.9h13.9c2.5,0,4.5,1.8,4.5,4.1l0,0c0,2.3-2,4.1-4.5,4.1H86"/>
	<path class="st9" d="M86,175.9h13.9c2.5,0,4.5,1.8,4.5,4.1l0,0c0,2.3-2,4.1-4.5,4.1H86"/>
</g>
<path class="st9" d="M88.7,178.9h5.8c1.6,0,2.9,1.2,2.9,2.6l0,0c0,1.4-1.3,2.6-2.9,2.6H86"/>
<polyline class="st9" points="57.5,172 68.7,172 68.7,193.3 "/>
<g>
	<g>
		<path class="st10" d="M88.7,134.2h-1.4c-19.2,0-34.8-9.4-34.8-26.7v-39h70.9v39C123.5,124.8,107.9,134.2,88.7,134.2z"/>
		<path class="st11" d="M52.7,76.7c0,0,6.3,9.7,23.5,10.3c26.3,0.8,36.7-11.4,36.7-11.4L52.7,76.7z"/>
		<path class="st11" d="M88.7,129.9h-1.4c-19.2,0-34.8-8.4-34.8-25.7v3.2c0,17.3,15.6,26.7,34.8,26.7h1.4c19.2,0,34.8-9.4,34.8-26.7
			v-3.2C123.5,121.5,107.9,129.9,88.7,129.9z"/>
		<path class="st9" d="M88.7,134.2h-1.4c-19.2,0-34.8-9.4-34.8-26.7v-39h70.9v39C123.5,124.8,107.9,134.2,88.7,134.2z"/>
		<path class="st17" d="M62.2,87.6c-3.5,11-9.5,8.5-9.5,8.5V66.9h10C62.7,66.9,64.4,80.6,62.2,87.6z"/>
		<path class="st18" d="M62.9,84.2c0.4-2.4,0.4-5.2,0.4-7.8l-10.6,0.2C52.7,76.7,55.6,81.2,62.9,84.2z"/>
		<path class="st9" d="M62.2,87.6c-3.5,11-9.5,8.5-9.5,8.5V66.9h10C62.7,66.9,64.4,80.6,62.2,87.6z"/>
		<g>
			<path class="st17" d="M114.8,52.4c-5.1-4.2-12.8-8-23.4-7.7c-0.1,1.9,1.4,6,4.1,8c-10.2-8.5-32-8.6-39-2.2c1,2.9,3.9,6.7,8.4,8.7
				c-12.8-2.7-21.7,3.1-22.4,5.1c2.2,5,7.3,10.2,10.4,12.3c10.5,7.1,39.4,9.8,57.3,0.5c1-0.5,2-1.1,2.8-1.6
				c-0.1,4.1,0.1,8.8,1.1,12.1c3.5,11,9.5,8.5,9.5,8.5V70.4C123.5,63.5,120.4,57,114.8,52.4z"/>
			<g>
				<path class="st18" d="M95.4,52.8L95.4,52.8c-0.6-0.8-2.4-1.5-5.2-3.2c-11.1-5.2-27.9-4.5-33.9,1c0.1,0.4,0.3,0.9,0.5,1.3
					c8-4.7,25.1-5,34.9,1.7C93,54.3,95.4,54.2,95.4,52.8z"/>
				<path class="st18" d="M64.8,59.6c0-0.2-0.1-0.3-0.1-0.4c-0.5-0.1-2.4-0.3-6.3-0.7c-9.3-0.1-15.5,4.1-16.1,5.8
					c0.1,0.3,0.2,0.5,0.4,0.8c3.1-2.3,10.8-5.3,19.9-3.8C63.8,61.5,64.9,60.7,64.8,59.6z"/>
				<path class="st18" d="M114.8,52.4c-5.1-4.2-12.8-8-23.4-7.7c-0.1,0.7,0.1,1.6,0.5,2.7c7.6,0.1,14.3,2.6,18.2,6.2
					c7.6,7,3.1,17.4-0.2,21.1c-4,4.5-6.5,5.2-6.5,5.2s8-2.1,9.6-4.4c-1.4,6.4,2,19.9,9.2,20.9c0.9,0,1.4-0.2,1.4-0.2V70.4
					C123.5,63.5,120.4,57,114.8,52.4z"/>
			</g>
			<path class="st9" d="M117.6,55c-5-5.1-13.5-10.6-26.3-10.3c-0.1,1.9,1.4,6,4.1,8c-10.2-8.5-32-8.6-39-2.2c1,2.9,3.9,6.7,8.4,8.7
				c-12.8-2.7-21.7,3.1-22.4,5.1c2.2,5,7.3,10.2,10.4,12.3c10.5,7.1,39.4,9.8,57.3,0.5c1-0.5,2-1.1,2.8-1.6
				c-0.1,4.1,0.1,8.8,1.1,12.1c3.5,11,9.5,8.5,9.5,8.5V69.1C123.5,63.9,121.5,58.9,117.6,55z"/>
			<path class="st9" d="M118.2,71c0,0-3.1,3-5.3,4.5c-2.3,1.5-5.7,3.4-10.2,4.6"/>
		</g>
	</g>
	<path class="st9" d="M70.6,96.7c3.3-0.5,6.7-0.5,10,0"/>
	<ellipse class="st13" cx="77.8" cy="100.3" rx="2.5" ry="2.2"/>
	<path class="st9" d="M96.1,96.7c3.3-0.5,6.7-0.5,10,0"/>
	<ellipse class="st13" cx="103.2" cy="100.3" rx="2.5" ry="2.2"/>
	<path class="st9" d="M84,109.7c0.9,1.4,2.6,2.3,4.5,2.3c1.9,0,3.6-0.9,4.5-2.3"/>
	<g>
		<path class="st16" d="M97.9,117.6c0,3.7-4.3,6.7-9.5,6.7c-5.2,0-9.5-3-9.5-6.7H97.9z"/>
		<path class="st9" d="M97.9,117.6c0,3.7-4.3,6.7-9.5,6.7c-5.2,0-9.5-3-9.5-6.7H97.9z"/>
	</g>
	<g>
		<path class="st10" d="M52.6,87c0,0-6.3-0.4-6.3,5.4c0,6.2,1.6,10,6.3,10.1V87z"/>
		<path class="st9" d="M52.6,87c0,0-6.3-0.4-6.3,5.4c0,6.2,1.6,10,6.3,10.1V87z"/>
	</g>
	<g>
		<path class="st10" d="M123.5,87c0,0,6.3-0.4,6.3,5.4c0,6.2-1.6,10-6.3,10.1V87z"/>
		<path class="st9" d="M123.5,87c0,0,6.3-0.4,6.3,5.4c0,6.2-1.6,10-6.3,10.1V87z"/>
	</g>
</g>
<g>
	<path class="st19" d="M216.8,84.4h-37c-3,0-5.4,2.2-5.4,4.9v18.1c0,2.7,2.4,4.9,5.4,4.9h12.4l6.2,6.9l6.2-6.9h12.3
		c3,0,5.4-2.2,5.4-4.9V89.3C222.2,86.6,219.8,84.4,216.8,84.4z"/>
	<path class="st9" d="M216.8,84.4h-37c-3,0-5.4,2.2-5.4,4.9v18.1c0,2.7,2.4,4.9,5.4,4.9h12.4l6.2,6.9l6.2-6.9h12.3
		c3,0,5.4-2.2,5.4-4.9V89.3C222.2,86.6,219.8,84.4,216.8,84.4z"/>
	<g>
		<ellipse class="st16" cx="188.3" cy="99.1" rx="2.6" ry="2.4"/>
		<ellipse class="st16" cx="208.9" cy="99.1" rx="2.6" ry="2.4"/>
		<ellipse class="st16" cx="198.6" cy="99.1" rx="2.6" ry="2.4"/>
	</g>
</g>
</svg>
