<?xml version="1.0" encoding="utf-8"?>
<!-- Generator: Adobe Illustrator 25.3.1, SVG Export Plug-In . SVG Version: 6.00 Build 0)  -->
<svg version="1.1" id="Layer_1" xmlns="http://www.w3.org/2000/svg" xmlns:xlink="http://www.w3.org/1999/xlink" x="0px" y="0px"
	 viewBox="0 0 250 250" style="enable-background:new 0 0 250 250;" xml:space="preserve">
<style type="text/css">
	.st0{fill:#92E3A9;}
	.st1{opacity:0.8;fill:#FFFFFF;enable-background:new    ;}
	.st2{fill:#FFFFFF;stroke:#263238;stroke-miterlimit:10;}
	.st3{fill:none;stroke:#263238;stroke-miterlimit:10;}
	.st4{fill:#FFFFFF;}
	.st5{fill:#263238;stroke:#263238;stroke-miterlimit:10;}
	.st6{fill:#FFFFFF;stroke:#263238;stroke-linecap:round;stroke-linejoin:round;stroke-miterlimit:10;}
	.st7{fill:none;stroke:#263238;stroke-linecap:round;stroke-linejoin:round;stroke-miterlimit:10;}
	.st8{fill:#92E3A9;stroke:#263238;stroke-linecap:round;stroke-linejoin:round;stroke-miterlimit:10;}
</style>
<path class="st0" d="M223.9,105.9c-7.4-23.4-26.5-42.2-49-52.1c-21.5-9.4-48.7-14.1-69.1,0.4c-13.4,9.6-21,24.9-33.3,35.6
	c-6.1,5.3-12.8,7.1-20.1,10.2c-17.7,7.8-32.6,22.8-33.8,42.5c-2,33,25.1,55.9,55.3,63.4c40,9.9,69.8,9.9,97.3-0.8
	c14.3-5.6,28.8-12.6,39-24.1c15.5-17.4,19.8-42.1,16.3-64.5C225.8,113,225,109.4,223.9,105.9z"/>
<path class="st1" d="M223.9,105.9c-7.4-23.4-26.5-42.2-49-52.1c-21.5-9.4-48.7-14.1-69.1,0.4c-13.4,9.6-21,24.9-33.3,35.6
	c-6.1,5.3-12.8,7.1-20.1,10.2c-17.7,7.8-32.6,22.8-33.8,42.5c-2,33,25.1,55.9,55.3,63.4c40,9.9,69.8,9.9,97.3-0.8
	c14.3-5.6,28.8-12.6,39-24.1c15.5-17.4,19.8-42.1,16.3-64.5C225.8,113,225,109.4,223.9,105.9z"/>
<path class="st2" d="M188.6,126.5c0,0-5.4-4.9-6.9-6.1c-1.4-1.2-7.4-8.3-9.9-12.1s-3.7-3.5-9-5.5c-5.3-2-9.2-3-10.1-2.3
	c-0.8,0.7-7.5,7.4-9.9,9.5c-2.4,2-4.2,2.5-2.2,2.8c2,0.3,4.8-0.6,4.8-0.6s-0.6,1.9-2.9,4.3c-2.3,2.4-0.6,3,0.5,2.6s3.9-2.7,3.9-2.7
	s-2.3,4.2-1.2,4.3s4.8-3.8,4.8-3.8s-2.3,5.5-0.7,5.7c1.5,0.1,2.6-2.8,3.2-4.1c0.6-1.3,1-2.3,1-2.3s5.4,8.2,9,10.2
	c3.5,2,10.3,3.4,10.3,3.4l7.2,6.3L188.6,126.5z"/>
<path class="st3" d="M145.6,112.2c0,0,1.5-0.5,8-5.6l4.3,1.2"/>
<path class="st3" d="M147.1,116.4c0,0,1.9-1.4,3.2-4.2"/>
<path class="st3" d="M150.7,116.9c0,0,1.3-1.2,2.8-3.4"/>
<path class="st3" d="M145.3,107.3c-3.9,2-8.6,0.5-10.7-3.2l-6.9-17.7l9.8-5L148.7,97C150.7,100.8,149.2,105.4,145.3,107.3z"/>
<path class="st0" d="M145.5,93.7c-0.9,0.4-2.1,0.7-3.5,0.6c-3.8-0.3-5.1-1.9-8.1-2.3c-1.4-0.2-2.5-0.1-3.3,0l4.4,11.4
	c1.8,3.4,6.2,4.7,9.7,2.9c3.5-1.8,4.9-6,3-9.4L145.5,93.7z"/>
<path class="st4" d="M141.3,103.6c0,0.4-0.3,0.7-0.8,0.7s-0.8-0.3-0.8-0.7s0.3-0.7,0.8-0.7S141.3,103.2,141.3,103.6z"/>
<path class="st4" d="M138.8,99.4c0,0.5-0.4,1-1,1c-0.6,0-1-0.4-1-1c0-0.5,0.4-1,1-1C138.4,98.5,138.8,98.9,138.8,99.4z"/>
<path class="st4" d="M146.4,102.2c0,0.7-0.6,1.3-1.3,1.3c-0.7,0-1.3-0.6-1.3-1.3c0-0.7,0.6-1.3,1.3-1.3
	C145.8,101,146.4,101.5,146.4,102.2z"/>
<path class="st4" d="M143.9,98.3c0.3,0,0.5-0.2,0.5-0.5c0-0.3-0.2-0.5-0.5-0.5s-0.5,0.2-0.5,0.5C143.4,98.1,143.6,98.3,143.9,98.3z"
	/>
<path class="st4" d="M141.6,97.3c0,0.2-0.2,0.4-0.4,0.4c-0.2,0-0.4-0.2-0.4-0.4s0.2-0.4,0.4-0.4C141.4,96.9,141.6,97.1,141.6,97.3z"
	/>
<path class="st4" d="M136.9,94.8c0,0.3-0.2,0.5-0.5,0.5c-0.3,0-0.5-0.2-0.5-0.5c0-0.3,0.2-0.5,0.5-0.5
	C136.7,94.3,136.9,94.5,136.9,94.8z"/>
<path class="st1" d="M145.6,105.8c-3.2,1.6-7.2,0.3-9-3l-6.1-15.3l-0.9,0.4l6.2,15.5c1.8,3.3,5.8,4.6,9,3c0.4-0.2,0.8-0.5,1.2-0.8
	C145.9,105.7,145.8,105.8,145.6,105.8z"/>
<path class="st3" d="M164.4,124.2c-1.1,0.4-4.8,1.6-6,1.7c-0.8,0-1.6,0-2.2-0.1l-10.1-18.9c-0.2,0.1-0.4,0.2-0.6,0.3
	c-0.2,0.1-0.4,0.2-0.6,0.3l10.1,18.8c-0.2,0.5-0.6,1.2-1.2,1.9c-0.7,0.9-3.9,3.1-4.8,3.8c-0.1,0.1-0.2,0.3-0.1,0.5
	c0.1,0.2,0.3,0.2,0.5,0.2l7.6-3.8l0.1-0.1l7.6-3.8c0.2-0.1,0.3-0.3,0.2-0.5C164.7,124.2,164.5,124.2,164.4,124.2z"/>
<path class="st4" d="M167,110c0,0-2.5-0.1-4.2-0.2c-1.7-0.2-7.5-1.2-11.9-2.6c-4.4-1.5-6.6-2.4-7.2-1.9c-0.5,0.6-0.8,2.2,2.5,4.5
	c3.4,2.3,7.1,4,8.8,4.2s3,1.2,3,1.2s5,6.4,7.9,8.4c2.9,2.1,8.2,2.7,8.2,2.7"/>
<path class="st3" d="M167,110c0,0-2.5-0.1-4.2-0.2c-1.7-0.2-7.5-1.2-11.9-2.6c-4.4-1.5-6.6-2.4-7.2-1.9c-0.5,0.6-0.8,2.2,2.5,4.5
	c3.4,2.3,7.1,4,8.8,4.2s3,1.2,3,1.2s5,6.4,7.9,8.4c2.9,2.1,8.2,2.7,8.2,2.7"/>
<path class="st2" d="M187.3,123.1L176,136.5l6.8,5.1l10.9-13.8L187.3,123.1z"/>
<path class="st5" d="M177.4,143.5l46.3,34.1c5.3-9.3,8.3-19.8,9.3-30.5l-41.3-21.5L177.4,143.5z"/>
<path class="st4" d="M183.7,142.6c0,0.4-0.4,0.8-0.8,0.8c-0.5,0-0.8-0.4-0.8-0.8c0-0.4,0.4-0.8,0.8-0.8
	C183.3,141.8,183.7,142.2,183.7,142.6z"/>
<path class="st4" d="M186.5,145.3c0,0.4-0.4,0.8-0.8,0.8c-0.5,0-0.8-0.4-0.8-0.8s0.4-0.8,0.8-0.8
	C186.1,144.5,186.5,144.9,186.5,145.3z"/>
<path class="st4" d="M16.9,143.6c2.8-1.3,22-6,29.7-7.9c7.6-2,16.9-7.5,19.2-9.1c2.3-1.5,16.1-12.8,18.1-14.5c2-1.7,7.6-2.8,11.7-3
	s8.5,0.2,10.3,0.6c1.8,0.4,5.6,2.3,4.8,3.6c-0.8,1.3-3.7-0.6-6.6-0.4c-2.8,0.3-4.4,1.6-4.4,1.6s1.1,6.9-0.3,8.1
	c-1.4,1.2-4.1,3.1-8.2,4.9c-4.1,1.8-7.6,2.5-10.5,3.3c-2.9,0.8-4.2,1.1-4.2,1.1s-15.8,8.3-25.1,16.6s-24.7,16-35.5,21.2"/>
<path class="st3" d="M16.9,143.6c2.8-1.3,22-6,29.7-7.9c7.6-2,16.9-7.5,19.2-9.1c2.3-1.5,16.1-12.8,18.1-14.5c2-1.7,7.6-2.8,11.7-3
	s8.5,0.2,10.3,0.6c1.8,0.4,5.6,2.3,4.8,3.6c-0.8,1.3-3.7-0.6-6.6-0.4c-2.8,0.3-4.4,1.6-4.4,1.6s1.1,6.9-0.3,8.1
	c-1.4,1.2-4.1,3.1-8.2,4.9c-4.1,1.8-7.6,2.5-10.5,3.3c-2.9,0.8-4.2,1.1-4.2,1.1s-15.8,8.3-25.1,16.6s-24.7,16-35.5,21.2"/>
<path class="st3" d="M99.9,109.3c-4.3-0.6-7.3-4.5-6.6-8.7l5.3-18.2l10.9,1.6l-0.6,18.9C108.2,107.1,104.2,110,99.9,109.3z"/>
<path class="st0" d="M101.6,92.4c-2.6,2.3-5,3.1-6.3,3.4l-1.4,4.7c-0.6,3.9,2.1,7.5,6,8.1c4,0.6,7.7-2.1,8.3-6l0.5-14.6
	C107,88.7,104.2,90.1,101.6,92.4z"/>
<path class="st4" d="M100.6,107c0.3,0,0.6-0.3,0.6-0.6c0-0.3-0.3-0.6-0.6-0.6c-0.3,0-0.6,0.3-0.6,0.6C100,106.8,100.3,107,100.6,107
	z"/>
<path class="st4" d="M99.9,102.3c0,0.4-0.3,0.7-0.7,0.7c-0.4,0-0.7-0.3-0.7-0.7s0.3-0.7,0.7-0.7C99.6,101.6,99.9,101.9,99.9,102.3z"
	/>
<path class="st4" d="M107.4,100.8c0,0.8-0.7,1.4-1.5,1.4c-0.8,0-1.5-0.6-1.5-1.4c0-0.8,0.7-1.4,1.5-1.4S107.4,100,107.4,100.8z"/>
<path class="st4" d="M102.7,104.1c0,0.3-0.3,0.6-0.6,0.6c-0.3,0-0.6-0.2-0.6-0.6c0-0.3,0.3-0.6,0.6-0.6
	C102.5,103.5,102.7,103.8,102.7,104.1z"/>
<path class="st1" d="M101,108.3c-3.6-0.5-6-3.9-5.4-7.6l4.5-15.9l-1-0.1l-4.5,16c-0.6,3.7,1.8,7,5.4,7.6c0.5,0.1,1,0.1,1.5,0
	C101.4,108.3,101.2,108.3,101,108.3z"/>
<path class="st3" d="M104.8,133.8c-1.1-0.3-4.9-1.4-5.8-2.1c-0.7-0.4-1.3-1-1.7-1.3l3.4-21c-0.2,0-0.5,0-0.7-0.1
	c-0.2,0-0.5-0.1-0.7-0.1l-3.4,20.9c-0.5,0.3-1.3,0.6-2.1,0.8c-1.1,0.3-5.1,0.3-6.2,0.3c-0.2,0-0.3,0.1-0.4,0.3
	c0,0.2,0.1,0.4,0.3,0.4l8.5,1.3l0.1,0l8.5,1.3c0.2,0,0.4-0.1,0.4-0.3C105.1,134.1,105,133.9,104.8,133.8z"/>
<path class="st2" d="M102.9,121.5c0.3-0.6-0.1-1.4-0.9-1.5c-0.4-0.1-1-0.1-1.8,0c-2.2,0.2-6.8,1.6-6.6,2.3c0.2,0.8,4.7,0.8,6.6,0.4
	C101.6,122.3,102.6,122.2,102.9,121.5z"/>
<path class="st2" d="M104.9,115.3c0.4-0.7-0.2-1.6-1-1.7c-0.5-0.1-1.1-0.1-2.1,0c-2.4,0.3-7.6,1.7-7.4,2.6c0.3,0.9,5.3,0.9,7.4,0.4
	C103.4,116.3,104.5,116.1,104.9,115.3z"/>
<path class="st2" d="M104.9,118.5c0.4-0.7-0.2-1.6-1-1.7c-0.5-0.1-1.1-0.1-2.1,0c-2.4,0.3-7.6,1.7-7.4,2.6c0.3,0.9,5.3,0.9,7.4,0.4
	C103.4,119.5,104.6,119.3,104.9,118.5z"/>
<path class="st4" d="M83.3,115.9c0,0,1.6-1.8,3.4-2.7c1.8-0.8,4.5-1.7,7.1-3.3c2.6-1.6,3.5-3.8,3.7-0.3c0.1,3.5-2.5,5.6-5.4,6.8
	c-2.9,1.2-2.6,2.9-5,6c-2.4,3.1-7.4,5.9-9.5,4.6"/>
<path class="st3" d="M83.3,115.9c0,0,1.6-1.8,3.4-2.7c1.8-0.8,4.5-1.7,7.1-3.3c2.6-1.6,3.5-3.8,3.7-0.3c0.1,3.5-2.5,5.6-5.4,6.8
	c-2.9,1.2-2.6,2.9-5,6c-2.4,3.1-7.4,5.9-9.5,4.6"/>
<path class="st0" d="M119.5,86c0.8,0,1.4-0.6,1.4-1.4c0-0.8-0.6-1.4-1.4-1.4c-0.8,0-1.4,0.6-1.4,1.4C118.1,85.4,118.7,86,119.5,86z"
	/>
<path class="st0" d="M125.1,76c0,0.6-0.5,1-1.1,1c-0.6,0-1.1-0.5-1.1-1s0.5-1,1.1-1C124.6,75,125.1,75.4,125.1,76z"/>
<path class="st0" d="M128.7,72.9c0,0.4-0.3,0.7-0.7,0.7c-0.4,0-0.7-0.3-0.7-0.7s0.3-0.7,0.7-0.7C128.4,72.2,128.7,72.5,128.7,72.9z"
	/>
<path class="st0" d="M122.8,70.8c0.2,0,0.4-0.2,0.4-0.4c0-0.2-0.2-0.4-0.4-0.4c-0.2,0-0.4,0.2-0.4,0.4
	C122.4,70.6,122.6,70.8,122.8,70.8z"/>
<path class="st0" d="M104.7,73.7c0,0.2-0.2,0.4-0.5,0.4c-0.2,0-0.5-0.2-0.5-0.4c0-0.2,0.2-0.4,0.5-0.4
	C104.5,73.2,104.7,73.4,104.7,73.7z"/>
<path class="st0" d="M100.4,70.4c0-0.3-0.2-0.5-0.5-0.5s-0.5,0.2-0.5,0.5s0.2,0.5,0.5,0.5S100.4,70.7,100.4,70.4z"/>
<path class="st0" d="M104.4,68c0.4,0,0.7-0.3,0.7-0.7c0-0.4-0.3-0.7-0.7-0.7c-0.4,0-0.7,0.3-0.7,0.7C103.7,67.7,104,68,104.4,68z"/>
<path class="st0" d="M124.1,87c0,0.3-0.3,0.6-0.6,0.6c-0.3,0-0.6-0.3-0.6-0.6c0-0.3,0.3-0.6,0.6-0.6C123.8,86.4,124.1,86.7,124.1,87
	z"/>
<path class="st0" d="M117.5,77.3c0,0.3-0.3,0.6-0.6,0.6c-0.3,0-0.6-0.3-0.6-0.6s0.3-0.6,0.6-0.6C117.2,76.7,117.5,77,117.5,77.3z"/>
<path class="st3" d="M125.5,123.2c-4.4,0-7.9-3.4-7.9-7.6l2.4-18.8l11.1,0l2.4,18.8C133.4,119.8,129.9,123.2,125.5,123.2z"/>
<path class="st0" d="M124.6,106.2c-2.2,2.7-4.4,3.8-5.7,4.3l-0.6,4.9c0,3.9,3.3,7.1,7.3,7.1c4,0,7.3-3.2,7.3-7.1l-1.8-14.6
	C129.3,101.8,126.8,103.5,124.6,106.2z"/>
<path class="st4" d="M124.3,115.2c0,0.5-0.4,0.9-0.9,0.9s-0.9-0.4-0.9-0.9s0.4-0.9,0.9-0.9S124.3,114.7,124.3,115.2z"/>
<path class="st4" d="M125.2,118.8c0,0.2-0.2,0.4-0.4,0.4c-0.2,0-0.4-0.2-0.4-0.4c0-0.2,0.2-0.4,0.4-0.4
	C125,118.4,125.2,118.5,125.2,118.8z"/>
<path class="st4" d="M128.3,114.1c0,0.6-0.5,1-1,1c-0.6,0-1-0.5-1-1s0.5-1,1-1C127.8,113.1,128.3,113.6,128.3,114.1z"/>
<path class="st4" d="M129.9,110.2c0,0.4-0.3,0.7-0.7,0.7c-0.4,0-0.7-0.3-0.7-0.7c0-0.4,0.3-0.7,0.7-0.7
	C129.6,109.5,129.9,109.8,129.9,110.2z"/>
<path class="st4" d="M124.9,111c0,0.3-0.2,0.5-0.5,0.5s-0.5-0.2-0.5-0.5c0-0.3,0.2-0.5,0.5-0.5C124.7,110.5,124.9,110.8,124.9,111z"
	/>
<path class="st4" d="M127,117.2c0,0.2-0.2,0.4-0.4,0.4s-0.4-0.2-0.4-0.4c0-0.2,0.2-0.4,0.4-0.4S127,117,127,117.2z"/>
<path class="st4" d="M129,107c0,0.6-0.5,1.1-1.1,1.1c-0.6,0-1.1-0.5-1.1-1.1c0-0.6,0.5-1.1,1.1-1.1C128.5,105.9,129,106.4,129,107z"
	/>
<path class="st1" d="M126.6,122c-3.6,0-6.6-3-6.6-6.7l1.9-16.3h-1l-2,16.5c0,3.7,2.9,6.7,6.6,6.7c0.5,0,1-0.1,1.5-0.2
	C126.9,122,126.7,122,126.6,122z"/>
<path class="st3" d="M134.3,146.7c-1.1-0.2-5-0.7-6.1-1.2c-0.7-0.3-1.4-0.8-1.9-1.1l0.1-21.3c-0.2,0-0.5,0-0.7,0c-0.2,0-0.5,0-0.7,0
	l-0.1,21.2c-0.4,0.3-1.2,0.8-1.9,1.1c-1.1,0.5-5,1-6.1,1.2c-0.2,0-0.3,0.2-0.3,0.4c0,0.2,0.2,0.4,0.4,0.4l8.6,0h0.1l8.6,0
	c0.2,0,0.4-0.2,0.4-0.4C134.7,146.9,134.5,146.7,134.3,146.7z"/>
<path class="st6" d="M119,112.9c0,0-11.5,4.7-13.3,6.5s-9.9,25.7-11,27.6c-1.2,1.9-17,32.3-17,32.3l19,5.9c0,0,7.2-32.1,8.3-33.1
	s7.1-5.8,9.8-8.3c2.8-2.5,8.2-8.1,9.1-8.8c0.9-0.7,4.6-2.7,4.6-2.7s-0.8,2.1,0.1,2.4c0.9,0.3,2-0.2,2.5-1.5c0.3-0.7,0.5-2,0.7-3
	c0.1-0.8-0.1-1.6-0.7-2.2c0,0,0.2-0.8-0.1-1.8s-1-1.3-1.1-1.9c-0.1-0.6,0-2.3-0.7-2.9c-0.6-0.6-0.9-0.6-2.2-1.1
	c-1.2-0.4-7.5-2.3-7.5-2.3s4-2.1,5.5-1.4c1.5,0.6,4.5,3.4,6.3,3.2c1.8-0.2,3.2-0.6,2.5-1.3c-0.7-0.7-2.9-2-5.9-4.6
	C125,111.4,119,112.9,119,112.9z"/>
<path class="st7" d="M125.1,128.9l-1.2,0.2"/>
<path class="st7" d="M131,128.1l-5,0.7"/>
<path class="st7" d="M129.8,124.5l-7.6-0.4"/>
<path class="st7" d="M128.4,132.3c0,0,1.4-0.1,2.4-1"/>
<path class="st8" d="M99.8,190.2c0,0,1.9-1.9,0.8-5.2c-1.1-3.3-6.1-6.4-12.4-8.1c-6.3-1.7-14.7,0.3-16.1,1.5
	c-1.3,1.2-0.1,3.9-0.1,3.9s-2.4,1.1-2.7,3.8c-0.3,2.7-0.6,3.3-0.9,4.8c-0.2,1.5,0.3,2.6,2.8,1.9c2.4-0.7,4-3.7,11.4-0.1
	c7.4,3.6,11.3,9.3,13.6,7.8C98.6,198.9,101.1,195.8,99.8,190.2z"/>
<path class="st0" d="M90.9,228c0,0,0.7-7.2,0.5-8.8c-0.2-1.6,0.3-7.4,0.3-8c-0.1-0.6,0.9-1.1,2.4-2.5c1.5-1.4-0.1-4.5-0.4-6.5
	c-0.3-2-0.7-3.8-3.7-6.3c-3.1-2.5-8.4-6.3-13.1-5.4c-4.7,1-5.6,2.3-5.6,2.3s-8.7,6.1-8.9,8c-0.2,1.9,1,4.8,1,4.8L52,217.7"/>
<path class="st7" d="M90.9,228c0,0,0.7-7.2,0.5-8.8c-0.2-1.6,0.3-7.4,0.3-8c-0.1-0.6,0.9-1.1,2.4-2.5c1.5-1.4-0.1-4.5-0.4-6.5
	c-0.3-2-0.7-3.8-3.7-6.3c-3.1-2.5-8.4-6.3-13.1-5.4c-4.7,1-5.6,2.3-5.6,2.3s-8.7,6.1-8.9,8c-0.2,1.9,1,4.8,1,4.8L52,217.7"/>
<path class="st7" d="M69.8,198.6c-0.4,0.3-0.7,0.6-1.1,1"/>
<path class="st7" d="M78.3,194.4c0,0-3.7,0.8-7.3,3.3"/>
<path class="st7" d="M83,195c0,0,3.4,1.3,3.9,6.7"/>
<path class="st7" d="M84.6,204.2c0,0.5-0.1,1-0.1,1.5"/>
<path class="st7" d="M83.4,197.5c0,0,1.3,1,1.2,5.4"/>
<path class="st8" d="M86.3,176.6l-8,17.7c-0.5,1,0,2.3,1,2.8c1.1,0.5,2.4,0.1,3-1l9.1-18.2C91.4,178,87.9,176.3,86.3,176.6z"/>
<path class="st6" d="M81,195c0.1,0.5-0.3,1-0.8,1c-0.5,0.1-1-0.3-1-0.8c-0.1-0.5,0.3-1,0.8-1C80.4,194.2,80.9,194.5,81,195z"/>
<path class="st0" d="M27.5,36.3c-1.2-0.3-3-0.5-3.6,0.8c-0.4,0.8-0.3,2.4-0.2,3.2c0.2,1.4,4.9,7.6,5.9,5.5c0.4-0.7,0-2.5-0.4-3.2
	c-0.7-1.4-2.7-2.8-4.4-2.6c-2.8,0.4-2.4,5.5-1.4,7.3c1.1,2.1,3.2,3.6,5,5.1c1.4,1.1,3.5,2.5,3.8,4.3c0-0.2,0-0.4,0-0.5
	c0,0.1,0,0.2,0,0.2c0-0.5,0-1.1,0-1.6c-0.3,1.8-2.5,2.2-3.9,2.8c-1.2,0.5-1,1.4-1,2.6c0,2.2,1.3,4.1,2.1,6.1
	c0.4,1.1,0.6,2.5,1.1,3.4c0,0.1,0,0.2,0.1,0.4c0.1-1.1,0.1-1.3-0.1-0.7c-0.2,0.1-0.3,0.6-0.5,0.8c-0.4,0.4,0.4,1.8,0,2.2
	c0.9-1,0.7-2.8,0.6-4.1c-0.3-3.4-2.9-6.2-3.3-9.5c0,0.7,0,1.4,0,2.1c0-1.1,1-1.2,1.9-1.5c1-0.3,2.3-0.9,2.8-1.9
	c0.4-0.9,0.4-2.6,0-3.6c-0.8-2-3.4-3.5-4.9-4.8c-1.9-1.6-4.1-3.5-4.3-6c0,0.6,0,1.2,0,1.9c0-4.8,6.2-2.7,6.7,0.8c0-0.7,0-1.4,0-2.1
	c-0.1,1.2-2.7-0.9-3-1.2c-1.3-1.1-2.7-2.7-2.9-4.4c0,0.7,0,1.4,0,2c0-2.1,2.1-2.2,3.8-1.7C27.3,38.4,27.7,36.3,27.5,36.3z"/>
<path class="st0" d="M193.5,175.6c-1.9-2.3-5.1-2.8-5.9,0.6c-0.5,2-0.3,4.5,0,6.5c0.1,0.7,1.4,6.4,2.7,4.2c0.9-1.6,0.3-5.3-0.4-6.7
	c-0.6-1.3-1.9-2.8-3.6-2.6c-1.8,0.2-3.1,2.1-3.6,3.7c-0.6,1.9-0.4,4.4-0.2,6.4c0.4,3.3,1.6,6.6,2.4,9.9c0.2,0.6-0.2,1,0.1,0.2
	c-0.1,0.2,0,0.5-0.2,0.6c-0.3,0.4-0.4,0.7-0.9,1c-1.2,0.7-2.9,0.5-4.1,0.2c-0.9-0.2-2.2-1-3.1-0.4c-1.4,0.9-1.5,4.1-1.8,5.5
	c-0.5,2.6-1,8.3-4.4,9.1c-0.2,0,0.2,2.1,0,2.2c2.3-0.6,2.9-3.3,3.5-5.2c0.6-2,0.9-4.1,1.3-6.2c0.2-1,0.5-2.8,1.5-3.3
	c0.6-0.3,1.4,0,2,0.2c1.2,0.4,2.3,0.6,3.6,0.5c2.2-0.3,2.6-1.6,2.6-3.5c0-2.1-0.3-4-0.9-6c-0.4-1.4-0.8-2.8-1.1-4.2
	c-0.2-0.8-0.4-1.6-0.5-2.3c0-0.3-0.1-0.6-0.1-0.9c-0.2-2.1-0.2,0.3,0-0.8c0.6-2.5,3.3-6,6.1-3.7c1,0.8,1.9,2.4,2,3.7
	c0-0.6-0.1,0.7-0.4,0.9c-0.3,0.2-0.3,0.2-0.6,0.1c-0.8-0.3-1.3-2.3-1.5-3c-0.2-0.7-0.3-1.4-0.4-2.2c-0.1-0.4-0.1-0.9-0.1-1.3
	c0,1.1,0.1-0.1,0.2-0.4c0.5-1.5,1.4-3,3.3-2.6c1.1,0.2,2,1.1,2.7,1.9C193.2,177.4,193.9,176.1,193.5,175.6z"/>
<path class="st0" d="M214.5,29.9c-2.9,2.3-5.2,5.1-5.1,8.9c0.1,2.2,1.4,3.4,3.6,3.9c1.2,0.3,3.8,0.6,4.2-0.8c1.2-3.6-4-4-6.4-3.5
	c-3.9,0.9-5.3,5.9-3.7,9.2c1.2,2.4,4.3,3.5,6.4,5c1.3,0.9,4.1,2.8,4.4,4.5c0-0.4,0-0.7,0-1.1c0,0.1,0,0.1,0,0.2c0-0.4,0-0.7,0-1.1
	c-0.4,2.4-5.1,3.9-7,4.9c-1.9,1.1-5.2,2.7-5.5,5.2c-0.2,1.1-0.2,2.6,0.8,3.3c1.9,1.2,6.5,0,7.4,2.5c0-0.3,0-0.5,0-0.8
	c0,0.1,0,0.2,0,0.2c0-0.5,0-0.9,0-1.4c-0.4,1.3-2.3,1.7-3.4,2.2c-1.2,0.6-2.9,1.5-3.2,2.9c-0.3,1-0.2,2.7,0.6,3.4
	c-0.4-0.3,0.4-1.8,0-2.2c-0.4-0.3-0.5-0.5-0.6-0.9c0,0.7,0,1.4,0,2.1c0.1-2.8,4.5-3.1,6.1-4.6c0.7-0.7,0.7-2,0.5-2.9
	c-0.7-3.4-8.1-0.7-8.2-4c0,0.7,0,1.4,0,2.1c0.2-1.4,1.5-2.4,2.6-3.2c2.2-1.6,4.7-2.7,7.1-4.1c2.1-1.3,3.2-2.4,2.9-4.9
	c-0.3-1.8-3-3.7-4.4-4.7c-2.6-1.8-6.5-3.1-6.8-6.7c0,0.5,0,0.9,0,1.4c0-0.2,0-0.3,0-0.5c0,0.3,0,0.5,0,0.8c0.3-3,2.3-4.9,5.3-5.1
	c1-0.1,5.1,0.1,5.2,1.6c0-0.7,0-1.4,0-2.1c-0.4,1.2-2.9,0.9-3.8,0.7c-2-0.3-3.9-1.4-4-3.6c0,0.7,0,1.4,0,2.1
	c0.2-2.9,2.9-5.4,5.1-7.1C214.9,31.8,214.1,30.2,214.5,29.9z"/>
<path class="st0" d="M201.8,98.8c-1.8,1.1-3.9,2.5-4.8,4.4c-0.5,1-0.7,3.3,0.1,4.3c1.3,1.5,4.8,1.7,6.6,2.3c2.7,0.8,5.9,2.4,6,5.5
	c0-0.7,0-1.4,0-2.1c-0.2,2.3-3,3-5,3.4c-1.6,0.3-5.1,0.3-6.2,1.6c-0.6,0.7-0.6,2.8-0.1,3.5c1,1.4,5.9,1.6,5.9,3.4c0-0.7,0-1.4,0-2.1
	c-0.4,1.2-2.4,1.6-3.4,2.1c-1.2,0.7-1.4,1.3-1.4,2.6c0,1.3,0.1,2.1,1.3,3c1.2,0.9,3.8,1.3,4.2,2.9c0-0.7,0-1.4,0-2
	c0,1.6-1.6,3.7-2.6,5c-0.4,0.5,0.4,1.7,0,2.2c1.6-2,3-4.4,2.6-7c-0.4-2.7-5-2.2-5.5-5.1c0,0.7,0,1.4,0,2.1c0.1-1.8,3-2,4.1-2.9
	c0.8-0.7,0.8-1.6,0.6-2.6c-0.4-2.7-5.9-1.7-6.2-4.4c0,0.7,0,1.5,0,2.2c0.3-1.9,5.6-2,7.2-2.3c2.8-0.7,4.4-1.7,4.4-4.5
	c0-3.3-2.1-5.1-5.2-6.2c-1.9-0.7-7.5-1.1-7.8-3.6c0,0.7,0,1.4,0,2.1c0.2-2.4,3.2-4.3,5.1-5.5C202.1,100.8,201.5,99,201.8,98.8z"/>
<path class="st0" d="M45.2,145.9c-1.8,1.1-3.9,2.5-4.8,4.4c-0.5,1-0.7,3.3,0.1,4.3c1.3,1.5,4.8,1.7,6.6,2.3c2.7,0.8,5.9,2.4,6,5.5
	c0-0.7,0-1.4,0-2.1c-0.2,2.3-3,3-5,3.4c-1.6,0.3-5.1,0.3-6.2,1.6c-0.6,0.7-0.6,2.8-0.1,3.5c1,1.4,5.9,1.6,5.9,3.4c0-0.7,0-1.4,0-2.1
	c-0.4,1.2-2.4,1.6-3.4,2.1c-1.2,0.7-1.4,1.3-1.4,2.6c0,1.3,0.1,2.1,1.3,3c1.2,0.9,3.8,1.3,4.2,2.9c0-0.7,0-1.4,0-2
	c0,1.6-1.6,3.7-2.6,5c-0.4,0.5,0.4,1.7,0,2.2c1.6-2,3-4.4,2.6-7c-0.4-2.7-5-2.2-5.5-5.1c0,0.7,0,1.4,0,2.1c0.1-1.8,3-2,4.1-2.9
	c0.8-0.7,0.8-1.6,0.6-2.6c-0.4-2.7-5.9-1.7-6.2-4.4c0,0.7,0,1.5,0,2.2c0.3-1.9,5.6-2,7.2-2.3c2.8-0.7,4.4-1.7,4.4-4.5
	c0-3.3-2.1-5.1-5.2-6.2c-1.9-0.7-7.5-1.1-7.8-3.6c0,0.7,0,1.4,0,2.1c0.2-2.4,3.2-4.3,5.1-5.5C45.6,147.9,44.9,146.1,45.2,145.9z"/>
<path class="st0" d="M155.2,142c1.5-1.3,4.5-3.1,5.1-0.1c0-0.2,0-0.4,0-0.5c0,0.1,0,0.3,0,0.4c0-0.5,0-1.1,0-1.6
	c-0.2,1.3-1.1,2.3-2.2,3.1c-0.3,0.2-1.7,1.3-2.1,0.9c0,0.7,0,1.4,0,2.1c0.1-1.3,3.4-2.6,4.4-1.6c1.6,1.8-2.8,5.5-3.8,6.7
	c-1.5,1.9-2.4,3.9-2.4,6.3c0,1.6,0.2,3.2,2.4,2.5c0.3-0.1-0.2-2.1,0-2.2c-1.4,0.5-2.3,0-2.3-1.5c0,0.7,0,1.4,0,2.1
	c0.4-3.4,3.1-5.7,5.1-8.2c1.4-1.7,1.6-3.4,1.6-5.4c0-1.5-0.2-3.5-2.3-2.9c-1.3,0.4-2.5,1.3-2.6,2.6c-0.1,1.4-0.1,1.9,1.4,1.1
	c1.6-0.8,2.8-2.1,3-3.9c0.1-1.1,0.3-3.3-1-3.9c-1.4-0.6-3.2,0.9-4.1,1.7C154.8,140.2,155.5,141.7,155.2,142z"/>
<path class="st0" d="M56.2,83.1c-1.5,0.2-3.2,0.7-4.3,1.8c-1.3,1.2-1.2,2.8-1.1,4.4c0.1,2.1,1.8,2.7,3.7,3.1
	c1.4,0.3,4.5,0.3,4.7,2.1c0-0.7,0-1.4,0-2.1c-0.2,2.3-3.5,3.2-5.3,3.9c-1.4,0.5-4.2,1-4.6,2.7c-0.5,1.8,0.3,3.1,2,3.8
	c1.5,0.6,3.3,0.7,4.9,0.8c0.4,0,2.5-0.2,2.6,0.3c0-0.7,0-1.5,0-2.2c-0.4,0.8-1.7,1.5-2.4,2c-1.4,0.9-2.8,1.8-4.1,2.8
	c-1.3,1-1.7,1.5-1.5,3c0,0.4-0.1,0.7,0.2,0.9c0.3,0.3,1.7,0.5,2.2,0.6c0.8,0.3,4.3,1.3,4.3,2.4c0-0.6,0-1.2,0-1.9
	c-0.2,0.5-0.7,0.7-1.2,0.9c-0.3,0.1,0.3,2.1,0,2.2c1.4-0.6,1.7-2.6,0.9-3.8c-0.7-0.9-2.4-1.5-3.4-1.8c-0.5-0.2-2.8-0.5-2.9-1.1
	c0,0.7,0,1.5,0,2.2c0.3-1,1.7-1.7,2.5-2.2c1.5-1,3-1.9,4.4-3c0.9-0.7,1.7-1.8,1.1-3.1c-0.5-1-3-0.5-4.1-0.5
	c-1.5-0.1-5.2-0.5-5.4-2.4c0,0.7,0,1.5,0,2.2c0.2-1.6,4.1-2.4,5.4-2.9c1.9-0.8,4.4-1.6,4.6-3.8c0.2-2-0.1-3-2.2-3.6
	c-2.2-0.6-6.1-0.5-6.2-3.5c0,0.7,0,1.4,0,2.1c0.3-2.6,3-3.8,5.4-4.1C56.3,85.3,56.1,83.1,56.2,83.1z"/>
<path class="st0" d="M118.7,184.6c-1.5,0.2-3.2,0.7-4.3,1.8c-1.3,1.2-1.2,2.8-1.1,4.4c0.1,2.1,1.8,2.7,3.7,3.1
	c1.4,0.3,4.5,0.3,4.7,2.1c0-0.7,0-1.4,0-2.1c-0.2,2.3-3.5,3.2-5.3,3.9c-1.4,0.5-4.2,1-4.6,2.7c-0.5,1.8,0.3,3.1,2,3.8
	c1.5,0.6,3.3,0.7,4.9,0.8c0.4,0,2.5-0.2,2.6,0.3c0-0.7,0-1.5,0-2.2c-0.4,0.8-1.7,1.5-2.4,2c-1.4,0.9-2.8,1.8-4.1,2.8
	c-1.3,1-1.7,1.5-1.5,3c0,0.4-0.1,0.7,0.2,0.9c0.3,0.3,1.7,0.5,2.2,0.6c0.8,0.3,4.3,1.3,4.3,2.4c0-0.6,0-1.2,0-1.9
	c-0.2,0.5-0.7,0.7-1.2,0.9c-0.3,0.1,0.3,2.1,0,2.2c1.4-0.6,1.7-2.6,0.9-3.8c-0.7-0.9-2.4-1.5-3.4-1.8c-0.5-0.2-2.8-0.5-2.9-1.1
	c0,0.7,0,1.5,0,2.2c0.3-1,1.7-1.7,2.5-2.2c1.5-1,3-1.9,4.4-3c0.9-0.7,1.7-1.8,1.1-3.1c-0.5-1-3-0.5-4.1-0.5
	c-1.5-0.1-5.2-0.5-5.4-2.4c0,0.7,0,1.5,0,2.2c0.2-1.6,4.1-2.4,5.4-2.9c1.9-0.8,4.4-1.6,4.6-3.8c0.2-2-0.1-3-2.2-3.6
	c-2.2-0.6-6.1-0.5-6.2-3.5c0,0.7,0,1.4,0,2.1c0.3-2.6,3-3.8,5.4-4.1C118.8,186.8,118.6,184.6,118.7,184.6z"/>
<path class="st0" d="M113.3,25c-1.5,0.2-3.2,0.7-4.3,1.8c-1.3,1.2-1.2,2.8-1.1,4.4c0.1,2.1,1.8,2.7,3.7,3.1c1.4,0.3,4.5,0.3,4.7,2.1
	c0-0.7,0-1.4,0-2.1c-0.2,2.3-3.5,3.2-5.3,3.9c-1.4,0.5-4.2,1-4.6,2.7c-0.5,1.8,0.3,3.1,2,3.8c1.5,0.6,3.3,0.7,4.9,0.8
	c0.4,0,2.5-0.2,2.6,0.3c0-0.7,0-1.5,0-2.2c-0.4,0.8-1.7,1.5-2.4,2c-1.4,0.9-2.8,1.8-4.1,2.8c-1.3,1-1.7,1.5-1.5,3
	c0,0.4-0.1,0.7,0.2,0.9c0.3,0.3,1.7,0.5,2.2,0.6c0.8,0.3,4.3,1.3,4.3,2.4c0-0.6,0-1.2,0-1.9c-0.2,0.5-0.7,0.7-1.2,0.9
	c-0.3,0.1,0.3,2.1,0,2.2c1.4-0.6,1.7-2.6,0.9-3.8c-0.7-0.9-2.4-1.5-3.4-1.8c-0.5-0.2-2.8-0.5-2.9-1.1c0,0.7,0,1.5,0,2.2
	c0.3-1,1.7-1.7,2.5-2.2c1.5-1,3-1.9,4.4-3c0.9-0.7,1.7-1.8,1.1-3.1c-0.5-1-3-0.5-4.1-0.5c-1.5-0.1-5.2-0.5-5.4-2.4
	c0,0.7,0,1.5,0,2.2c0.2-1.6,4.1-2.4,5.4-2.9c1.9-0.8,4.4-1.6,4.6-3.8c0.2-2-0.1-3-2.2-3.6c-2.2-0.6-6.1-0.5-6.2-3.5
	c0,0.7,0,1.4,0,2.1c0.3-2.6,3-3.8,5.4-4.1C113.4,27.2,113.2,25,113.3,25z"/>
</svg>
