<?xml version="1.0" encoding="utf-8"?>
<!-- Generator: Adobe Illustrator 25.3.1, SVG Export Plug-In . SVG Version: 6.00 Build 0)  -->
<svg version="1.1" id="Layer_1" xmlns="http://www.w3.org/2000/svg" xmlns:xlink="http://www.w3.org/1999/xlink" x="0px" y="0px"
	 viewBox="0 0 250 250" style="enable-background:new 0 0 250 250;" xml:space="preserve">
<style type="text/css">
	.st0{display:none;}
	.st1{display:inline;}
	.st2{fill:#FFFFFF;}
	.st3{fill:#93D7ED;}
	.st4{fill:url(#SVGID_1_);}
	.st5{fill:#37A7DF;}
	.st6{opacity:0.5;fill:#FFFFFF;enable-background:new    ;}
	.st7{fill:url(#SVGID_2_);}
	.st8{fill:url(#SVGID_3_);}
	.st9{fill:url(#SVGID_4_);}
	.st10{clip-path:url(#SVGID_6_);fill:url(#SVGID_7_);}
	.st11{clip-path:url(#SVGID_9_);fill:url(#SVGID_10_);}
	.st12{opacity:0.8;}
	.st13{fill:url(#SVGID_11_);}
</style>
<g id="Background" class="st0">
	<g class="st1">
		<g>
			<rect x="-1573.1" y="-1116.5" class="st2" width="3710" height="3710"/>
		</g>
	</g>
</g>
<g id="Illustration">
	<g>
		<path class="st3" d="M201.3,199.9c-4.1,4.4-8,7.2-11.1,9.5c-36.3,26.4-79.2,18.7-88.3,16.8c-13.5-2.8-39.5-8.1-58.3-30.5
			c-28.5-33.9-24-87.4-2-122.6c4-6.5,25.4-42.3,68.7-48c26.2-3.5,56.8,3.5,79,22.3C235.9,86.8,232.6,166.6,201.3,199.9z"/>
		<g>
			<g>
				
					<linearGradient id="SVGID_1_" gradientUnits="userSpaceOnUse" x1="28.3428" y1="152.0789" x2="90.071" y2="152.0789" gradientTransform="matrix(1 0 0 -1 0 249.31)">
					<stop  offset="0" style="stop-color:#FEBBBA"/>
					<stop  offset="1" style="stop-color:#FF928E"/>
				</linearGradient>
				<path class="st4" d="M77.1,158.4c0,0,0.6-26.5-11.4-33.6c-12.1-7.1-35-11.5-35.9-49.7c-0.5-22.3-1-32.1-1.4-36.3
					c-0.1-1.7,1.3-3,2.9-2.7c11.4,2.2,48.6,11.2,56.3,36.8C96.8,103.4,77.1,158.4,77.1,158.4z"/>
				<path class="st2" d="M40.1,46.7C52.7,58,67.2,78.1,74.9,98.2c1,3.3,3.9,10.3,5.2,22.8c1.1,10.4,0.6,21.4-0.8,28.7
					c-0.1,0.5-0.5,0.8-1,0.7c-0.8-0.1-0.7-1-0.7-1c1.6-12.5,0.9-27.9-2.7-41.9c-4.6-17.2-14.7-33.8-25.3-47.9l-1.1-1.4
					c-8.2-10.6-9.9-10.7-9.1-11.4C39.7,46.5,39.9,46.5,40.1,46.7z"/>
			</g>
			<g>
				<path class="st5" d="M96.5,209.4c1.6,0.8-15.5-21-20.8-55.1c-2.5-16.1-2.6-36.3-11.6-44.1c-7.5-6.5-33.2-2.4-41.6-0.8
					c-1,0.2-1.4,1.5-0.6,2.2c4,3.4,12.6,11.5,14.9,19.6c3,10.7,13,17.6,22,19.4c9,1.8,14,3.6,18.4,18.2
					C81.6,183.5,91.8,207.1,96.5,209.4z"/>
				<path class="st2" d="M34.3,113.9c10.7,0.5,22.2,5.4,28,14.7l0.6,0.9c1.3,2.1,8.5,16.8,12.5,29.1c0,0.2,0,0.3-0.2,0.4
					c-0.3,0.1-0.4-0.2-0.4-0.2c-2.8-6.9-6.8-15.7-10-22.2c-3.4-7.2-5.8-12-13.6-16.6c-8.7-5-17-5.5-17-5.5c-0.1,0-0.2-0.1-0.2-0.3
					C34,114,34.1,113.9,34.3,113.9z"/>
			</g>
			<g>
				<path class="st3" d="M89.1,212.3c1,0.5-5.5-10.7-5.9-20.6c-0.5-9.9-2.7-26.7-11.1-36.8c-8.4-10.1-17.6-11-29.2-1.8
					c-9.7,7.6-15.7,11.5-19.2,12.2c-0.9,0.2-1.3,1.2-0.9,2c2.3,4.2,8.7,13.9,19.4,13.3c13.7-0.9,30.4-9.9,35.4-2.4
					c5.1,7.5,4.4,11.8,4.6,15.3C82.4,197.1,82.7,208.9,89.1,212.3z"/>
				<path class="st6" d="M46.8,165.2c4.2-4.1,11.1-8.1,17-7.3c7.8,1.3,13,6.5,15.8,14.4c1.1,3.3,1.6,5.1,2.2,9.2
					c0.1,0.3-0.4,0.4-0.5,0.1c-0.5-1.9-0.9-3.9-1.7-6c-4.1-13.4-12.9-15.2-13.2-15.5c-0.7,0.1-4.7-3-14.2,2.2
					c-1.8,1-3.5,2.1-5.1,3.3l0,0c-0.1,0.1-0.3,0.1-0.4-0.1C46.7,165.5,46.7,165.3,46.8,165.2z"/>
			</g>
		</g>
		<g>
			<g>
				
					<linearGradient id="SVGID_2_" gradientUnits="userSpaceOnUse" x1="73.0481" y1="122.911" x2="190.6065" y2="122.911" gradientTransform="matrix(1 0 0 -1 0 249.31)">
					<stop  offset="0" style="stop-color:#FEBBBA"/>
					<stop  offset="1" style="stop-color:#FF928E"/>
				</linearGradient>
				<path class="st7" d="M81.1,38.9c-4.5,0.4-8,4.3-8,8.9C73,76,72.9,173.4,74.7,207.9c0.2,3.7,3.1,6.5,6.8,6.6
					c17.9,0.2,69.2,0.6,98.4-1.3c6.1-0.4,10.8-5.5,10.8-11.7c0-29.6-0.5-113-4.5-151.1c-0.5-4.6-4.1-8.1-8.6-8.5
					C158,40.3,106.3,36.7,81.1,38.9z"/>
				
					<linearGradient id="SVGID_3_" gradientUnits="userSpaceOnUse" x1="79.6499" y1="126.9867" x2="182.5336" y2="126.9867" gradientTransform="matrix(1 0 0 -1 0 249.31)">
					<stop  offset="0" style="stop-color:#FEBBBA"/>
					<stop  offset="1" style="stop-color:#FF928E"/>
				</linearGradient>
				<path class="st8" d="M80.3,55.2c-0.4,24.2-1.3,104.5,0.4,134.2c0.3,4.3,3.6,7.8,7.7,7.9c16.9,0.6,60.2,1.8,84.9-1
					c4.4-0.5,7.8-4.4,8-9.1c0.6-24.6,2.3-99.5,0.6-128.8c-0.3-4.7-3.8-8.4-8.2-8.7c-18.3-1.2-65.3-4.1-86.3-2.4
					C83.4,47.6,80.3,51,80.3,55.2z"/>
				
					<linearGradient id="SVGID_4_" gradientUnits="userSpaceOnUse" x1="121.0697" y1="206.0217" x2="140.06" y2="206.0217" gradientTransform="matrix(1 0 0 -1 0 249.31)">
					<stop  offset="0" style="stop-color:#FEBBBA"/>
					<stop  offset="1" style="stop-color:#FF928E"/>
				</linearGradient>
				<path class="st9" d="M121.1,43.1c0,0.7,0.5,1.2,1.2,1.2c3.3,0.1,12.4,0.4,16.5,0.5c0.8,0,1.4-0.7,1.3-1.5c0,0-0.1-1.1-1.2-1.1
					c-2.8-0.2-11.1-0.7-16.6-0.4C121.1,41.9,121,43.2,121.1,43.1z"/>
			</g>
		</g>
		<g>
			<ellipse class="st2" cx="111.4" cy="81.3" rx="24.4" ry="24.7"/>
			<g>
				<g>
					<defs>
						<ellipse id="SVGID_5_" cx="111.4" cy="81.3" rx="21.8" ry="22"/>
					</defs>
					<clipPath id="SVGID_6_">
						<use xlink:href="#SVGID_5_"  style="overflow:visible;"/>
					</clipPath>
					
						<linearGradient id="SVGID_7_" gradientUnits="userSpaceOnUse" x1="145.6685" y1="88.6329" x2="165.7032" y2="38.8378" gradientTransform="matrix(1 0 0 -1 0 249.31)">
						<stop  offset="0" style="stop-color:#FF928E"/>
						<stop  offset="1" style="stop-color:#FE7062"/>
					</linearGradient>
					<ellipse class="st10" cx="111.5" cy="75.7" rx="9.5" ry="9.7"/>
				</g>
				<g>
					<defs>
						<ellipse id="SVGID_8_" cx="111.4" cy="81.3" rx="21.8" ry="22"/>
					</defs>
					<clipPath id="SVGID_9_">
						<use xlink:href="#SVGID_8_"  style="overflow:visible;"/>
					</clipPath>
					
						<linearGradient id="SVGID_10_" gradientUnits="userSpaceOnUse" x1="91.6268" y1="184.2364" x2="144.2096" y2="89.8785" gradientTransform="matrix(1 0 0 -1 0 249.31)">
						<stop  offset="0" style="stop-color:#FF928E"/>
						<stop  offset="1" style="stop-color:#FE7062"/>
					</linearGradient>
					<path class="st11" d="M97,104.7h30.4c1.9,0,3-2.4,2-4.3c-2.6-4.8-8-11.8-17.3-11.5c-9,0.3-14.3,6.7-17,11.2
						C93.8,102,95,104.7,97,104.7z"/>
				</g>
			</g>
		</g>
		<g class="st12">
			<path class="st2" d="M173.2,73.1l-27.9-0.4c-0.5,0-0.9-0.4-0.9-0.9l0.1-4.2c0-0.5,0.4-0.9,0.9-0.9l27.9,0.4
				c0.5,0,0.9,0.4,0.9,0.9l-0.1,4.2C174.1,72.8,173.7,73.2,173.2,73.1z"/>
			<path class="st2" d="M173,85.5l-27.9-0.4c-0.5,0-0.9-0.4-0.9-0.9l0.1-4.2c0-0.5,0.4-0.9,0.9-0.9l27.9,0.4c0.5,0,0.9,0.4,0.9,0.9
				l-0.1,4.2C173.9,85.1,173.5,85.5,173,85.5z"/>
			<path class="st2" d="M172.8,97.8l-27.9-0.4c-0.5,0-0.9-0.4-0.9-0.9l0.1-4.2c0-0.5,0.4-0.9,0.9-0.9l27.9,0.4
				c0.5,0,0.9,0.4,0.9,0.9l-0.1,4.2C173.7,97.4,173.3,97.8,172.8,97.8z"/>
		</g>
		
			<linearGradient id="SVGID_11_" gradientUnits="userSpaceOnUse" x1="117.2101" y1="75.5378" x2="194.5697" y2="22.5968" gradientTransform="matrix(1 0 0 -1 0 249.31)">
			<stop  offset="0" style="stop-color:#E1473D"/>
			<stop  offset="1" style="stop-color:#E9605A"/>
		</linearGradient>
		<path class="st13" d="M148.3,190.9h-30.4c-1,0-1.8-0.8-1.8-1.8v-8.8c0-1,0.8-1.8,1.8-1.8h30.4c1,0,1.8,0.8,1.8,1.8v8.8
			C150.1,190.1,149.3,190.9,148.3,190.9z"/>
		<g class="st12">
			<g>
				<path class="st2" d="M171.1,133.5h-68.5c-0.5,0-1-0.5-1-1v-4.8c0-0.6,0.4-1,1-1h68.5c0.5,0,1,0.5,1,1v4.8
					C172.1,133.1,171.6,133.5,171.1,133.5z"/>
				<ellipse class="st2" cx="92.5" cy="130.1" rx="4.1" ry="4.1"/>
			</g>
			<g>
				<path class="st2" d="M171.1,146.3h-68.5c-0.5,0-1-0.5-1-1v-4.8c0-0.6,0.4-1,1-1h68.5c0.5,0,1,0.5,1,1v4.8
					C172.1,145.9,171.6,146.3,171.1,146.3z"/>
				<ellipse class="st2" cx="92.5" cy="142.9" rx="4.1" ry="4.1"/>
			</g>
			<g>
				<path class="st2" d="M171.1,159.2h-68.5c-0.5,0-1-0.5-1-1v-4.8c0-0.6,0.4-1,1-1h68.5c0.5,0,1,0.5,1,1v4.8
					C172.1,158.7,171.6,159.2,171.1,159.2z"/>
				<ellipse class="st2" cx="92.5" cy="155.7" rx="4.1" ry="4.1"/>
			</g>
			<g>
				<path class="st2" d="M171.1,172h-68.5c-0.5,0-1-0.5-1-1v-4.8c0-0.6,0.4-1,1-1h68.5c0.5,0,1,0.5,1,1v4.8
					C172.1,171.5,171.6,172,171.1,172z"/>
				<ellipse class="st2" cx="92.5" cy="168.6" rx="4.1" ry="4.1"/>
			</g>
		</g>
		<g>
			<path class="st2" d="M69.9,66.8l-1.4,1.1l0,0c-0.1,0.1-0.2,0.1-0.3,0c-0.1-0.1-0.1-0.2,0-0.3c0,0,0,0,0,0l1.4-1.1
				c0.1-0.1,0.2,0,0.3,0C70,66.6,69.9,66.8,69.9,66.8L69.9,66.8z"/>
			<path class="st2" d="M65.1,70.8c-0.9,0.8-1.7,1.6-2.6,2.4c-0.1,0.1-0.3,0.1-0.4,0c-0.1-0.1-0.1-0.3,0-0.4c0,0,0,0,0,0
				c0.9-0.8,1.7-1.6,2.6-2.3c0.1-0.1,0.3-0.1,0.4,0C65.2,70.5,65.2,70.7,65.1,70.8z"/>
			<path class="st2" d="M59.3,76.3c-0.8,0.8-1.6,1.7-2.4,2.6c-0.1,0.1-0.4,0.2-0.5,0c-0.1-0.1-0.2-0.4,0-0.5c0,0,0,0,0,0
				c0.8-0.9,1.6-1.7,2.4-2.5c0.1-0.1,0.3-0.1,0.5,0C59.5,76,59.5,76.2,59.3,76.3z"/>
			<path class="st2" d="M54.1,82.3c-0.7,0.9-1.4,1.8-2.1,2.7c-0.1,0.2-0.4,0.2-0.6,0.1c-0.2-0.1-0.2-0.4-0.1-0.6c0,0,0,0,0,0
				c0.7-0.9,1.4-1.8,2.2-2.7c0.1-0.2,0.4-0.2,0.5,0C54.2,81.9,54.2,82.1,54.1,82.3z"/>
			<path class="st2" d="M49.4,88.7c-0.6,1-1.3,1.9-1.9,2.9c-0.1,0.2-0.4,0.3-0.6,0.1s-0.3-0.4-0.1-0.6c0,0,0,0,0,0
				c0.6-1,1.3-2,1.9-2.9c0.1-0.2,0.4-0.2,0.6-0.1C49.5,88.2,49.5,88.5,49.4,88.7z"/>
			<path class="st2" d="M45.2,95.5c-0.6,1-1.1,2-1.6,3.1c-0.1,0.2-0.4,0.3-0.7,0.2c-0.2-0.1-0.3-0.4-0.2-0.7l0,0
				c0.5-1,1.1-2.1,1.7-3.1c0.1-0.2,0.4-0.3,0.7-0.2C45.3,94.9,45.4,95.2,45.2,95.5z"/>
			<path class="st2" d="M41.7,102.6c-0.5,1.1-0.9,2.1-1.3,3.2c-0.1,0.3-0.4,0.4-0.7,0.3c-0.3-0.1-0.4-0.4-0.3-0.7l0,0
				c0.4-1.1,0.9-2.2,1.4-3.3c0.1-0.3,0.4-0.4,0.7-0.3C41.7,102,41.9,102.4,41.7,102.6z"/>
			<path class="st2" d="M39,110.1c-0.4,1.1-0.7,2.2-1,3.3c-0.1,0.3-0.4,0.5-0.7,0.4c-0.3-0.1-0.5-0.4-0.4-0.7l0,0
				c0.3-1.1,0.7-2.3,1-3.4c0.1-0.3,0.4-0.5,0.7-0.4C38.9,109.5,39,109.8,39,110.1z"/>
			<path class="st2" d="M36.9,117.8c-0.2,1.1-0.5,2.3-0.6,3.4c-0.1,0.3-0.4,0.6-0.7,0.5c-0.3-0.1-0.5-0.4-0.5-0.7l0,0
				c0.2-1.2,0.4-2.3,0.7-3.5c0.1-0.3,0.4-0.5,0.7-0.4C36.8,117.1,37,117.4,36.9,117.8z"/>
			<path class="st2" d="M35.7,125.6c-0.1,1.2-0.2,2.3-0.3,3.5c0,0.4-0.3,0.6-0.7,0.6c-0.3,0-0.6-0.3-0.6-0.7l0,0
				c0.1-1.2,0.2-2.3,0.3-3.5c0-0.3,0.3-0.6,0.7-0.6C35.5,125,35.7,125.3,35.7,125.6z"/>
			<path class="st2" d="M35.2,133.6c0,1.2,0,2.3,0,3.5c0,0.4-0.3,0.7-0.7,0.7c-0.4,0-0.7-0.3-0.7-0.7v0c0-1.2,0-2.4,0.1-3.5
				c0-0.4,0.3-0.6,0.7-0.6C34.9,132.9,35.2,133.2,35.2,133.6z"/>
			<path class="st2" d="M35.2,141.6c0,1.2,0.1,2.3,0.2,3.5c0,0.4-0.2,0.7-0.6,0.7c-0.4,0-0.7-0.3-0.7-0.6v0
				c-0.1-1.2-0.1-2.4-0.2-3.5c0-0.4,0.3-0.7,0.6-0.7C34.9,140.9,35.2,141.2,35.2,141.6z"/>
			<path class="st2" d="M35.9,149.5c0.1,1.2,0.3,2.3,0.5,3.4c0.1,0.4-0.2,0.7-0.6,0.8c-0.4,0.1-0.7-0.2-0.8-0.6v0
				c-0.2-1.2-0.3-2.3-0.5-3.5c0-0.4,0.2-0.7,0.6-0.8C35.5,148.9,35.8,149.1,35.9,149.5z"/>
			<path class="st2" d="M37.2,157.4c0.2,1.1,0.5,2.3,0.8,3.4c0.1,0.4-0.1,0.8-0.5,0.9c-0.4,0.1-0.8-0.1-0.9-0.5l0,0
				c-0.3-1.1-0.6-2.3-0.8-3.4c-0.1-0.4,0.2-0.7,0.5-0.8C36.7,156.7,37.1,157,37.2,157.4z"/>
			<path class="st2" d="M39.2,165c0.4,1.1,0.8,2.2,1.2,3.3c0.1,0.4,0,0.8-0.4,0.9c-0.4,0.1-0.8,0-0.9-0.4l0,0
				c-0.4-1.1-0.8-2.2-1.2-3.3c-0.1-0.4,0.1-0.8,0.4-0.9C38.7,164.4,39.1,164.6,39.2,165z"/>
			<path class="st2" d="M42.2,172.4c0.5,1,1,2.1,1.6,3.1c0.2,0.3,0.1,0.8-0.3,1c-0.3,0.2-0.8,0.1-1-0.3l0,0c-0.6-1-1.1-2.1-1.6-3.2
				c-0.2-0.4,0-0.8,0.3-1C41.6,171.9,42,172,42.2,172.4z"/>
			<path class="st2" d="M46.1,179.2c0.6,0.9,1.3,1.9,2,2.8c0.3,0.3,0.2,0.8-0.1,1c-0.3,0.3-0.8,0.2-1-0.1l0,0
				c-0.7-0.9-1.4-1.9-2.1-2.9c-0.2-0.3-0.1-0.8,0.2-1C45.5,178.8,45.9,178.9,46.1,179.2z"/>
			<path class="st2" d="M51.1,185.3c0.8,0.8,1.6,1.6,2.5,2.4c0.3,0.3,0.3,0.7,0.1,1.1c-0.3,0.3-0.7,0.3-1,0.1l0,0
				c-0.9-0.8-1.7-1.6-2.5-2.5c-0.3-0.3-0.3-0.8,0-1.1C50.3,185,50.8,185,51.1,185.3z"/>
			<path class="st2" d="M57,190.5c0.5,0.3,0.9,0.7,1.4,1c0.5,0.3,1,0.6,1.4,0.9l0,0c0.3,0.2,0.4,0.7,0.2,1c-0.2,0.3-0.7,0.4-1,0.2
				c-0.5-0.3-1-0.6-1.5-1c-0.5-0.3-1-0.7-1.4-1c-0.3-0.2-0.4-0.7-0.2-1.1C56.2,190.3,56.6,190.2,57,190.5L57,190.5z"/>
			<path class="st2" d="M63.6,194.5c1,0.5,2.1,1,3.1,1.4c0.4,0.2,0.6,0.6,0.4,1c-0.1,0.4-0.6,0.6-0.9,0.4c-1.1-0.4-2.2-0.9-3.2-1.4
				c-0.4-0.2-0.5-0.6-0.3-1C62.8,194.5,63.3,194.3,63.6,194.5L63.6,194.5z"/>
			<path class="st2" d="M70.9,197.4c1.1,0.3,2.2,0.6,3.3,0.9c0.4,0.1,0.6,0.5,0.5,0.9c-0.1,0.4-0.5,0.6-0.8,0.5
				c-1.1-0.3-2.3-0.5-3.4-0.9c-0.4-0.1-0.6-0.5-0.5-0.9C70.1,197.5,70.5,197.3,70.9,197.4L70.9,197.4z"/>
			<path class="st2" d="M78.5,199c1.1,0.2,2.3,0.3,3.4,0.4c0.4,0,0.7,0.4,0.6,0.8c0,0.4-0.4,0.7-0.7,0.7c-1.2-0.1-2.3-0.2-3.5-0.3
				c-0.4-0.1-0.7-0.4-0.6-0.8C77.8,199.3,78.2,199,78.5,199L78.5,199z"/>
			<path class="st2" d="M86.3,199.5c1.1,0,2.3,0,3.4-0.1c0.4,0,0.7,0.3,0.7,0.6c0,0.4-0.3,0.7-0.6,0.7c-1.2,0.1-2.3,0.1-3.5,0.1
				c-0.4,0-0.7-0.3-0.7-0.7C85.7,199.8,86,199.5,86.3,199.5L86.3,199.5L86.3,199.5z"/>
			<path class="st2" d="M94.2,199c1.1-0.1,2.3-0.3,3.4-0.5c0.4-0.1,0.7,0.2,0.8,0.6c0.1,0.4-0.2,0.7-0.5,0.8
				c-1.1,0.2-2.3,0.4-3.5,0.5c-0.4,0-0.7-0.2-0.7-0.6C93.5,199.4,93.8,199.1,94.2,199L94.2,199z"/>
			<path class="st2" d="M101.9,197.7c1.1-0.2,2.2-0.5,3.4-0.8c0.3-0.1,0.7,0.1,0.8,0.5c0.1,0.3-0.1,0.7-0.4,0.8
				c-1.1,0.3-2.3,0.6-3.4,0.9c-0.3,0.1-0.7-0.1-0.8-0.5S101.6,197.8,101.9,197.7C101.9,197.7,101.9,197.7,101.9,197.7z"/>
			<path class="st2" d="M109.5,195.7c1.1-0.3,2.2-0.7,3.3-1.1c0.3-0.1,0.6,0.1,0.7,0.4c0.1,0.3-0.1,0.6-0.4,0.7
				c-1.1,0.4-2.2,0.8-3.3,1.1c-0.3,0.1-0.7-0.1-0.8-0.4C109,196.1,109.2,195.8,109.5,195.7C109.5,195.7,109.5,195.7,109.5,195.7z"/>
			<path class="st2" d="M117,193.1c1.1-0.4,2.1-0.9,3.2-1.3c0.3-0.1,0.6,0,0.7,0.3c0.1,0.3,0,0.6-0.3,0.7c-1.1,0.5-2.1,0.9-3.2,1.4
				c-0.3,0.1-0.6,0-0.7-0.3C116.5,193.5,116.7,193.2,117,193.1C117,193.1,117,193.1,117,193.1z"/>
			<path class="st2" d="M124.2,189.9c1-0.5,2.1-1,3.1-1.6c0.2-0.1,0.5,0,0.7,0.2c0.1,0.2,0,0.5-0.2,0.7c-1,0.6-2.1,1.1-3.1,1.6
				c-0.3,0.1-0.6,0-0.7-0.2C123.8,190.3,123.9,190,124.2,189.9C124.2,189.9,124.2,189.9,124.2,189.9z"/>
			<path class="st2" d="M131.2,186.1c1-0.6,2-1.2,2.9-1.8c0.2-0.1,0.5-0.1,0.6,0.1c0.1,0.2,0.1,0.5-0.1,0.6c-1,0.7-1.9,1.3-2.9,1.9
				c-0.2,0.1-0.5,0.1-0.6-0.2C130.9,186.6,130.9,186.3,131.2,186.1C131.2,186.2,131.2,186.1,131.2,186.1z"/>
			<path class="st2" d="M137.8,181.8c0.9-0.7,1.9-1.4,2.8-2.1c0.2-0.1,0.4-0.1,0.5,0.1c0.1,0.2,0.1,0.4-0.1,0.5
				c-0.9,0.7-1.8,1.5-2.7,2.2c-0.2,0.1-0.4,0.1-0.5-0.1S137.6,181.9,137.8,181.8C137.8,181.8,137.8,181.8,137.8,181.8z"/>
			<path class="st2" d="M143.9,176.8c0.9-0.8,1.7-1.6,2.6-2.4c0.1-0.1,0.3-0.1,0.4,0c0.1,0.1,0.1,0.3,0,0.4
				c-0.8,0.8-1.7,1.6-2.5,2.4c-0.1,0.1-0.3,0.1-0.4,0C143.8,177.1,143.8,176.9,143.9,176.8C143.9,176.8,143.9,176.8,143.9,176.8z"/>
			<path class="st2" d="M149.7,171.3l1.2-1.3l0,0c0.1-0.1,0.2-0.1,0.3,0c0.1,0.1,0.1,0.2,0,0.3l-1.2,1.3c-0.1,0.1-0.2,0.1-0.3,0
				C149.6,171.5,149.6,171.4,149.7,171.3C149.6,171.3,149.6,171.3,149.7,171.3L149.7,171.3z"/>
		</g>
		<path class="st2" d="M143.2,120.2H89.4c-0.5,0-0.9-0.4-0.9-0.9v-5.1c0-0.5,0.4-0.9,0.9-0.9h53.8c0.5,0,0.9,0.4,0.9,0.9v5.1
			C144.1,119.8,143.7,120.2,143.2,120.2z"/>
		<g>
			<polygon class="st5" points="145.3,149.8 155.9,165.4 161.8,151.4 			"/>
			<path class="st5" d="M208.8,92.1l-16.5,66.4c-0.3,1.3-1.1,2.4-2.3,3c-1.1,0.7-2.5,0.8-3.7,0.4l-65.1-19.3
				c-0.7-0.2-1.3-0.9-1.4-1.7c-0.1-0.8,0.3-1.5,1-1.9L208.8,92.1z"/>
			<polygon class="st6" points="145.3,149.8 208.8,92.1 155.8,152.9 158.5,157.4 			"/>
			<polygon class="st5" points="162,154.7 155.9,165.4 155.8,152.9 			"/>
		</g>
	</g>
</g>
</svg>
