<?xml version="1.0" encoding="utf-8"?>
<!-- Generator: Adobe Illustrator 25.3.1, SVG Export Plug-In . SVG Version: 6.00 Build 0)  -->
<svg version="1.1" id="Layer_1" xmlns="http://www.w3.org/2000/svg" xmlns:xlink="http://www.w3.org/1999/xlink" x="0px" y="0px"
	 viewBox="0 0 250 250" style="enable-background:new 0 0 250 250;" xml:space="preserve">
<style type="text/css">
	.st0{fill:#92D7EC;}
	.st1{fill:#37A7DF;}
	.st2{fill:#1E71B7;}
	.st3{fill:#FFFFFF;}
	.st4{fill:#868686;}
	.st5{fill:#3C3C3B;}
	.st6{fill:#575756;}
	.st7{fill:#DAD9D8;}
	.st8{fill:#FDDB01;}
	.st9{fill:#FFC514;}
	.st10{fill:#ECECEC;}
</style>
<path class="st0" d="M230.8,171.2c11.3-6.8,16-17.6,15.1-31.2c-1.1-16.2-10.3-18.4-20.7-27.3c-12.8-11-12.2-25.4-21-38.5
	c-6.1-9.1-18.5-17.3-28.6-20.4c-27.5-8.6-49.8,14.1-68.7,31.4C95.4,95.6,84.6,98.7,69.3,97.8C56.9,97,43,88,31,89.4
	C4.8,92.6,3.7,134.7,7.7,154.9c5.7,28.6,23.7,43.5,50.3,46.9c32.8,4.1,51-19.6,81.6-23.1c15.8-1.8,30.1,6.3,46.1,5.7
	C201.5,183.8,217.1,179.4,230.8,171.2z"/>
<path class="st1" d="M121.8,167.5l-71.2,13.6c-4.5,0.9-8.8-2-9.7-6.5L20.2,68.7c-0.9-4.4,2.1-8.7,6.5-9.6L98,45.6
	c4.5-0.9,8.8,2,9.7,6.5L128.4,158C129.3,162.4,126.3,166.7,121.8,167.5z"/>
<path class="st2" d="M47.6,182.5c-3.4,0-6.5-2.4-7.2-5.9L19,67.1c-0.8-3.9,1.8-7.7,5.8-8.5l74.9-14.3c4-0.8,7.8,1.8,8.6,5.7
	l21.4,109.5c0.4,1.9,0,3.8-1.1,5.4c-1.1,1.6-2.8,2.7-4.7,3L49,182.3C48.5,182.4,48,182.5,47.6,182.5z M101.1,46c-0.3,0-0.7,0-1,0.1
	L25.1,60.4c-3,0.6-4.9,3.4-4.4,6.4l21.4,109.5c0.6,2.9,3.5,4.9,6.4,4.3l74.9-14.3c1.4-0.3,2.7-1.1,3.5-2.3c0.8-1.2,1.1-2.7,0.8-4.1
	L106.5,50.4C106,47.8,103.7,46,101.1,46z"/>
<path class="st3" d="M29.3,73.4c0.3,1.5-0.7,2.9-2.1,3.1c-1.5,0.3-2.9-0.7-3.2-2.1c-0.3-1.5,0.7-2.9,2.1-3.1
	C27.6,71,29,71.9,29.3,73.4z"/>
<path class="st2" d="M26.7,77.1c-0.6,0-1.3-0.2-1.8-0.6c-0.7-0.5-1.2-1.2-1.4-2c-0.3-1.7,0.8-3.4,2.6-3.8c1.8-0.3,3.5,0.8,3.8,2.5
	c0.3,1.7-0.8,3.4-2.6,3.8C27.1,77.1,26.9,77.1,26.7,77.1z M26.7,71.7c-0.1,0-0.3,0-0.4,0c-1.2,0.2-1.9,1.4-1.7,2.5
	c0.2,1.2,1.4,1.9,2.5,1.7c1.2-0.2,1.9-1.4,1.7-2.5C28.6,72.5,27.7,71.7,26.7,71.7z"/>
<path class="st4" d="M25.9,75.1l-6.7,1.3c-0.5,0.1-1-0.2-1.1-0.7l0,0c-0.1-0.5,0.2-1,0.7-1.1l6.7-1.3c0.5-0.1,1,0.2,1.1,0.7l0,0
	C26.8,74.5,26.4,75,25.9,75.1z"/>
<path class="st5" d="M19,76.9c-0.7,0-1.2-0.5-1.4-1.1l0-0.2c-0.1-0.4,0-0.7,0.2-1c0.2-0.3,0.5-0.5,0.9-0.6l6.9-1.3
	c0.8-0.1,1.5,0.3,1.6,1.1l0,0.2c0.1,0.4,0,0.7-0.2,1c-0.2,0.3-0.5,0.5-0.9,0.6l-6.9,1.3C19.2,76.9,19.1,76.9,19,76.9z M25.8,73.7
	C25.8,73.7,25.8,73.7,25.8,73.7l-6.9,1.3c-0.1,0-0.2,0.1-0.2,0.1c0,0.1-0.1,0.2,0,0.2l0,0.2c0,0.2,0.2,0.3,0.4,0.2l6.9-1.3
	c0.1,0,0.2-0.1,0.2-0.1c0-0.1,0.1-0.2,0-0.2l0-0.2C26.1,73.8,26,73.7,25.8,73.7z"/>
<path class="st3" d="M31,82.1c0.3,1.5-0.7,2.9-2.1,3.1c-1.5,0.3-2.9-0.7-3.2-2.1c-0.3-1.5,0.7-2.9,2.1-3.1
	C29.3,79.7,30.7,80.6,31,82.1z"/>
<path class="st2" d="M28.4,85.8c-0.6,0-1.3-0.2-1.8-0.6c-0.7-0.5-1.2-1.2-1.4-2c-0.2-0.8,0-1.7,0.5-2.4c0.5-0.7,1.2-1.2,2.1-1.4
	c1.8-0.3,3.5,0.8,3.8,2.5c0.3,1.7-0.8,3.4-2.6,3.8C28.8,85.8,28.6,85.8,28.4,85.8z M28.4,80.5c-0.1,0-0.3,0-0.4,0
	c-0.6,0.1-1.1,0.4-1.4,0.9c-0.3,0.5-0.4,1-0.3,1.6c0.1,0.6,0.4,1,0.9,1.4c0.5,0.3,1.1,0.4,1.6,0.3c1.2-0.2,1.9-1.4,1.7-2.5
	C30.3,81.2,29.4,80.5,28.4,80.5z"/>
<path class="st4" d="M27.6,83.8L21,85.1c-0.5,0.1-1-0.2-1.1-0.7l0,0c-0.1-0.5,0.2-1,0.7-1.1l6.7-1.3c0.5-0.1,1,0.2,1.1,0.7l0,0
	C28.5,83.2,28.1,83.7,27.6,83.8z"/>
<path class="st5" d="M20.7,85.6c-0.7,0-1.2-0.5-1.4-1.1l0-0.2c-0.1-0.4,0-0.7,0.2-1c0.2-0.3,0.5-0.5,0.9-0.6l6.9-1.3
	c0.8-0.1,1.5,0.3,1.6,1.1l0,0.2c0.1,0.7-0.3,1.5-1.1,1.6L21,85.6C20.9,85.6,20.8,85.6,20.7,85.6z M27.5,82.4
	C27.5,82.4,27.5,82.4,27.5,82.4l-6.9,1.3c-0.1,0-0.2,0.1-0.2,0.1c0,0.1-0.1,0.2,0,0.2l0,0.2c0,0.2,0.2,0.3,0.4,0.2l6.9-1.3
	c0.2,0,0.3-0.2,0.2-0.4l0-0.2c0-0.1-0.1-0.2-0.1-0.2C27.6,82.5,27.6,82.4,27.5,82.4z"/>
<path class="st3" d="M32.7,90.8c0.3,1.5-0.7,2.9-2.1,3.1c-1.5,0.3-2.9-0.7-3.2-2.1c-0.3-1.5,0.7-2.9,2.1-3.1
	C31,88.4,32.4,89.3,32.7,90.8z"/>
<path class="st2" d="M30.1,94.5c-1.5,0-2.9-1.1-3.2-2.6c-0.3-1.7,0.8-3.4,2.6-3.8c1.8-0.3,3.5,0.8,3.8,2.5c0.2,0.8,0,1.7-0.5,2.4
	c-0.5,0.7-1.2,1.2-2.1,1.4C30.5,94.5,30.3,94.5,30.1,94.5z M30.1,89.1c-0.1,0-0.3,0-0.4,0c-1.2,0.2-1.9,1.4-1.7,2.5
	c0.2,1.2,1.4,1.9,2.5,1.7c0.6-0.1,1.1-0.4,1.4-0.9c0.3-0.5,0.4-1,0.3-1.6C32,89.9,31.1,89.1,30.1,89.1z"/>
<path class="st4" d="M29.3,92.5l-6.7,1.3c-0.5,0.1-1-0.2-1.1-0.7l0,0c-0.1-0.5,0.2-1,0.7-1.1l6.7-1.3c0.5-0.1,1,0.2,1.1,0.7l0,0
	C30.2,91.9,29.8,92.4,29.3,92.5z"/>
<path class="st5" d="M22.4,94.3c-0.7,0-1.2-0.5-1.4-1.1l0-0.2c-0.1-0.7,0.3-1.5,1.1-1.6l6.9-1.3c0.4-0.1,0.7,0,1,0.2
	c0.3,0.2,0.5,0.5,0.6,0.9l0,0.2c0.1,0.7-0.3,1.5-1.1,1.6l-6.9,1.3C22.6,94.3,22.5,94.3,22.4,94.3z M29.2,91.1
	C29.2,91.1,29.2,91.1,29.2,91.1l-6.9,1.3c-0.2,0-0.3,0.2-0.2,0.4l0,0.2c0,0.1,0.1,0.2,0.1,0.2c0.1,0,0.2,0.1,0.2,0l6.9-1.3
	c0.2,0,0.3-0.2,0.2-0.4l0-0.2c0-0.1-0.1-0.2-0.1-0.2C29.3,91.2,29.3,91.1,29.2,91.1z"/>
<path class="st3" d="M34,101.5c0.8-1.2,0.5-2.9-0.7-3.7c-1.2-0.8-2.9-0.5-3.8,0.7c-0.8,1.2-0.5,2.9,0.7,3.7
	C31.5,103,33.1,102.7,34,101.5z"/>
<path class="st2" d="M31.8,103.2c-1.5,0-2.9-1.1-3.2-2.6c-0.3-1.7,0.8-3.4,2.6-3.8c1.8-0.3,3.5,0.8,3.8,2.5c0.3,1.7-0.8,3.4-2.6,3.8
	C32.2,103.2,32,103.2,31.8,103.2z M31.8,97.8c-0.1,0-0.3,0-0.4,0c-1.2,0.2-1.9,1.4-1.7,2.5c0.2,1.2,1.4,1.9,2.5,1.7
	c1.2-0.2,1.9-1.4,1.7-2.5C33.7,98.6,32.8,97.8,31.8,97.8z"/>
<path class="st4" d="M31,101.2l-6.7,1.3c-0.5,0.1-1-0.2-1.1-0.7l0,0c-0.1-0.5,0.2-1,0.7-1.1l6.7-1.3c0.5-0.1,1,0.2,1.1,0.7l0,0
	C31.9,100.6,31.5,101.1,31,101.2z"/>
<path class="st5" d="M24.1,103c-0.3,0-0.5-0.1-0.8-0.2c-0.3-0.2-0.5-0.5-0.6-0.9l0-0.2c-0.1-0.4,0-0.7,0.2-1
	c0.2-0.3,0.5-0.5,0.9-0.6l6.9-1.3c0.8-0.1,1.5,0.3,1.6,1.1l0,0.2c0.1,0.4,0,0.7-0.2,1c-0.2,0.3-0.5,0.5-0.9,0.6l-6.9,1.3
	C24.3,103,24.2,103,24.1,103z M30.9,99.8C30.9,99.8,30.9,99.8,30.9,99.8l-6.9,1.3c-0.2,0-0.3,0.2-0.2,0.4l0,0.2
	c0,0.2,0.2,0.3,0.4,0.2l6.9-1.3c0.1,0,0.2-0.1,0.2-0.1c0-0.1,0.1-0.2,0-0.2l0-0.2C31.2,99.9,31.1,99.8,30.9,99.8z"/>
<path class="st3" d="M36.1,108.2c0.3,1.5-0.7,2.9-2.1,3.1c-1.5,0.3-2.9-0.7-3.2-2.1c-0.3-1.5,0.7-2.9,2.1-3.1
	C34.4,105.8,35.8,106.7,36.1,108.2z"/>
<path class="st2" d="M33.5,111.9c-1.5,0-2.9-1.1-3.2-2.6c-0.2-0.8,0-1.7,0.5-2.4c0.5-0.7,1.2-1.2,2.1-1.4c1.8-0.3,3.5,0.8,3.8,2.5
	c0.3,1.7-0.8,3.4-2.6,3.8C33.9,111.9,33.7,111.9,33.5,111.9z M33.5,106.5c-0.1,0-0.3,0-0.4,0c-0.6,0.1-1.1,0.4-1.4,0.9
	c-0.3,0.5-0.4,1-0.3,1.6c0.2,1.2,1.4,1.9,2.5,1.7c1.2-0.2,1.9-1.3,1.7-2.5C35.4,107.3,34.5,106.5,33.5,106.5z"/>
<path class="st4" d="M32.7,109.9l-6.7,1.3c-0.5,0.1-1-0.2-1.1-0.7l0,0c-0.1-0.5,0.2-1,0.7-1.1l6.7-1.3c0.5-0.1,1,0.2,1.1,0.7l0,0
	C33.6,109.3,33.2,109.8,32.7,109.9z"/>
<path class="st5" d="M25.8,111.7c-0.3,0-0.5-0.1-0.8-0.2c-0.3-0.2-0.5-0.5-0.6-0.9l0-0.2c-0.1-0.7,0.3-1.5,1.1-1.6l6.9-1.3
	c0.8-0.1,1.5,0.3,1.6,1.1l0,0.2c0.1,0.4,0,0.7-0.2,1c-0.2,0.3-0.5,0.5-0.9,0.6l-6.9,1.3C26,111.7,25.9,111.7,25.8,111.7z
	 M32.6,108.5C32.6,108.5,32.6,108.5,32.6,108.5l-6.9,1.3c-0.2,0-0.3,0.2-0.2,0.4l0,0.2c0,0.2,0.2,0.3,0.4,0.2l6.9-1.3
	c0.1,0,0.2-0.1,0.2-0.1c0-0.1,0.1-0.2,0-0.2l0-0.2C32.9,108.6,32.8,108.5,32.6,108.5z"/>
<path class="st3" d="M37.8,116.9c0.3,1.5-0.7,2.9-2.1,3.1c-1.5,0.3-2.9-0.7-3.2-2.1c-0.3-1.5,0.7-2.9,2.1-3.1
	C36.1,114.5,37.5,115.4,37.8,116.9z"/>
<path class="st2" d="M35.2,120.6c-1.5,0-2.9-1.1-3.2-2.6c-0.3-1.7,0.8-3.4,2.6-3.8c1.8-0.3,3.5,0.8,3.8,2.5c0.2,0.8,0,1.7-0.5,2.4
	c-0.5,0.7-1.2,1.2-2.1,1.4C35.6,120.6,35.4,120.6,35.2,120.6z M35.2,115.2c-0.1,0-0.3,0-0.4,0c-1.2,0.2-1.9,1.4-1.7,2.5
	c0.2,1.2,1.4,1.9,2.5,1.7c1.2-0.2,1.9-1.4,1.7-2.5C37.1,116,36.2,115.2,35.2,115.2z"/>
<path class="st4" d="M34.4,118.6l-6.7,1.3c-0.5,0.1-1-0.2-1.1-0.7l0,0c-0.1-0.5,0.2-1,0.7-1.1l6.7-1.3c0.5-0.1,1,0.2,1.1,0.7l0,0
	C35.3,118,34.9,118.5,34.4,118.6z"/>
<path class="st5" d="M27.5,120.4c-0.3,0-0.5-0.1-0.8-0.2c-0.3-0.2-0.5-0.5-0.6-0.9l0-0.2c-0.1-0.7,0.3-1.5,1.1-1.6l6.9-1.3
	c0.4-0.1,0.7,0,1,0.2s0.5,0.5,0.6,0.9l0,0.2c0.1,0.7-0.3,1.5-1.1,1.6l-6.9,1.3C27.7,120.4,27.6,120.4,27.5,120.4z M34.3,117.2
	C34.3,117.2,34.3,117.2,34.3,117.2l-6.9,1.3c-0.2,0-0.3,0.2-0.2,0.4l0,0.2c0,0.1,0.1,0.2,0.1,0.2c0.1,0,0.2,0.1,0.2,0l6.9-1.3
	c0.2,0,0.3-0.2,0.2-0.4l0-0.2C34.6,117.3,34.5,117.2,34.3,117.2z"/>
<path class="st3" d="M39.5,125.6c0.3,1.5-0.7,2.9-2.1,3.1c-1.5,0.3-2.9-0.7-3.2-2.1c-0.3-1.5,0.7-2.9,2.1-3.1
	C37.8,123.2,39.2,124.1,39.5,125.6z"/>
<path class="st2" d="M36.9,129.3c-1.5,0-2.9-1.1-3.2-2.6c-0.3-1.7,0.8-3.4,2.6-3.8c1.8-0.3,3.5,0.8,3.8,2.5c0.3,1.7-0.8,3.4-2.6,3.8
	C37.3,129.3,37.1,129.3,36.9,129.3z M36.9,123.9c-0.1,0-0.3,0-0.4,0c-1.2,0.2-1.9,1.4-1.7,2.5c0.2,1.2,1.4,1.9,2.5,1.7
	c1.2-0.2,1.9-1.4,1.7-2.5C38.8,124.7,37.9,123.9,36.9,123.9z"/>
<path class="st4" d="M36.1,127.3l-6.7,1.3c-0.5,0.1-1-0.2-1.1-0.7l0,0c-0.1-0.5,0.2-1,0.7-1.1l6.7-1.3c0.5-0.1,1,0.2,1.1,0.7l0,0
	C37,126.7,36.6,127.2,36.1,127.3z"/>
<path class="st5" d="M29.2,129.1c-0.3,0-0.5-0.1-0.8-0.2c-0.3-0.2-0.5-0.5-0.6-0.9l0-0.2c-0.1-0.4,0-0.7,0.2-1
	c0.2-0.3,0.5-0.5,0.9-0.6l6.9-1.3c0.4-0.1,0.7,0,1,0.2s0.5,0.5,0.6,0.9l0,0.2c0.1,0.4,0,0.7-0.2,1c-0.2,0.3-0.5,0.5-0.9,0.6
	l-6.9,1.3C29.4,129.1,29.3,129.1,29.2,129.1z M36,125.9C36,125.9,36,125.9,36,125.9l-6.9,1.3c-0.1,0-0.2,0.1-0.2,0.1
	c0,0.1-0.1,0.2,0,0.2l0,0.2c0,0.2,0.2,0.3,0.4,0.2l6.9-1.3c0.2,0,0.3-0.2,0.2-0.4l0-0.2C36.3,126,36.2,125.9,36,125.9z"/>
<path class="st3" d="M41.2,134.3c0.3,1.5-0.7,2.9-2.1,3.1c-1.5,0.3-2.9-0.7-3.2-2.1c-0.3-1.5,0.7-2.9,2.1-3.1
	C39.5,131.9,40.9,132.8,41.2,134.3z"/>
<path class="st2" d="M38.6,138c-1.5,0-2.9-1.1-3.2-2.6c-0.2-0.8,0-1.7,0.5-2.4c0.5-0.7,1.2-1.2,2.1-1.4c1.8-0.3,3.5,0.8,3.8,2.5
	c0.2,0.8,0,1.7-0.5,2.4c-0.5,0.7-1.2,1.2-2.1,1.4C39,138,38.8,138,38.6,138z M38.6,132.6c-0.1,0-0.3,0-0.4,0
	c-0.6,0.1-1.1,0.4-1.4,0.9c-0.3,0.5-0.4,1-0.3,1.6c0.2,1.2,1.4,1.9,2.5,1.7c0.6-0.1,1.1-0.4,1.4-0.9c0.3-0.5,0.4-1,0.3-1.6
	C40.5,133.4,39.6,132.6,38.6,132.6z"/>
<path class="st4" d="M37.8,136l-6.7,1.3c-0.5,0.1-1-0.2-1.1-0.7l0,0c-0.1-0.5,0.2-1,0.7-1.1l6.7-1.3c0.5-0.1,1,0.2,1.1,0.7l0,0
	C38.7,135.4,38.3,135.9,37.8,136z"/>
<path class="st5" d="M30.9,137.8c-0.3,0-0.5-0.1-0.8-0.2c-0.3-0.2-0.5-0.5-0.6-0.9l0-0.2c-0.1-0.7,0.3-1.5,1.1-1.6l6.9-1.3
	c0.4-0.1,0.7,0,1,0.2c0.3,0.2,0.5,0.5,0.6,0.9l0,0.2c0.1,0.7-0.3,1.5-1.1,1.6l-6.9,1.3C31.1,137.8,31,137.8,30.9,137.8z M37.7,134.6
	C37.7,134.6,37.7,134.6,37.7,134.6l-6.9,1.3c-0.2,0-0.3,0.2-0.2,0.4l0,0.2c0,0.1,0.1,0.2,0.1,0.2c0.1,0,0.2,0.1,0.2,0l6.9-1.3
	c0.2,0,0.3-0.2,0.2-0.4l0-0.2c0-0.1-0.1-0.2-0.1-0.2C37.8,134.7,37.8,134.6,37.7,134.6z"/>
<path class="st3" d="M42.9,143c0.3,1.5-0.7,2.9-2.1,3.1c-1.5,0.3-2.9-0.7-3.2-2.1c-0.3-1.5,0.7-2.9,2.1-3.1
	C41.2,140.6,42.6,141.5,42.9,143z"/>
<path class="st2" d="M40.2,146.7c-1.5,0-2.9-1.1-3.2-2.6c-0.3-1.7,0.8-3.4,2.6-3.8c0.9-0.2,1.7,0,2.4,0.5c0.7,0.5,1.2,1.2,1.4,2
	c0.3,1.7-0.8,3.4-2.6,3.8C40.7,146.7,40.5,146.7,40.2,146.7z M40.3,141.3c-0.1,0-0.3,0-0.4,0c-1.2,0.2-1.9,1.4-1.7,2.5
	c0.2,1.2,1.4,1.9,2.5,1.7s1.9-1.4,1.7-2.5c-0.1-0.6-0.4-1-0.9-1.4C41.1,141.5,40.7,141.3,40.3,141.3z"/>
<path class="st4" d="M39.5,144.7l-6.7,1.3c-0.5,0.1-1-0.2-1.1-0.7l0,0c-0.1-0.5,0.2-1,0.7-1.1l6.7-1.3c0.5-0.1,1,0.2,1.1,0.7l0,0
	C40.4,144.1,40,144.6,39.5,144.7z"/>
<path class="st5" d="M32.6,146.5c-0.7,0-1.2-0.5-1.4-1.1l0-0.2c-0.1-0.7,0.3-1.5,1.1-1.6l6.9-1.3c0.4-0.1,0.7,0,1,0.2
	c0.3,0.2,0.5,0.5,0.6,0.9l0,0.2c0.1,0.7-0.3,1.5-1.1,1.6l-6.9,1.3C32.8,146.5,32.7,146.5,32.6,146.5z M39.4,143.3
	C39.4,143.3,39.4,143.3,39.4,143.3l-6.9,1.3c-0.2,0-0.3,0.2-0.2,0.4l0,0.2c0,0.2,0.2,0.3,0.4,0.2l6.9-1.3c0.2,0,0.3-0.2,0.2-0.4
	l0-0.2c0-0.1-0.1-0.2-0.1-0.2C39.5,143.4,39.5,143.3,39.4,143.3z"/>
<path class="st3" d="M44.6,151.7c0.3,1.5-0.7,2.9-2.1,3.1c-1.5,0.3-2.9-0.7-3.2-2.1c-0.3-1.5,0.7-2.9,2.1-3.1
	C42.9,149.3,44.3,150.2,44.6,151.7z"/>
<path class="st2" d="M41.9,155.4c-1.5,0-2.9-1.1-3.2-2.6c-0.3-1.7,0.8-3.4,2.6-3.8c1.8-0.3,3.5,0.8,3.8,2.5c0.2,0.8,0,1.7-0.5,2.4
	c-0.5,0.7-1.2,1.2-2.1,1.4C42.4,155.4,42.2,155.4,41.9,155.4z M41.9,150c-0.1,0-0.3,0-0.4,0c-1.2,0.2-1.9,1.4-1.7,2.5
	c0.2,1.2,1.4,1.9,2.5,1.7c0.6-0.1,1.1-0.4,1.4-0.9c0.3-0.5,0.4-1,0.3-1.6C43.9,150.8,43,150,41.9,150z"/>
<path class="st4" d="M41.2,153.4l-6.7,1.3c-0.5,0.1-1-0.2-1.1-0.7l0,0c-0.1-0.5,0.2-1,0.7-1.1l6.7-1.3c0.5-0.1,1,0.2,1.1,0.7l0,0
	C42.1,152.8,41.7,153.3,41.2,153.4z"/>
<path class="st5" d="M34.3,155.2c-0.7,0-1.2-0.5-1.4-1.1l0-0.2c-0.1-0.4,0-0.7,0.2-1c0.2-0.3,0.5-0.5,0.9-0.6l6.9-1.3
	c0.4-0.1,0.7,0,1,0.2c0.3,0.2,0.5,0.5,0.6,0.9l0,0.2c0.1,0.4,0,0.7-0.2,1c-0.2,0.3-0.5,0.5-0.9,0.6l-6.9,1.3
	C34.5,155.2,34.4,155.2,34.3,155.2z M41.1,152C41.1,152,41.1,152,41.1,152l-6.9,1.3c-0.1,0-0.2,0.1-0.2,0.1c0,0.1-0.1,0.2,0,0.2
	l0,0.2c0,0.2,0.2,0.3,0.4,0.2l6.9-1.3c0.2,0,0.3-0.2,0.2-0.4l0-0.2c0-0.1-0.1-0.2-0.1-0.2C41.2,152.1,41.2,152,41.1,152z"/>
<path class="st3" d="M46.3,160.4c0.3,1.5-0.7,2.9-2.1,3.1c-1.5,0.3-2.9-0.7-3.2-2.1c-0.3-1.5,0.7-2.9,2.1-3.1
	C44.6,158,46,158.9,46.3,160.4z"/>
<path class="st2" d="M43.7,164.1c-1.5,0-2.9-1.1-3.2-2.6c-0.3-1.7,0.8-3.4,2.6-3.8c0.9-0.2,1.7,0,2.4,0.5c0.7,0.5,1.2,1.2,1.4,2
	c0.2,0.8,0,1.7-0.5,2.4c-0.5,0.7-1.2,1.2-2.1,1.4C44.1,164.1,43.8,164.1,43.7,164.1z M43.7,158.7c-0.1,0-0.3,0-0.4,0
	c-1.2,0.2-1.9,1.4-1.7,2.5c0.2,1.2,1.4,1.9,2.5,1.7c0.6-0.1,1.1-0.4,1.4-0.9c0.3-0.5,0.4-1,0.3-1.6c-0.1-0.6-0.4-1-0.9-1.4
	C44.5,158.9,44.1,158.7,43.7,158.7z"/>
<path class="st4" d="M42.9,162.1l-6.7,1.3c-0.5,0.1-1-0.2-1.1-0.7l0,0c-0.1-0.5,0.2-1,0.7-1.1l6.7-1.3c0.5-0.1,1,0.2,1.1,0.7l0,0
	C43.8,161.5,43.4,162,42.9,162.1z"/>
<path class="st5" d="M36,163.9c-0.7,0-1.2-0.5-1.4-1.1l0-0.2c-0.1-0.4,0-0.7,0.2-1c0.2-0.3,0.5-0.5,0.9-0.6l6.9-1.3
	c0.4-0.1,0.7,0,1,0.2s0.5,0.5,0.6,0.9l0,0.2c0.1,0.4,0,0.7-0.2,1c-0.2,0.3-0.5,0.5-0.9,0.6l-6.9,1.3C36.2,163.9,36.1,163.9,36,163.9
	z M42.8,160.7C42.8,160.7,42.8,160.7,42.8,160.7l-6.9,1.3c-0.1,0-0.2,0.1-0.2,0.1c0,0.1-0.1,0.2,0,0.2l0,0.2c0,0.2,0.2,0.3,0.4,0.2
	l6.9-1.3c0.2,0,0.3-0.2,0.2-0.4l0-0.2c0-0.1-0.1-0.2-0.1-0.2C42.9,160.7,42.9,160.7,42.8,160.7z"/>
<path class="st3" d="M48,169.1c0.3,1.5-0.7,2.9-2.1,3.1c-1.5,0.3-2.9-0.7-3.2-2.1c-0.3-1.5,0.7-2.9,2.1-3.1
	C46.3,166.7,47.7,167.6,48,169.1z"/>
<path class="st2" d="M45.3,172.8c-0.6,0-1.3-0.2-1.8-0.6c-0.7-0.5-1.2-1.2-1.4-2c-0.2-0.8,0-1.7,0.5-2.4c0.5-0.7,1.2-1.2,2.1-1.4
	c0.9-0.2,1.7,0,2.4,0.5c0.7,0.5,1.2,1.2,1.4,2c0.2,0.8,0,1.7-0.5,2.4c-0.5,0.7-1.2,1.2-2.1,1.4C45.8,172.8,45.6,172.8,45.3,172.8z
	 M45.4,167.4c-0.1,0-0.3,0-0.4,0c-0.6,0.1-1.1,0.4-1.4,0.9c-0.3,0.5-0.4,1-0.3,1.6c0.1,0.6,0.4,1,0.9,1.4c0.5,0.3,1.1,0.4,1.6,0.3
	c0.6-0.1,1.1-0.4,1.4-0.9c0.3-0.5,0.4-1,0.3-1.6c-0.1-0.6-0.4-1-0.9-1.4C46.2,167.6,45.8,167.4,45.4,167.4z"/>
<path class="st4" d="M44.6,170.8l-6.7,1.3c-0.5,0.1-1-0.2-1.1-0.7l0,0c-0.1-0.5,0.2-1,0.7-1.1l6.7-1.3c0.5-0.1,1,0.2,1.1,0.7l0,0
	C45.5,170.2,45.1,170.7,44.6,170.8z"/>
<path class="st5" d="M37.7,172.6c-0.7,0-1.2-0.5-1.4-1.1l0-0.2c-0.1-0.4,0-0.7,0.2-1c0.2-0.3,0.5-0.5,0.9-0.6l6.9-1.3
	c0.4-0.1,0.7,0,1,0.2c0.3,0.2,0.5,0.5,0.6,0.9l0,0.2c0.1,0.7-0.3,1.5-1.1,1.6l-6.9,1.3C37.9,172.6,37.8,172.6,37.7,172.6z
	 M44.5,169.4C44.5,169.4,44.5,169.4,44.5,169.4l-6.9,1.3c-0.1,0-0.2,0.1-0.2,0.1c0,0.1-0.1,0.2,0,0.2l0,0.2c0,0.2,0.2,0.3,0.4,0.2
	l6.9-1.3c0.2,0,0.3-0.2,0.2-0.4l0-0.2c0-0.1-0.1-0.2-0.1-0.2C44.6,169.4,44.6,169.4,44.5,169.4z"/>
<path class="st6" d="M119.4,168.8l-10.6,2c-1.1,0.2-2.1-0.5-2.3-1.5L83.1,49.6c-0.2-1.1,0.5-2.1,1.6-2.3l10.6-2
	c1.1-0.2,2.1,0.5,2.3,1.5l23.4,119.7C121.2,167.6,120.5,168.6,119.4,168.8z"/>
<path class="st5" d="M108.1,171.9c-1.1,0-2.2-0.8-2.4-1.9L82.1,49.3c-0.3-1.3,0.6-2.6,1.9-2.8l11.5-2.2c0.6-0.1,1.3,0,1.8,0.4
	c0.5,0.4,0.9,0.9,1,1.5l23.6,120.6c0.3,1.3-0.6,2.6-1.9,2.8l-11.5,2.2C108.4,171.9,108.2,171.9,108.1,171.9z M96,46.1
	c0,0-0.1,0-0.1,0l-11.5,2.2c-0.3,0.1-0.6,0.4-0.5,0.7l23.6,120.6c0.1,0.3,0.4,0.6,0.7,0.5l11.5-2.2c0.3-0.1,0.6-0.4,0.5-0.7
	L96.6,46.6c0-0.2-0.1-0.3-0.3-0.4C96.2,46.1,96.1,46.1,96,46.1z"/>
<path class="st3" d="M197.6,219.9L124.3,202c-1.1-0.3-1.8-1.4-1.5-2.4l27.8-111.1c0.3-1.1,1.4-1.7,2.5-1.5l73.4,17.9
	c1.1,0.3,1.8,1.4,1.5,2.4l-27.8,111.1C199.8,219.5,198.7,220.2,197.6,219.9z"/>
<path class="st7" d="M198.5,220.6c-0.2,0-0.3,0-0.5-0.1l-74.2-18.1c-0.6-0.1-1-0.5-1.3-1c-0.3-0.5-0.4-1-0.2-1.6l28-112
	c0.3-1.1,1.4-1.8,2.6-1.5l74.2,18.1c0.5,0.1,1,0.5,1.3,1c0.3,0.5,0.4,1,0.2,1.6l-28,112C200.3,220,199.4,220.6,198.5,220.6z
	 M198.2,219.5c0.6,0.1,1.1-0.2,1.3-0.8l28-112c0.1-0.3,0-0.5-0.1-0.8c-0.1-0.2-0.4-0.4-0.6-0.5l-74.2-18.1c-0.6-0.1-1.1,0.2-1.3,0.8
	l-28,112c-0.1,0.3,0,0.5,0.1,0.8c0.1,0.2,0.4,0.4,0.6,0.5L198.2,219.5z"/>
<path class="st1" d="M196.1,221.3L126,200.4c-1.1-0.3-1.7-1.4-1.4-2.5L157,91.7c0.3-1.1,1.5-1.7,2.5-1.4l70.1,20.9
	c1.1,0.3,1.7,1.4,1.4,2.5l-32.3,106.2C198.4,221,197.2,221.6,196.1,221.3z"/>
<path class="st2" d="M197,222c-0.2,0-0.4,0-0.6-0.1l-71-21.1c-0.5-0.2-1-0.5-1.3-1c-0.3-0.5-0.3-1.1-0.2-1.6l32.6-107.1
	c0.3-1.1,1.5-1.7,2.6-1.4l71,21.1c1.1,0.3,1.8,1.5,1.4,2.6l-32.6,107.1c-0.2,0.5-0.5,1-1,1.2C197.7,221.9,197.4,222,197,222z
	 M158.7,90.7c-0.5,0-0.9,0.3-1,0.7l-32.6,107.1c-0.1,0.3-0.1,0.5,0.1,0.8c0.1,0.2,0.4,0.4,0.6,0.5l71,21.1c0.5,0.2,1.1-0.1,1.3-0.7
	l32.6-107.1c0.2-0.5-0.1-1.1-0.7-1.3l-71-21.1C158.9,90.7,158.8,90.7,158.7,90.7z"/>
<path class="st3" d="M201.9,219.6l-71.6-14.9c-1.1-0.2-1.8-1.3-1.6-2.4l23.1-108.5c0.2-1.1,1.3-1.8,2.4-1.6l71.6,14.9
	c1.1,0.2,1.8,1.3,1.6,2.4L204.3,218C204.1,219.1,203,219.8,201.9,219.6z"/>
<path class="st7" d="M202.7,220.2c-0.1,0-0.3,0-0.4,0l-72.5-15.1c-0.6-0.1-1-0.4-1.3-0.9c-0.3-0.5-0.4-1-0.3-1.6l23.3-109.4
	c0.2-1.1,1.4-1.9,2.5-1.6l72.5,15.1c0.6,0.1,1,0.4,1.3,0.9c0.3,0.5,0.4,1,0.3,1.6l-23.3,109.4c-0.1,0.5-0.4,1-0.9,1.3
	C203.5,220.1,203.1,220.2,202.7,220.2z M153.5,92.6c-0.2,0-0.4,0.1-0.6,0.2c-0.2,0.2-0.4,0.4-0.5,0.7l-23.3,109.4
	c-0.1,0.3,0,0.5,0.1,0.8c0.2,0.2,0.4,0.4,0.7,0.4l72.5,15.1c0.3,0.1,0.6,0,0.8-0.1c0.2-0.2,0.4-0.4,0.5-0.7L227,108.9
	c0.1-0.6-0.2-1.1-0.8-1.2l-72.5-15.1C153.6,92.6,153.6,92.6,153.5,92.6z"/>
<path class="st7" d="M219.6,113.5l-62.1-12.9l-0.5,2.1l62.1,12.9L219.6,113.5z"/>
<path class="st7" d="M218.4,118.8l-62.1-12.9l-0.5,2.1l62.1,12.9L218.4,118.8z"/>
<path class="st7" d="M217.3,124l-62.1-12.9l-0.5,2.1l62.1,12.9L217.3,124z"/>
<path class="st7" d="M216.2,129.3L154,116.4l-0.5,2.1l62.1,12.9L216.2,129.3z"/>
<path class="st7" d="M215.1,134.6l-62.1-12.9l-0.5,2.1l62.1,12.9L215.1,134.6z"/>
<path class="st7" d="M212.4,147.3l-62.1-12.9l-0.5,2.1l62.1,12.9L212.4,147.3z"/>
<path class="st7" d="M211.2,152.6l-62.1-12.9l-0.5,2.1l62.1,12.9L211.2,152.6z"/>
<path class="st7" d="M210.1,157.8L148,144.9l-0.5,2.1l62.1,12.9L210.1,157.8z"/>
<path class="st7" d="M209,163.1l-62.1-12.9l-0.5,2.1l62.1,12.9L209,163.1z"/>
<path class="st7" d="M207.9,168.3l-62.1-12.9l-0.5,2.1l62.1,12.9L207.9,168.3z"/>
<path class="st7" d="M181.3,168.3l-36.7-7.7l-0.5,2.1l36.7,7.7L181.3,168.3z"/>
<path class="st7" d="M204.1,185.9L142,173l-0.5,2.1l62.1,12.9L204.1,185.9z"/>
<path class="st7" d="M203,191.2l-62.1-12.9l-0.5,2.1l62.1,12.9L203,191.2z"/>
<path class="st7" d="M201.9,196.5l-62.1-12.9l-0.5,2.1l62.1,12.9L201.9,196.5z"/>
<path class="st7" d="M200.7,201.7l-62.1-12.9l-0.5,2.1l62.1,12.9L200.7,201.7z"/>
<path class="st7" d="M199.6,207l-62.1-12.9l-0.5,2.1l62.1,12.9L199.6,207z"/>
<path class="st8" d="M149.2,52.4l-25.7,12.4l11.1,22.5l25.7-12.4L149.2,52.4z"/>
<path class="st9" d="M134.6,88.1c-0.3,0-0.7-0.2-0.8-0.5l-11.1-22.5c-0.1-0.2-0.1-0.5,0-0.7c0.1-0.2,0.2-0.4,0.5-0.5l25.7-12.4
	c0.4-0.2,1,0,1.2,0.4l11.1,22.5c0.1,0.2,0.1,0.5,0,0.7c-0.1,0.2-0.2,0.4-0.5,0.5L135,88C134.8,88.1,134.7,88.1,134.6,88.1z
	 M124.7,65.2L135,86.1l24.1-11.6l-10.3-20.9L124.7,65.2z"/>
<path class="st8" d="M149.2,52.4l-25.7,12.4l-1.1-2.2c-0.2-0.3,0-0.7,0.3-0.8l24.6-11.8c0.3-0.2,0.7,0,0.8,0.3L149.2,52.4z"/>
<path class="st9" d="M123.5,65.6c-0.3,0-0.7-0.2-0.8-0.5l-1.1-2.3c-0.3-0.7,0-1.5,0.6-1.8L147,49c0.7-0.3,1.5,0,1.8,0.6L150,52
	c0.2,0.4,0,1-0.4,1.2l-25.7,12.4C123.7,65.6,123.6,65.6,123.5,65.6z M123.3,62.4l0.6,1.2L148,51.9l-0.6-1.2L123.3,62.4z"/>
<path class="st8" d="M172.8,56.5l-2.2-12.5l-28.2,4.9l4.4,24.6l15.9-2.8L172.8,56.5z"/>
<path class="st9" d="M146.8,74.4c-0.2,0-0.4-0.1-0.5-0.2c-0.2-0.1-0.3-0.3-0.4-0.6L141.5,49c0-0.2,0-0.5,0.1-0.7
	c0.1-0.2,0.3-0.3,0.6-0.4l28.2-4.9c0.2,0,0.5,0,0.7,0.1c0.2,0.1,0.3,0.3,0.4,0.6l2.2,12.5c0,0.2,0,0.5-0.1,0.7l-10.1,14.3
	c-0.1,0.2-0.3,0.3-0.6,0.4L147,74.4C146.9,74.4,146.9,74.4,146.8,74.4z M143.4,49.6l4.1,22.9l14.6-2.6l9.7-13.7l-2-11.3L143.4,49.6z
	"/>
<path class="st9" d="M162.7,70.7l-2.2-12.1l12.3-2.2L162.7,70.7z"/>
<path class="st9" d="M162.7,71.6c-0.1,0-0.1,0-0.2,0c-0.4-0.1-0.6-0.4-0.7-0.7l-2.2-12.1c-0.1-0.5,0.2-0.9,0.7-1l12.3-2.2
	c0.4-0.1,0.7,0.1,0.9,0.4c0.2,0.3,0.2,0.7,0,1l-10.1,14.3C163.3,71.5,163,71.6,162.7,71.6z M161.6,59.3l1.6,9.1l7.6-10.8L161.6,59.3
	z"/>
<path class="st8" d="M170.5,43.8l-28.2,4.9l-0.4-2.4c-0.1-0.3,0.2-0.7,0.5-0.7l26.9-4.7c0.3-0.1,0.7,0.2,0.7,0.5L170.5,43.8z"/>
<path class="st9" d="M142.4,49.7c-0.2,0-0.4-0.1-0.5-0.2c-0.2-0.1-0.3-0.3-0.4-0.6l-0.5-2.5c-0.1-0.4,0-0.7,0.2-1
	c0.2-0.3,0.5-0.5,0.9-0.6l27.2-4.8c0.7-0.1,1.5,0.4,1.6,1.1l0.5,2.6c0.1,0.5-0.2,0.9-0.7,1l-28.2,4.9
	C142.5,49.7,142.4,49.7,142.4,49.7z M142.9,46.5l0.2,1.3l26.4-4.6l-0.2-1.3L142.9,46.5z"/>
<path class="st10" d="M107.3,201.1l-2.5-0.4l2.4-13.7l2.5,0.4c2.1,0.4,3.6,2.4,3.2,4.5l-1.1,6.1C111.5,200,109.5,201.4,107.3,201.1z
	"/>
<path class="st7" d="M108.7,202.2c-0.2,0-0.5,0-0.7-0.1l-4.2-0.7l2.7-15.5l4.2,0.7c1,0.2,1.9,0.7,2.6,1.6c0.6,0.8,0.8,1.9,0.7,2.9
	l-1.4,7.8c-0.2,1-0.8,1.9-1.6,2.5C110.3,201.9,109.5,202.2,108.7,202.2z M108.3,200.4c0.6,0.1,1.1,0,1.6-0.4
	c0.5-0.3,0.8-0.8,0.9-1.4l1.4-7.8c0.1-0.6,0-1.1-0.4-1.6c-0.3-0.5-0.8-0.8-1.4-0.9L108,188l-2.1,11.9L108.3,200.4z"/>
<path class="st8" d="M102.9,202L80,198.1c-0.9-0.2-1.5-1-1.4-1.9l2.4-13.7c0.2-0.9,1-1.5,2-1.4l22.9,3.9c0.9,0.2,1.5,1,1.4,1.9
	l-2.4,13.7C104.7,201.6,103.8,202.2,102.9,202z"/>
<path class="st9" d="M103.5,203c-0.1,0-0.3,0-0.4,0l-23.6-4c-1.2-0.2-2-1.3-1.8-2.5l2.5-14.4c0.2-1.2,1.4-2,2.6-1.8l23.6,4
	c1.2,0.2,2,1.3,1.8,2.5l-2.5,14.4c-0.1,0.6-0.4,1.1-0.9,1.4C104.4,202.8,103.9,203,103.5,203z M82.3,181.9c-0.2,0-0.4,0.1-0.4,0.3
	l-2.5,14.4c0,0.2,0.1,0.4,0.3,0.5l23.6,4c0.1,0,0.3,0,0.3-0.1c0.1,0,0.1-0.1,0.2-0.3l2.5-14.4c0-0.2-0.1-0.4-0.3-0.5L82.3,181.9
	C82.4,181.9,82.3,181.9,82.3,181.9z"/>
</svg>
