<svg width="1266" height="660" viewBox="0 0 1266 660" fill="none" xmlns="http://www.w3.org/2000/svg">
<path d="M1253.38 525.601L1245.86 529.893L1236.58 520.389L1233.78 489.882L1249.99 487.736L1253.38 525.601Z" fill="#F9B995"/>
<path d="M1162.45 532.5L1144.61 522.075L1147.56 492.335H1165.25L1162.45 532.5Z" fill="#F9B995"/>
<path d="M1198.7 224.673C1196.05 274.955 1217.27 434.847 1221.69 492.335H1256.18C1248.07 431.168 1243.36 326.311 1243.8 270.203C1244.24 226.666 1237.9 210.263 1234.96 186.041L1205.63 186.194L1198.7 224.673Z" fill="#B1BD99"/>
<path d="M1167.31 186.501C1164.07 203.364 1152.87 263.458 1150.22 308.528C1146.53 369.542 1142.55 432.548 1137.25 492.335H1170.85C1177.63 363.869 1190.45 307.455 1200.32 252.88C1204.6 229.885 1206.95 213.175 1208.43 186.041L1167.31 186.501Z" fill="#B1BD99"/>
<path d="M1112.93 541.544C1113.67 542.157 1114.55 542.31 1115.44 542.31C1130.76 543.23 1146.24 543.23 1161.56 542.31C1163.04 542.157 1164.37 540.93 1164.51 539.397C1164.81 535.105 1164.81 530.659 1164.22 526.367C1164.07 525.754 1163.48 525.294 1162.89 525.6C1161.57 526.214 1160.09 526.673 1158.77 526.98C1156.85 527.287 1154.93 526.98 1153.46 525.754C1150.81 523.607 1150.07 519.008 1145.94 519.468C1144.62 519.622 1143.59 520.235 1142.55 521.155C1137.69 525.754 1131.8 529.433 1125.61 531.579C1123.25 532.346 1120.74 533.112 1118.53 534.032C1116.32 534.952 1109.54 538.784 1112.93 541.544Z" fill="#231F20"/>
<path d="M1203.56 541.544C1204.3 542.157 1205.18 542.31 1206.07 542.31C1221.4 543.23 1236.87 543.23 1252.2 542.31C1253.67 542.157 1255 540.93 1255.14 539.397C1255.44 535.105 1255.44 530.659 1254.85 526.367C1254.7 525.754 1254.11 525.294 1253.52 525.6C1252.2 526.214 1250.72 526.673 1249.4 526.98C1247.48 527.287 1245.56 526.98 1244.09 525.754C1241.44 523.607 1240.7 519.008 1236.58 519.468C1235.25 519.622 1234.22 520.235 1233.19 521.155C1228.32 525.754 1222.43 529.433 1216.24 531.579C1213.88 532.346 1211.37 533.112 1209.16 534.032C1206.95 534.952 1200.03 538.784 1203.56 541.544Z" fill="#231F20"/>
<path d="M1263.55 85.6288C1262.22 82.1028 1261.04 78.7302 1258.98 75.5109C1257.06 72.4449 1255 69.2256 1254.26 65.5463C1253.08 59.4143 1255.59 52.3625 1252.2 47.1502C1250.72 44.8507 1248.07 43.1644 1247.19 40.5583C1246.45 38.4121 1246.75 36.1126 1246.89 33.9664C1247.48 27.9876 1247.04 21.8556 1244.98 16.1835C1242.91 10.6646 1238.79 5.60568 1233.48 3.45947C1228.18 1.15996 1221.55 1.92648 1217.27 6.0656C1209.61 0.24017 1199.14 -1.59944 1190.01 1.46658C1180.87 4.37929 1173.21 11.891 1169.97 21.2424C1168.34 25.6881 1167.9 30.9003 1169.82 35.3461C1170.85 37.7989 1172.62 39.7918 1173.8 42.0913C1176.45 47.9168 1174.83 55.1219 1171 60.1808C1167.31 65.2397 1161.71 68.6124 1158.03 73.8246C1153.75 80.1099 1152.87 88.6948 1155.82 95.7466C1158.77 102.798 1165.4 108.011 1172.77 108.931L1250.14 111.383C1267.38 124.414 1268.26 98.3527 1263.55 85.6288Z" fill="#402840"/>
<path d="M1224.49 81.1824C1215.06 78.423 1219.92 62.7864 1221.1 50.829L1198.55 71.9844C1199.14 74.7438 1199.14 79.1895 1194.72 80.7225C1192.81 81.3357 1195.61 82.2555 1194.72 85.1682C1190.6 110.463 1206.51 127.632 1209.61 129.319C1212.7 131.005 1226.41 119.814 1226.7 116.748C1227.14 112.762 1227.73 91.7601 1229.35 88.2342C1231.12 84.7083 1226.41 84.7083 1224.49 81.1824Z" fill="#EFA884"/>
<path d="M1228.18 46.0772L1222.58 53.8954C1218.45 61.5603 1214.03 67.2324 1206.66 71.2181C1204.6 72.2912 1202.24 73.3643 1199.89 73.0577C1196.79 72.5978 1194.43 70.2983 1192.52 67.6923C1185.74 58.801 1182.2 47.1503 1182.94 35.8062C1186.33 36.2661 1189.86 35.9595 1193.11 34.7331C1197.67 33.0468 1201.51 29.521 1203.86 25.2286C1203.13 29.2144 1204.01 34.2732 1206.22 37.3392C1208.73 40.8651 1212.71 42.8579 1216.83 42.8579C1219.04 42.8579 1221.25 42.0914 1223.46 42.5513C1225.38 42.8579 1227.15 44.2376 1228.18 46.0772Z" fill="#F9B995"/>
<path d="M1219.18 44.85C1219.04 43.1637 1219.92 41.3241 1221.25 40.4043C1222.57 39.4845 1224.49 39.4845 1225.96 40.251C1227.58 41.1708 1228.47 43.0104 1228.62 44.85C1228.91 47.4561 1228.03 50.2155 1226.26 52.0551C1224.49 53.8947 1222.28 55.581 1219.77 55.2744L1219.18 44.85Z" fill="#F9B995"/>
<path d="M1197.96 66.4665C1198.7 66.7731 1199.44 67.0797 1200.17 66.7731C1200.76 66.4665 1201.2 65.8533 1201.65 65.3934C1202.38 64.167 1203.12 63.0939 1203.86 61.8675C1203.42 61.4076 1203.12 60.9477 1202.53 60.6411C1202.09 60.3346 1201.35 60.1813 1200.91 60.3346C1200.32 60.4879 1200.03 60.9477 1199.58 61.4076C1198.85 62.0208 1197.96 62.4807 1196.93 62.634C1196.34 62.634 1194.72 62.1741 1194.43 62.4807C1193.39 63.8604 1197.23 66.1599 1197.96 66.4665Z" fill="#EFA884"/>
<path d="M1170.11 159.518L1167.31 186.346L1235.1 185.886C1233.77 176.535 1234.8 123.646 1237.46 114.755L1250.28 111.382C1249.69 105.863 1249.1 100.191 1248.51 94.6724C1248.07 90.8399 1247.62 86.7008 1244.82 84.248C1242.17 81.6419 1238.19 81.4886 1234.51 81.3353C1231.12 81.3353 1227.73 81.182 1224.34 81.182C1220.95 83.7881 1217.86 87.0074 1215.35 90.5333C1213.29 93.446 1211.22 96.8187 1207.98 98.0451C1203.41 99.7314 1198.4 96.2054 1196.34 91.7597C1194.87 88.3871 1194.57 84.5546 1194.72 80.7221C1192.36 80.7221 1190 80.5688 1187.5 80.5688C1184.25 80.5688 1180.87 80.4155 1177.92 81.9485C1173.5 84.248 1171.14 89.307 1169.22 94.2126C1168.04 97.1253 1166.28 102.031 1165.1 104.944L1178.95 108.469C1178.36 110.769 1178.21 111.076 1177.62 113.375H1161.26L1160.97 113.988L1170.11 159.518Z" fill="#FFCBB3"/>
<path d="M1161.56 113.224H1177.92C1178.51 110.924 1178.51 110.618 1179.25 108.318L1165.4 104.792C1163.92 108.318 1163.04 109.698 1161.56 113.224Z" fill="#F9B995"/>
<path d="M1196.49 91.7617C1198.56 96.3607 1203.57 99.7333 1208.13 98.047C1211.38 96.8206 1213.44 93.448 1215.5 90.5352C1218.01 87.0093 1221.1 83.79 1224.49 81.1839C1214.62 81.0306 1204.74 80.8773 1194.87 80.5707C1194.72 84.4032 1195.02 88.2357 1196.49 91.7617Z" fill="#EFA884"/>
<path d="M1132.09 116.747C1135.34 131.157 1140.79 144.955 1148.16 157.525C1148.89 158.752 1150.07 159.365 1151.4 159.365C1170.56 159.518 1189.72 159.365 1208.73 159.365H1215.95C1218.31 159.365 1220.07 157.065 1219.63 154.612C1217.57 144.955 1215.65 135.143 1213.59 125.485C1212.85 122.113 1212.85 115.674 1209.61 113.681C1206.52 111.688 1200.18 113.068 1196.64 113.068C1191.93 113.068 1147.71 113.068 1134.75 113.068C1133.12 113.221 1131.65 114.908 1132.09 116.747Z" fill="#251A2C"/>
<path d="M1141.52 150.627C1140.49 150.474 1139.75 149.707 1139.02 148.941C1134.6 144.189 1132.53 137.29 1133.56 130.698C1135.63 129.932 1137.84 129.012 1139.9 129.932C1141.23 130.545 1142.11 131.771 1142.85 132.998C1144.62 135.604 1149.19 140.356 1148.6 143.575C1148.01 145.875 1144.03 151.087 1141.52 150.627Z" fill="#F9B995"/>
<path d="M1217.42 134.992C1225.08 143.73 1233.04 155.074 1240.7 163.659C1243.21 166.571 1246.3 168.411 1249.25 168.258C1251.75 168.104 1254.11 167.185 1254.7 164.732C1255.29 162.279 1255.44 162.126 1255.14 159.52C1253.52 143.423 1251.9 127.48 1250.13 111.383L1237.31 114.756C1238.64 124.107 1239.67 132.232 1241.14 142.81C1233.77 136.065 1226.41 129.32 1219.04 122.574L1217.42 134.992Z" fill="#F9B995"/>
<path d="M1208.58 108.317L1209.17 113.682C1209.17 113.682 1197.23 104.484 1192.81 104.944L1190.6 105.404C1189.42 105.711 1188.39 106.171 1187.5 107.09C1187.36 107.244 1187.36 107.244 1187.36 107.244C1187.21 107.55 1187.06 108.317 1188.09 109.543C1197.82 119.661 1209.32 123.953 1217.27 135.144L1219.04 122.88C1218.16 122.114 1216.09 119.048 1215.65 117.975C1213.88 113.836 1211.82 109.696 1208.87 106.324C1208.28 106.477 1208.58 108.317 1208.58 108.317Z" fill="#F9B995"/>
<path d="M182.324 87.886L46.6958 87.6271L46.3721 258.602L182 258.861L317.628 259.056L317.887 88.0802L182.324 87.886Z" fill="white"/>
<path d="M52.4575 57.912C49.2853 57.912 46.7605 60.4368 46.7605 63.609V72.7372V87.6271L317.887 88.0803V73.1904V64.0622C317.887 60.89 315.362 58.3652 312.19 58.3652L52.4575 57.912Z" fill="#D2D6E3"/>
<path d="M64.758 76.4274C63.7869 76.4274 62.8806 76.0389 62.1684 75.3268C61.4563 74.6147 61.0679 73.7083 61.0679 72.7372C61.0679 70.7303 62.6863 69.0471 64.758 69.0471C65.7291 69.0471 66.6354 69.4356 67.3475 70.1477C68.0597 70.8598 68.4481 71.7662 68.4481 72.7372C68.3834 74.8089 66.7649 76.4274 64.758 76.4274ZM64.758 69.7592C63.0748 69.7592 61.7153 71.1188 61.7153 72.802C61.7153 73.5788 62.039 74.3557 62.6216 74.9384C63.2043 75.521 63.9811 75.8447 64.758 75.8447C66.4412 75.8447 67.8007 74.4852 67.8007 72.802C67.8007 72.0251 67.477 71.2482 66.8944 70.6656C66.3117 70.0829 65.5349 69.7592 64.758 69.7592Z" fill="#131F4B"/>
<path d="M78.1589 76.4921C77.1878 76.4921 76.2814 76.1036 75.5693 75.3915C74.8572 74.6794 74.4688 73.773 74.4688 72.8019C74.4688 70.795 76.0872 69.1118 78.1589 69.1118C79.13 69.1118 80.0363 69.5003 80.7484 70.2124C81.4606 70.9245 81.849 71.8309 81.849 72.8019C81.849 73.773 81.4606 74.6794 80.7484 75.3915C80.0363 76.1036 79.13 76.4921 78.1589 76.4921ZM78.1589 69.7592C76.4757 69.7592 75.1161 71.1187 75.1161 72.8019C75.1161 74.4851 76.4757 75.8447 78.1589 75.8447C79.8421 75.8447 81.2016 74.4851 81.2016 72.8019C81.1369 71.1187 79.8421 69.7592 78.1589 69.7592Z" fill="#131F4B"/>
<path d="M91.56 76.4921C91.56 76.4921 91.4952 76.4921 91.56 76.4921C89.5531 76.4921 87.8699 74.8088 87.8699 72.8019C87.8699 71.8309 88.2583 70.9245 88.9704 70.2124C89.6826 69.5003 90.5889 69.1118 91.56 69.1118C93.5669 69.1118 95.2501 70.795 95.2501 72.8019C95.2501 73.773 94.8617 74.6794 94.1495 75.3915C93.4374 76.1036 92.5311 76.4921 91.56 76.4921ZM91.56 69.8239C90.7831 69.8239 90.0063 70.1476 89.4236 70.7303C88.841 71.3129 88.5173 72.0898 88.5173 72.8667C88.5173 74.5499 89.8768 75.9094 91.56 75.9094C93.2432 75.9094 94.6027 74.5499 94.6027 72.8667C94.538 71.1835 93.1785 69.8239 91.56 69.8239Z" fill="#131F4B"/>
<path d="M66.3249 160.613L66.3237 161.26L92.543 161.306L92.5441 160.658L66.3249 160.613Z" fill="#231F20"/>
<path d="M66.2895 167.948L66.2883 168.595L118.662 168.686L118.663 168.039L66.2895 167.948Z" fill="#231F20"/>
<path d="M66.3254 175.395L66.3242 176.043L118.698 176.134L118.699 175.487L66.3254 175.395Z" fill="#231F20"/>
<path d="M66.2968 182.778L66.2957 183.426L118.669 183.517L118.671 182.869L66.2968 182.778Z" fill="#231F20"/>
<path d="M111.046 118.831C116.225 129.513 112.665 140.066 105.22 145.763C101.659 148.482 97.2567 150.035 92.4661 150.035C87.6754 150.035 83.2731 148.417 79.7125 145.698C74.7276 141.878 71.4907 135.858 71.5554 129.06C71.5554 114.17 87.1575 102.906 102.889 110.674C106.514 112.357 109.363 115.271 111.046 118.831Z" fill="#FBC049"/>
<path d="M98.6301 131.38C100.882 128.026 99.9897 123.482 96.6359 121.229C93.2821 118.977 88.7373 119.87 86.4849 123.223C84.2324 126.577 85.1253 131.122 88.4791 133.374C91.8329 135.627 96.3776 134.734 98.6301 131.38Z" fill="#FEF9F3"/>
<path d="M105.284 145.763C101.724 148.482 97.3216 150.035 92.5309 150.035C87.7402 150.035 83.338 148.417 79.7773 145.698C81.59 140.389 86.6397 136.57 92.5309 136.57C98.4869 136.634 103.472 140.454 105.284 145.763Z" fill="#FEF9F3"/>
<path d="M155.962 160.769L155.96 161.416L182.18 161.462L182.181 160.814L155.962 160.769Z" fill="#231F20"/>
<path d="M155.991 168.104L155.99 168.751L208.363 168.842L208.365 168.195L155.991 168.104Z" fill="#231F20"/>
<path d="M155.962 175.551L155.961 176.199L208.335 176.291L208.336 175.643L155.962 175.551Z" fill="#231F20"/>
<path d="M155.934 182.935L155.933 183.582L208.306 183.673L208.307 183.026L155.934 182.935Z" fill="#231F20"/>
<path d="M200.709 118.961C205.889 129.643 202.328 140.195 194.883 145.892C191.322 148.611 186.92 150.165 182.129 150.165C177.339 150.165 172.936 148.546 169.376 145.827C164.391 142.008 161.154 135.987 161.219 129.19C161.219 114.3 176.821 103.035 192.552 110.804C196.178 112.552 199.026 115.465 200.709 118.961Z" fill="#4070BF"/>
<path d="M189.574 127.506C189.574 131.585 186.273 134.822 182.259 134.822C178.18 134.822 174.943 131.52 174.943 127.506C174.943 123.428 178.245 120.191 182.259 120.191C186.273 120.191 189.574 123.428 189.574 127.506Z" fill="#FEF9F3"/>
<path d="M194.948 145.892C191.387 148.611 186.985 150.165 182.194 150.165C177.404 150.165 173.001 148.546 169.441 145.827C171.253 140.519 176.303 136.699 182.194 136.699C188.15 136.764 193.135 140.584 194.948 145.892Z" fill="#FEF9F3"/>
<path d="M245.663 160.925L245.662 161.572L271.881 161.618L271.882 160.971L245.663 160.925Z" fill="#231F20"/>
<path d="M245.628 168.26L245.627 168.907L298.001 168.998L298.002 168.351L245.628 168.26Z" fill="#231F20"/>
<path d="M245.599 175.707L245.598 176.355L297.972 176.446L297.973 175.799L245.599 175.707Z" fill="#231F20"/>
<path d="M245.635 183.091L245.634 183.738L298.008 183.829L298.009 183.182L245.635 183.091Z" fill="#231F20"/>
<path d="M290.373 119.155C295.552 129.837 291.992 140.389 284.547 146.086C280.986 148.805 276.584 150.359 271.793 150.359C267.002 150.359 262.6 148.741 259.039 146.022C254.055 142.202 250.818 136.181 250.882 129.384C250.882 114.494 266.484 103.229 282.216 110.998C285.841 112.681 288.69 115.594 290.373 119.155Z" fill="#F89D82"/>
<path d="M279.238 127.636C279.238 131.714 275.936 134.951 271.922 134.951C267.844 134.951 264.607 131.65 264.607 127.636C264.607 123.557 267.909 120.32 271.922 120.32C275.936 120.32 279.238 123.622 279.238 127.636Z" fill="#FEF9F3"/>
<path d="M284.611 146.086C281.051 148.805 276.648 150.359 271.858 150.359C267.067 150.359 262.665 148.741 259.104 146.022C260.917 140.713 265.966 136.893 271.858 136.893C277.814 136.893 282.798 140.778 284.611 146.086Z" fill="#FEF9F3"/>
<path d="M66.2687 204.734L66.1748 258.661L297.875 259.064L297.969 205.137L66.2687 204.734Z" fill="#F1E9EB"/>
<path d="M106.476 153.723C106.476 153.723 128.633 188.852 100.821 197.044C70.1059 205.93 106.476 153.723 106.476 153.723Z" fill="#F9B995"/>
<path d="M219.249 176.076C229.334 169.828 237.739 164.274 247.366 160.248C248.436 159.831 249.506 160.942 248.741 161.775C246.144 164.691 241.712 166.912 236.822 169.967C238.35 169.55 239.726 170.939 241.406 171.077C242.629 171.216 243.699 171.772 244.31 172.605C245.532 174.41 243.851 175.798 242.629 177.187C242.323 177.603 242.018 178.02 241.712 178.297C239.573 180.797 236.517 182.463 233.002 182.741C231.627 182.879 230.098 182.602 228.723 182.602C227.348 182.602 224.75 182.463 223.222 183.712L219.249 176.076Z" fill="#F9B995"/>
<path d="M222.917 174.548C221.694 174.826 220.472 175.381 219.097 175.936C200.301 185.239 185.172 189.683 167.752 194.82C160.57 196.903 153.082 199.124 144.83 201.901L140.246 203.429C131.841 206.067 124.506 208.289 117.019 210.094C105.405 212.871 95.0138 214.815 81.7192 217.175C78.5101 217.73 75.1483 218.286 71.6336 218.98C71.328 218.98 71.0224 219.119 70.7168 219.119C63.6874 220.785 59.256 227.311 60.6313 233.837C61.2425 236.753 63.0762 239.252 65.9796 240.918C69.3415 242.862 73.773 243.418 77.5933 242.446C77.7461 242.446 77.8989 242.307 78.0517 242.307C106.78 234.254 116.866 229.533 138.871 219.258C140.857 218.286 142.996 217.314 145.289 216.203C146.053 215.787 146.97 215.509 147.886 215.231C178.754 205.373 194.035 198.291 221.847 184.545C227.501 181.768 229.488 178.019 228.571 175.936C228.112 174.409 225.973 173.854 222.917 174.548Z" fill="#F9B995"/>
<path d="M113.353 322.838L108.616 324.921C108.616 324.921 122.98 329.919 125.119 333.668L125.883 335.612C126.342 336.723 126.495 337.833 126.189 338.944C126.189 339.083 126.189 339.083 126.189 339.222C126.036 339.361 125.425 339.638 123.897 339.638C112.895 339.916 104.796 336.723 95.1685 332.418L95.6269 321.449C96.8494 321.727 100.517 322.005 101.739 321.727C106.171 321.033 110.908 320.755 115.34 321.449C115.034 322.282 113.353 322.838 113.353 322.838Z" fill="#F9B995"/>
<path d="M14.4792 641.497L22.8844 645.663L34.193 635.527L35.4156 609.979L17.3828 607.341L14.4792 641.497Z" fill="#F9B995"/>
<path d="M78.5093 658.299C77.5924 658.854 76.5227 659.132 75.4531 659.271C55.8935 660.243 36.3339 660.243 16.7743 659.271C14.7878 659.132 13.2597 657.743 13.1069 655.938C12.6485 651.218 12.8012 646.358 13.4125 641.637C13.5653 640.804 14.4822 640.387 15.2462 640.665C16.9271 641.359 18.608 641.915 20.4417 642.054C22.7339 642.331 25.3316 642.054 27.3181 640.804C30.6799 638.444 31.7496 633.306 36.9452 633.862C38.6261 634 40.0013 634.834 41.2238 635.805C47.489 640.943 54.8238 644.969 62.9227 647.469C65.9789 648.441 69.0351 649.135 71.9385 650.246C74.2306 651.079 82.9407 655.383 78.5093 658.299Z" fill="#231F20"/>
<path d="M106.631 648.022L125.274 638.58L122.218 611.505H103.881L106.631 648.022Z" fill="#F9B995"/>
<path d="M82.788 330.058L126.187 330.614C130.007 376.989 129.548 417.672 129.09 457.105C128.479 508.063 128.02 556.243 136.425 611.505H100.667C96.0826 559.576 78.662 412.674 81.4126 367.131L82.788 330.058Z" fill="#C57462"/>
<path d="M35.2673 329.504L87.9872 330.199C84.167 354.497 80.1939 373.797 75.9151 394.624C65.524 444.054 54.8271 495.151 47.9506 611.506H12.9568C18.6108 557.355 22.5839 500.288 26.4042 445.026C29.3076 404.344 31.9054 365.744 35.2673 329.504Z" fill="#C57462"/>
<path d="M170.349 658.299C169.432 658.854 168.362 659.132 167.293 659.271C147.733 660.243 128.173 660.243 108.613 659.271C106.627 659.132 105.098 657.744 104.946 655.938C104.487 651.079 104.64 646.219 105.404 641.498C105.557 640.804 106.321 640.387 107.085 640.665C108.766 641.359 110.6 641.915 112.433 642.192C114.726 642.47 117.323 642.192 119.31 640.943C122.672 638.582 123.741 633.445 128.937 634C130.618 634.139 131.993 634.972 133.216 635.944C139.481 641.082 146.816 645.108 154.915 647.608C157.971 648.579 161.027 649.274 163.931 650.385C166.07 651.079 174.78 655.383 170.349 658.299Z" fill="#231F20"/>
<path d="M67.514 211.761C56.6643 211.622 46.7314 212.733 41.6886 216.482C33.5895 222.452 42.6055 242.308 44.2864 248.278C46.8843 257.442 47.0371 266.884 47.0371 276.464C47.0371 288.128 39.3964 304.512 35.1177 329.366L126.194 330.476C106.176 284.518 116.567 275.492 122.221 250.5C125.277 237.17 119.012 218.148 115.192 215.51C106.023 209.123 67.514 211.761 67.514 211.761Z" fill="#F4E9E0"/>
<path d="M211.148 306.731C213.44 303.26 213.134 298.678 210.078 295.623C205.952 291.319 199.84 287.57 195.408 284.377C186.698 278.129 177.988 271.742 169.277 265.493C166.527 263.55 160.873 257.44 157.205 257.579C152.774 257.579 150.176 263.966 148.189 266.882C136.27 284.238 135.965 285.21 124.045 302.705C117.474 312.285 111.056 321.727 104.485 331.307C101.735 335.334 98.8313 339.777 99.2898 344.498C99.901 350.468 105.555 354.633 110.751 358.382C122.67 366.713 134.589 375.044 146.356 383.236C146.356 383.236 146.356 383.236 146.508 383.236C151.398 386.707 158.428 385.458 161.79 380.598L211.148 306.731Z" fill="#251A2C"/>
<path d="M157.512 340.613L159.193 342.002C164.083 345.889 168.973 349.916 174.474 353.11C176.766 354.359 179.67 355.748 181.962 355.053C182.726 354.776 183.337 354.359 183.949 353.665C184.865 352.693 185.629 351.443 186.241 350.333L188.38 346.723L190.825 342.557C191.589 341.169 192.506 339.641 192.048 338.53C191.589 337.559 189.908 336.725 188.38 336.031H188.227C186.852 335.476 182.573 333.532 182.268 329.783C181.962 327.423 183.337 325.618 184.407 324.09C184.56 323.813 184.713 323.674 184.865 323.396C185.629 322.424 185.629 321.591 185.629 321.313C185.629 321.313 185.171 321.036 183.032 321.73C183.032 321.73 165 330.2 159.04 325.479L151.094 336.031C152.622 337.142 156.595 339.919 157.512 340.613Z" fill="#F9B995"/>
<path d="M159.197 337.001C156.905 337.834 153.39 338.112 151.098 336.168C150.639 335.751 108.158 300.9 103.115 285.488C100.517 277.296 94.8633 253.414 96.3914 229.393C96.8498 223.701 102.809 219.674 109.075 221.062C113.659 222.173 116.868 226.061 116.715 230.365C115.951 244.111 116.715 267.854 119.313 275.491C129.093 303.955 149.417 318.673 160.267 326.587C165.309 330.197 165.004 332.002 162.864 334.641C161.948 335.612 160.725 336.446 159.197 337.001Z" fill="#F9B995"/>
<path d="M106.629 175.798C105.865 171.91 107.24 168.022 107.851 164.135C108.921 157.609 107.393 150.25 102.197 145.668C95.7793 139.975 85.6937 139.558 76.6779 140.253C70.5654 140.808 64.1473 141.78 59.8686 145.668C52.6865 151.916 53.909 163.163 47.1853 169.827C39.3919 177.464 24.1108 176.214 17.8455 184.823C13.8724 190.377 15.2477 197.736 14.0252 204.262C12.0387 213.843 4.09247 221.479 1.18905 230.782C-1.25593 238.558 0.119412 247.166 4.85656 253.97C7.14873 257.302 10.205 260.218 13.2612 263.134C17.2343 266.883 21.2074 270.632 25.1804 274.519C29.0007 278.13 33.1266 281.879 38.3222 283.128C44.8931 284.655 52.0752 281.878 56.6596 277.296C61.2439 272.714 63.6889 266.744 65.217 260.773C66.7451 254.803 67.5092 248.555 69.4957 242.723C73.0104 231.754 82.7903 233.698 91.1949 225.367C95.4737 221.063 97.7658 205.512 102.503 201.624C105.559 199.125 109.838 196.903 111.06 193.293C113.2 186.628 107.851 181.907 106.629 175.798Z" fill="#402840"/>
</svg>
