<svg width="40" height="40" viewBox="0 0 40 40" fill="none" xmlns="http://www.w3.org/2000/svg">
<path d="M19.9896 0C8.97235 0 0 8.97235 0 19.9896C0 31.0068 8.97235 39.9791 19.9896 39.9791C31.0068 39.9791 39.9791 31.0068 39.9791 19.9896C39.9791 8.97235 31.0276 0 19.9896 0ZM31.4867 16.6093L18.9254 29.1706C18.3829 29.7131 17.6734 30.0052 16.9223 30.0052C16.1711 30.0052 15.4617 29.7131 14.9191 29.1706L8.5133 22.7647C7.97079 22.2222 7.67866 21.5128 7.67866 20.7616C7.67866 20.0104 7.97079 19.301 8.5133 18.7585C9.05582 18.216 9.76526 17.9238 10.5164 17.9238C11.2676 17.9238 11.977 18.216 12.5196 18.7585L16.9223 23.1612L27.4804 12.603C28.0229 12.0605 28.7324 11.7684 29.4836 11.7684C30.2347 11.7684 30.9442 12.0605 31.4867 12.603C32.5717 13.7298 32.5717 15.5243 31.4867 16.6093Z" fill="#30C06D"/>
</svg>
