<svg width="249" height="520" viewBox="0 0 249 520" fill="none" xmlns="http://www.w3.org/2000/svg">
<path d="M106.476 13.7225C106.476 13.7225 128.633 48.8516 100.821 57.0437C70.1059 65.9301 106.476 13.7225 106.476 13.7225Z" fill="#F9B995"/>
<path d="M219.249 36.0759C229.334 29.8279 237.739 24.2741 247.366 20.2475C248.436 19.831 249.506 20.9418 248.741 21.7748C246.144 24.6906 241.712 26.9121 236.822 29.9667C238.35 29.5502 239.726 30.9386 241.406 31.0775C242.629 31.2163 243.699 31.7717 244.31 32.6048C245.532 34.4098 243.851 35.7982 242.629 37.1867C242.323 37.6032 242.018 38.0198 241.712 38.2975C239.573 40.7967 236.517 42.4628 233.002 42.7405C231.627 42.8794 230.098 42.6017 228.723 42.6017C227.348 42.6017 224.75 42.4628 223.222 43.7124L219.249 36.0759Z" fill="#F9B995"/>
<path d="M222.917 34.548C221.694 34.8257 220.472 35.3811 219.097 35.9365C200.301 45.2394 185.172 49.6827 167.752 54.8201C160.57 56.9029 153.082 59.1245 144.83 61.9015L140.246 63.4288C131.841 66.067 124.506 68.2886 117.019 70.0937C105.405 72.8707 95.0138 74.8146 81.7192 77.175C78.5101 77.7304 75.1483 78.2858 71.6336 78.9801C71.328 78.9801 71.0224 79.1189 70.7168 79.1189C63.6874 80.7851 59.256 87.3111 60.6313 93.8371C61.2425 96.7529 63.0762 99.2522 65.9796 100.918C69.3415 102.862 73.773 103.418 77.5933 102.446C77.7461 102.446 77.8989 102.307 78.0517 102.307C106.78 94.2536 116.866 89.5327 138.871 79.2578C140.857 78.2858 142.996 77.3139 145.289 76.2031C146.053 75.7865 146.97 75.5088 147.886 75.2311C178.754 65.3727 194.035 58.2914 221.847 44.5452C227.501 41.7682 229.488 38.0192 228.571 35.9365C228.112 34.4091 225.973 33.8537 222.917 34.548Z" fill="#F9B995"/>
<path d="M113.353 182.838L108.616 184.921C108.616 184.921 122.98 189.919 125.119 193.668L125.883 195.612C126.342 196.723 126.495 197.833 126.189 198.944C126.189 199.083 126.189 199.083 126.189 199.222C126.036 199.361 125.425 199.638 123.897 199.638C112.895 199.916 104.796 196.723 95.1685 192.418L95.6269 181.449C96.8494 181.727 100.517 182.005 101.739 181.727C106.171 181.033 110.908 180.755 115.34 181.449C115.034 182.282 113.353 182.838 113.353 182.838Z" fill="#F9B995"/>
<path d="M14.4792 501.497L22.8844 505.663L34.193 495.527L35.4156 469.979L17.3828 467.341L14.4792 501.497Z" fill="#F9B995"/>
<path d="M78.5093 518.299C77.5924 518.854 76.5227 519.132 75.4531 519.271C55.8935 520.243 36.3339 520.243 16.7743 519.271C14.7878 519.132 13.2597 517.743 13.1069 515.938C12.6485 511.218 12.8012 506.358 13.4125 501.637C13.5653 500.804 14.4822 500.387 15.2462 500.665C16.9271 501.359 18.608 501.915 20.4417 502.054C22.7339 502.331 25.3316 502.054 27.3181 500.804C30.6799 498.444 31.7496 493.306 36.9452 493.862C38.6261 494 40.0013 494.834 41.2238 495.805C47.489 500.943 54.8238 504.969 62.9227 507.469C65.9789 508.441 69.0351 509.135 71.9385 510.246C74.2306 511.079 82.9407 515.383 78.5093 518.299Z" fill="#231F20"/>
<path d="M106.631 508.022L125.274 498.58L122.218 471.505H103.881L106.631 508.022Z" fill="#F9B995"/>
<path d="M82.788 190.058L126.187 190.614C130.007 236.989 129.548 277.672 129.09 317.105C128.479 368.063 128.02 416.243 136.425 471.505H100.667C96.0826 419.576 78.662 272.674 81.4126 227.131L82.788 190.058Z" fill="#C57462"/>
<path d="M35.2673 189.504L87.9872 190.199C84.167 214.497 80.1939 233.797 75.9151 254.624C65.524 304.054 54.8271 355.151 47.9506 471.506H12.9568C18.6108 417.355 22.5839 360.288 26.4042 305.026C29.3076 264.344 31.9054 225.744 35.2673 189.504Z" fill="#C57462"/>
<path d="M170.349 518.299C169.432 518.854 168.362 519.132 167.293 519.271C147.733 520.243 128.173 520.243 108.613 519.271C106.627 519.132 105.098 517.744 104.946 515.938C104.487 511.079 104.64 506.219 105.404 501.498C105.557 500.804 106.321 500.387 107.085 500.665C108.766 501.359 110.6 501.915 112.433 502.192C114.726 502.47 117.323 502.192 119.31 500.943C122.672 498.582 123.741 493.445 128.937 494C130.618 494.139 131.993 494.972 133.216 495.944C139.481 501.082 146.816 505.108 154.915 507.608C157.971 508.579 161.027 509.274 163.931 510.385C166.07 511.079 174.78 515.383 170.349 518.299Z" fill="#231F20"/>
<path d="M67.514 71.761C56.6643 71.6221 46.7314 72.7329 41.6886 76.4818C33.5895 82.4523 42.6055 102.308 44.2864 108.278C46.8843 117.442 47.0371 126.884 47.0371 136.464C47.0371 148.128 39.3964 164.512 35.1177 189.366L126.194 190.476C106.176 144.518 116.567 135.492 122.221 110.5C125.277 97.1702 119.012 78.148 115.192 75.5099C106.023 69.1228 67.514 71.761 67.514 71.761Z" fill="#F4E9E0"/>
<path d="M211.148 166.731C213.44 163.26 213.134 158.678 210.078 155.623C205.952 151.319 199.84 147.57 195.408 144.377C186.698 138.129 177.988 131.742 169.277 125.493C166.527 123.55 160.873 117.44 157.205 117.579C152.774 117.579 150.176 123.966 148.189 126.882C136.27 144.238 135.965 145.21 124.045 162.705C117.474 172.285 111.056 181.727 104.485 191.307C101.735 195.334 98.8313 199.777 99.2898 204.498C99.901 210.468 105.555 214.633 110.751 218.382C122.67 226.713 134.589 235.044 146.356 243.236C146.356 243.236 146.356 243.236 146.508 243.236C151.398 246.707 158.428 245.458 161.79 240.598L211.148 166.731Z" fill="#251A2C"/>
<path d="M157.512 200.613L159.193 202.002C164.083 205.889 168.973 209.916 174.474 213.11C176.766 214.359 179.67 215.748 181.962 215.053C182.726 214.776 183.337 214.359 183.949 213.665C184.865 212.693 185.629 211.443 186.241 210.333L188.38 206.723L190.825 202.557C191.589 201.169 192.506 199.641 192.048 198.53C191.589 197.559 189.908 196.725 188.38 196.031H188.227C186.852 195.476 182.573 193.532 182.268 189.783C181.962 187.423 183.337 185.618 184.407 184.09C184.56 183.813 184.713 183.674 184.865 183.396C185.629 182.424 185.629 181.591 185.629 181.313C185.629 181.313 185.171 181.036 183.032 181.73C183.032 181.73 165 190.2 159.04 185.479L151.094 196.031C152.622 197.142 156.595 199.919 157.512 200.613Z" fill="#F9B995"/>
<path d="M159.197 197.001C156.905 197.834 153.39 198.112 151.098 196.168C150.639 195.751 108.158 160.9 103.115 145.488C100.517 137.296 94.8633 113.414 96.3914 89.3934C96.8498 83.7006 102.809 79.674 109.075 81.0625C113.659 82.1733 116.868 86.061 116.715 90.3653C115.951 104.111 116.715 127.854 119.313 135.491C129.093 163.955 149.417 178.673 160.267 186.587C165.309 190.197 165.004 192.002 162.864 194.641C161.948 195.612 160.725 196.446 159.197 197.001Z" fill="#F9B995"/>
<path d="M106.629 35.7979C105.865 31.9101 107.24 28.0223 107.851 24.1346C108.921 17.6087 107.393 10.2497 102.197 5.66769C95.7793 -0.0251201 85.6937 -0.44168 76.6779 0.252565C70.5654 0.80796 64.1473 1.77992 59.8686 5.66769C52.6865 11.9159 53.909 23.1626 47.1853 29.8274C39.3919 37.4641 24.1108 36.2145 17.8455 44.8231C13.8724 50.377 15.2477 57.736 14.0252 64.2619C12.0387 73.8425 4.09247 81.4792 1.18905 90.7821C-1.25593 98.5576 0.119412 107.166 4.85656 113.97C7.14873 117.302 10.205 120.218 13.2612 123.134C17.2343 126.883 21.2074 130.632 25.1804 134.519C29.0007 138.13 33.1266 141.879 38.3222 143.128C44.8931 144.655 52.0752 141.878 56.6596 137.296C61.2439 132.714 63.6889 126.744 65.217 120.773C66.7451 114.803 67.5092 108.555 69.4957 102.723C73.0104 91.754 82.7903 93.6979 91.1949 85.367C95.4737 81.0627 97.7658 65.5116 102.503 61.6238C105.559 59.1245 109.838 56.9029 111.06 53.2929C113.2 46.6281 107.851 41.9073 106.629 35.7979Z" fill="#402840"/>
</svg>
