<svg width="36" height="36" viewBox="0 0 36 36" fill="none" xmlns="http://www.w3.org/2000/svg">
<g clip-path="url(#clip0)">
<path d="M31.5122 0.666626H5.26221C2.84939 0.666626 0.887207 2.609 0.887207 4.99746V30.9825C0.887207 33.3709 2.84939 35.3133 5.26221 35.3133H31.5122C33.925 35.3133 35.8872 33.3709 35.8872 30.9825V4.99746C35.8872 2.609 33.925 0.666626 31.5122 0.666626Z" fill="#1976D2"/>
<path d="M30.4185 17.9899H24.9497V13.6591C24.9497 12.4638 25.9297 12.5764 27.1372 12.5764H29.3247V7.16284H24.9497C21.325 7.16284 18.3872 10.071 18.3872 13.6591V17.9899H14.0122V23.4035H18.3872V35.3133H24.9497V23.4035H28.231L30.4185 17.9899Z" fill="#FAFAFA"/>
</g>
<defs>
<clipPath id="clip0">
<rect width="35" height="34.6467" fill="white" transform="translate(0.887207 0.666626)"/>
</clipPath>
</defs>
</svg>
