<svg width="500" height="500" viewBox="0 0 500 500" fill="none" xmlns="http://www.w3.org/2000/svg">
<g clip-path="url(#clip0)">
<path d="M415.7 428.2H419.1L426.6 417.8V411C426.6 411 431.9 410.7 431.2 419.6C430.5 428.5 431.2 426.2 431.2 426.2C431.2 426.2 442.4 426.2 443.3 427.2C444 427.9 444.3 439 444.4 445.1C444.5 448.1 442.6 451 439.8 451.7C439.4 451.8 439 451.9 438.6 451.9C435.8 451.9 421.5 449.6 421.5 449.6H415.6L415.7 428.2Z" fill="#E0E0E0"/>
<path d="M406 426.4L408 449.7H413.9V426.8L406 426.4Z" fill="#E0E0E0"/>
<path d="M241.2 77.2L255.9 98.2C257.5 100.5 260.9 100.4 262.5 98.1L276.7 76.2L241.2 77.2Z" fill="#E0E0E0"/>
<path d="M278.5 88.9H237.2C230.8 88.9 225.6 83.7 225.6 77.3V53.6C225.6 47.2 230.8 42 237.2 42H278.5C284.9 42 290.1 47.2 290.1 53.6V77.3C290 83.7 284.9 88.9 278.5 88.9Z" fill="#E0E0E0"/>
<path d="M270.5 61.2C268.4 57.4 265 56.8 262.7 57.7C260.2 58.6 258.9 61.2 258.9 61.2C258.9 61.2 257.6 58.6 255.1 57.7C252.8 56.8 249.4 57.4 247.3 61.2C243 69.1 258.9 79.3 258.9 79.3C258.9 79.3 274.8 69 270.5 61.2Z" fill="white"/>
<path d="M79.8 404.9H113.7C121.2 404.9 127.4 411 127.4 418.5V435.7C127.4 443.2 121.3 449.3 113.7 449.3H104.8L98.6 458.2C97.1 460.4 93.8 460.3 92.4 458.1L86.7 449.3H79.9C72.4 449.3 66.2 443.2 66.2 435.7V418.5C66.2 411 72.3 404.9 79.8 404.9Z" fill="#E0E0E0"/>
<path d="M95.6 418.6V436.1L83 427.4L95.6 418.6Z" fill="white"/>
<path d="M112.4 437.5C112.4 437.5 111.6 425 101.6 424.8H95.2V430.2L101.5 430.3C101.5 430.3 108 430.2 112.4 437.5Z" fill="white"/>
<path d="M91.5 228C96.4706 228 100.5 223.971 100.5 219C100.5 214.029 96.4706 210 91.5 210C86.5294 210 82.5 214.029 82.5 219C82.5 223.971 86.5294 228 91.5 228Z" fill="#E0E0E0"/>
<path d="M91.5 226.9C83 226.9 76.1 233.8 76.1 242.3H106.8C106.9 233.8 100 226.9 91.5 226.9Z" fill="#E0E0E0"/>
<path d="M343.2 50.1C343.2 53.6 340.4 56.3 337 56.3C333.6 56.3 330.8 53.5 330.8 50.1C330.8 46.7 333.6 43.9 337 43.9C340.4 43.9 343.2 46.7 343.2 50.1Z" fill="#E0E0E0"/>
<path d="M360.6 64.8C360.6 68.2 357.8 71 354.4 71C351 71 348.2 68.2 348.2 64.8C348.2 61.3 351 58.6 354.4 58.6C357.8 58.6 360.6 61.3 360.6 64.8Z" fill="#E0E0E0"/>
<path d="M343.4 79.7C343.4 83.1 340.6 85.9 337.2 85.9C333.8 85.9 331 83.1 331 79.7C331 76.3 333.8 73.5 337.2 73.5C340.6 73.5 343.4 76.2 343.4 79.7Z" fill="#E0E0E0"/>
<path d="M337 50.1L354.3 64.8L337.1 79.7" stroke="#E0E0E0" stroke-miterlimit="10"/>
<path d="M451.1 196.8C448.4 191.9 443.9 191.1 440.9 192.2C437.6 193.4 435.9 196.8 435.9 196.8C435.9 196.8 434.2 193.4 430.9 192.2C427.9 191.1 423.4 191.8 420.7 196.8C415.1 207.1 435.8 220.5 435.8 220.5C435.8 220.5 456.7 207 451.1 196.8Z" fill="#E0E0E0"/>
<path d="M426.5 244.8C424.6 241.3 421.4 240.7 419.2 241.5C416.9 242.4 415.7 244.8 415.7 244.8C415.7 244.8 414.5 242.4 412.2 241.5C410.1 240.7 406.9 241.3 404.9 244.8C400.9 252.1 415.7 261.7 415.7 261.7C415.7 261.7 430.5 252.1 426.5 244.8Z" fill="#E0E0E0"/>
<path d="M442.8 74.3H376.1C367.9 74.3 361.3 80.9 361.3 89.1V129.5C361.3 137.7 367.9 144.3 376.1 144.3H396.7L408.2 160.8C409.8 163.1 413.1 163 414.6 160.7L425.3 144.3H442.7C450.9 144.3 457.5 137.7 457.5 129.5V89.2C457.5 81 450.9 74.3 442.8 74.3Z" fill="white" stroke="#263238" stroke-width="0.2" stroke-miterlimit="10"/>
<path d="M442.8 74.3C442.8 74.3 443 74.3 443.3 74.3C443.6 74.3 444.1 74.3 444.8 74.4C446.1 74.5 448 74.9 450.2 76.2C452.4 77.4 454.8 79.6 456.4 82.9C457.2 84.5 457.7 86.5 457.8 88.5C457.9 90.6 457.8 92.7 457.8 95.1C457.8 104.3 457.8 115.4 457.9 128.1C457.9 129.7 457.9 131.3 457.5 132.9C457.2 134.5 456.5 136.1 455.6 137.5C453.8 140.4 451 142.7 447.5 143.8C445.8 144.4 444 144.6 442.2 144.6C440.4 144.6 438.6 144.6 436.7 144.6C433 144.6 429.3 144.6 425.4 144.6L425.6 144.5C423.6 147.6 421.6 150.7 419.5 153.9C418.5 155.5 417.4 157.1 416.4 158.8C415.9 159.6 415.4 160.4 414.8 161.3C414.2 162.1 413.2 162.7 412.1 162.8C411.1 162.9 410 162.7 409.1 162.1C408.7 161.8 408.3 161.4 408 161L407.1 159.8C406 158.2 404.8 156.5 403.6 154.8C401.3 151.5 398.9 148.1 396.5 144.7L396.7 144.8C393.1 144.8 389.3 144.8 385.4 144.8C382.6 144.8 379.8 144.8 377 144.8C375.6 144.8 374.2 144.7 372.8 144.4C371.4 144.1 370.1 143.6 368.9 143C366.5 141.6 364.4 139.7 363 137.3C361.6 134.9 360.9 132.2 361 129.5C361 118.9 361 108.7 361 98.9C361 96.5 361 94.1 361 91.7C361 90.5 361 89.3 361.1 88.1C361.1 87.5 361.3 86.9 361.3 86.3C361.4 85.7 361.6 85.1 361.8 84.6C362.5 82.4 363.8 80.4 365.4 78.7C367 77.1 368.9 75.9 371 75.1C371.5 74.9 372 74.8 372.6 74.6C373.1 74.4 373.7 74.4 374.2 74.3C375.3 74.2 376.3 74.2 377.4 74.2C379.5 74.2 381.5 74.2 383.5 74.2C387.5 74.2 391.4 74.2 395.1 74.2C409.8 74.2 421.8 74.3 430 74.3C434.1 74.3 437.3 74.3 439.5 74.4C440.6 74.4 441.4 74.4 442 74.4C442.5 74.3 442.8 74.3 442.8 74.3C442.8 74.3 442.5 74.3 442 74.3C441.4 74.3 440.6 74.3 439.5 74.3C437.3 74.3 434.1 74.3 430 74.4C421.7 74.4 409.8 74.5 395.1 74.5C391.4 74.5 387.6 74.5 383.5 74.5C381.5 74.5 379.4 74.5 377.4 74.5C376.4 74.5 375.3 74.5 374.3 74.6C373.8 74.7 373.3 74.7 372.8 74.9C372.3 75 371.8 75.2 371.3 75.4C369.3 76.1 367.4 77.3 365.9 78.9C364.4 80.5 363.2 82.4 362.4 84.6C362.2 85.1 362.1 85.7 362 86.3C361.9 86.9 361.8 87.4 361.8 88C361.7 89.1 361.8 90.3 361.7 91.5C361.7 93.9 361.7 96.3 361.7 98.7C361.7 108.5 361.7 118.7 361.7 129.3C361.7 131.9 362.3 134.5 363.7 136.8C365 139.1 367 141 369.4 142.3C370.6 142.9 371.9 143.4 373.2 143.7C374.5 144 375.9 144.1 377.3 144C380.1 144 382.9 144 385.7 144C389.6 144 393.4 144 397 144H397.1L397.2 144.1C399.6 147.5 402 150.9 404.3 154.2C405.5 155.9 406.6 157.5 407.8 159.2L408.7 160.4C409 160.8 409.3 161.2 409.7 161.4C410.5 162 411.4 162.2 412.3 162C413.2 161.9 414.1 161.4 414.6 160.6C415.1 159.8 415.7 159 416.2 158.2C417.3 156.6 418.3 155 419.4 153.3C421.5 150.1 423.5 147 425.5 143.9L425.6 143.8H425.7C429.5 143.8 433.3 143.8 437 143.8C438.8 143.8 440.7 143.8 442.5 143.8C444.3 143.8 446 143.6 447.7 143.1C451 142 453.8 139.8 455.5 137C456.4 135.6 457 134.1 457.4 132.5C457.8 130.9 457.8 129.4 457.8 127.8C457.8 115.2 457.8 104 457.9 94.8C457.9 92.5 457.9 90.3 457.9 88.3C457.8 86.3 457.3 84.4 456.6 82.7C455.1 79.4 452.7 77.3 450.6 76.1C448.5 74.8 446.5 74.4 445.2 74.3C444.6 74.2 444.1 74.2 443.7 74.2C442.9 74.4 442.8 74.3 442.8 74.3Z" fill="#263238"/>
<path d="M411.3 95.9V123.5L431.1 109.7L411.3 95.9Z" fill="#FF725E"/>
<path d="M384.9 125.7C384.9 125.7 386.2 106.1 401.9 105.8H411.9V114.2L402 114.4C402 114.3 391.6 114.1 384.9 125.7Z" fill="#FF725E"/>
<path d="M48.2 171.7H185.8C193.5 171.7 199.8 165.4 199.8 157.7V51.3C199.8 43.6 193.5 37.3 185.8 37.3H48.2C40.5 37.3 34.2 43.6 34.2 51.3V157.7C34.2 165.4 40.5 171.7 48.2 171.7Z" fill="white"/>
<path d="M110.4 167.6C108.7 171.7 75.9 202.6 75.9 202.6V167.6H110.4Z" fill="#455A64"/>
<path d="M150.5 96.3C150.6 89.3 151.7 82.3 151.4 75.3C151.1 68.3 149.3 61 144.4 56C139.5 51 131 49 125.3 53.1L124.1 59.1C126.3 86.1 128.6 113.2 130.9 140.2C131.2 143.8 131.5 147.4 133.1 150.6C134.7 153.8 138 156.4 141.5 156.2C146.2 155.9 149.2 151.2 150.7 146.8C156 130.6 150.3 113.2 150.5 96.3Z" fill="#263238"/>
<path d="M133.7 59.9C132.7 58.2 131.6 56.4 130.1 55.1C128.6 53.8 126.5 52.9 124.6 53.3C123.7 53.5 122.7 54 122.4 54.9C122.1 55.8 122.8 57 123.7 56.9L123.9 57.1C126 59 128.1 60.8 130.3 62.6C130.9 63.1 131.4 63.5 132.1 63.7C132.8 63.9 133.6 63.8 134.1 63.3C134.8 62.3 134.3 60.9 133.7 59.9Z" fill="#FF725E"/>
<path d="M137.6 66.8C130.6 58.3 121.2 53.3 110.2 53.2C104 53.1 101.4 54.4 96.9 55.6C92.4 56.8 88.4 59.2 85.7 63C82.5 67.5 79.9 72.6 79.3 78C78.7 83.6 78.1 89.3 78.5 95C78.9 100.7 80.5 106.3 83.8 110.9L98.2 113.4C106.1 113.7 114.2 113.9 121.9 112.1C129.6 110.3 137.2 106.1 141.3 99.3C147 89.9 144.6 75.3 137.6 66.8Z" fill="#263238"/>
<path d="M98.1 138.9C98.2 133.9 98.4 127.5 98.4 127.6C98.4 127.6 86.7 126.3 83.4 111.3C81.8 103.8 81.5 91.5 81.6 81.3C81.7 72.2 89.4 59.8 100.7 59.7L105.7 59.1L124.9 66.7C127.7 66.8 129.9 69.1 130 71.9L130.7 138L118.4 158.5L96.4 141.5L98.1 138.9Z" fill="#FFBF9D"/>
<path d="M105.9 107.7C105.8 106.9 105.4 106.2 104.8 105.7C103.7 104.7 102 104.6 100.8 105.5C99.6 106.3 98.9 108 99.1 109.6C99.8 110.5 100.8 111.2 101.9 111.3C102.1 111.3 102.3 111.3 102.4 111.3C103.3 111.3 104.2 111 104.8 110.4C105.6 109.7 106.1 108.7 105.9 107.7Z" fill="#FF9A6C"/>
<path d="M87.6 93C87.6 94 88.5 94.9 89.6 94.9C90.7 94.9 91.5 94.1 91.5 93C91.5 91.9 90.6 91.1 89.5 91.1C88.4 91.1 87.6 91.9 87.6 93Z" fill="#263238"/>
<path d="M85 86.3C85.2 86.5 86.7 85.4 88.8 85.3C90.9 85.2 92.5 86.1 92.7 85.9C92.8 85.8 92.5 85.3 91.8 84.9C91.1 84.5 90 84 88.7 84.1C87.4 84.2 86.3 84.7 85.7 85.2C85.1 85.7 84.9 86.2 85 86.3Z" fill="#263238"/>
<path d="M98.4 102.7C98.4 102.6 97.1 102.4 95 102.3C94.5 102.3 93.9 102.2 93.8 101.8C93.6 101.4 93.8 100.8 94.1 100.2C94.5 98.9 95 97.5 95.5 96C97.4 90.1 98.7 85.2 98.5 85.2C98.3 85.2 96.6 89.9 94.7 95.8C94.3 97.3 93.8 98.6 93.4 100C93.2 100.6 92.9 101.3 93.2 102.1C93.4 102.5 93.8 102.8 94.1 102.8C94.4 102.9 94.8 102.9 95 102.9C97.1 102.9 98.4 102.8 98.4 102.7Z" fill="#263238"/>
<path d="M98.3 127.6C98.3 127.6 108.5 127.7 118.3 121.1C118.3 121.1 113.5 131.9 98.2 131.3L98.3 127.6Z" fill="#FF9A6C"/>
<path d="M104.7 103.8C104.4 103.8 104.5 106.1 102.6 107.8C100.8 109.5 98.3 109.4 98.3 109.7C98.3 109.8 98.9 110.1 99.9 110.1C100.9 110.1 102.3 109.7 103.5 108.6C104.6 107.5 105.1 106.2 105.1 105.3C105.1 104.4 104.8 103.8 104.7 103.8Z" fill="#263238"/>
<path d="M85.7 79C86.1 79.5 87.7 79.1 89.5 79.1C91.4 79.1 93 79.6 93.3 79.1C93.5 78.9 93.2 78.4 92.6 77.9C92 77.4 90.8 77 89.6 77C88.3 77 87.2 77.4 86.5 77.8C85.8 78.3 85.5 78.8 85.7 79Z" fill="#263238"/>
<path d="M111.4 92.5C111.5 93.5 110.6 94.4 109.6 94.5C108.6 94.6 107.6 93.8 107.6 92.8C107.5 91.8 108.4 90.9 109.4 90.8C110.4 90.7 111.3 91.4 111.4 92.5Z" fill="#263238"/>
<path d="M113.3 85.5C113.1 85.8 111.6 84.7 109.5 84.7C107.4 84.7 105.9 85.8 105.7 85.6C105.6 85.5 105.8 85 106.5 84.5C107.2 84 108.3 83.5 109.6 83.5C110.9 83.5 112 83.9 112.7 84.4C113.2 84.9 113.4 85.4 113.3 85.5Z" fill="#263238"/>
<path d="M112 78.8C111.6 79.3 110 78.8 108 78.8C106.1 78.7 104.4 79.2 104 78.7C103.8 78.5 104.1 78 104.8 77.5C105.5 77 106.7 76.7 108 76.7C109.3 76.7 110.5 77.1 111.2 77.6C112 78.1 112.2 78.6 112 78.8Z" fill="#263238"/>
<path d="M127.3 97.3C127.2 96.2 128.4 93.4 129.5 93.2C132.4 92.6 137.8 92.5 138.3 100.1C138.9 110.4 128.4 108.9 128.4 108.6C128.4 108.4 127.5 101.2 127.3 97.3Z" fill="#B56760"/>
<path d="M131 104.7C131 104.7 131.2 104.8 131.5 104.9C131.8 105 132.3 105.1 132.9 104.8C134 104.3 134.8 102.5 134.7 100.7C134.7 99.8 134.4 98.9 134 98.1C133.6 97.4 133.1 96.9 132.6 96.8C132 96.7 131.7 97.1 131.6 97.4C131.5 97.7 131.6 97.9 131.5 97.9C131.5 97.9 131.3 97.7 131.3 97.3C131.3 97.1 131.4 96.8 131.7 96.6C131.9 96.4 132.3 96.3 132.7 96.3C133.5 96.3 134.3 97 134.7 97.8C135.2 98.6 135.5 99.6 135.5 100.6C135.6 102.7 134.6 104.7 133.1 105.2C132.4 105.4 131.8 105.3 131.4 105C131.1 104.9 131 104.7 131 104.7Z" fill="#8A4A43"/>
<path d="M129.9 93.2L127.3 95.9C116 85.1 93.8 58 95.1 59.6C95.1 59.6 102.9 56.4 111.3 57.8C119.7 59.2 135.7 63.5 135.5 73.4C135.2 83.3 129.9 93.2 129.9 93.2Z" fill="#263238"/>
<path d="M144.9 91C144.9 91 144.9 90.8 144.7 90.4C144.6 90 144.4 89.5 144 88.8C143.3 87.4 141.9 85.6 139.7 83.9C137.5 82.2 134.5 80.8 131 79.7C127.5 78.6 123.7 77.7 119.8 76.1C116 74.5 112.5 72.5 109.6 70.4C106.7 68.3 104.3 66.1 102.4 64.1C100.5 62.1 99.2 60.4 98.2 59.2C97.8 58.6 97.4 58.2 97.2 57.8C97 57.5 96.8 57.3 96.8 57.3C96.8 57.3 96.9 57.5 97.1 57.8C97.3 58.1 97.6 58.6 98.1 59.3C99 60.6 100.3 62.3 102.2 64.4C104.1 66.5 106.5 68.7 109.4 70.8C112.3 72.9 115.8 75 119.7 76.6C123.6 78.3 127.5 79.1 130.9 80.2C134.3 81.3 137.3 82.6 139.5 84.2C141.7 85.8 143.1 87.5 143.9 88.9C144.7 90.2 144.9 91 144.9 91Z" fill="#455A64"/>
<path d="M141.9 92.6C141.9 92.6 142 91.8 141.5 90.3C141 88.9 139.8 87 137.6 85.4C135.4 83.8 132.4 82.8 129 82C125.6 81.2 121.9 80.3 118.3 78.6C114.7 76.9 111.4 74.9 108.7 72.7C106 70.5 103.8 68.3 102.1 66.3C100.4 64.3 99.3 62.5 98.4 61.3C98 60.7 97.7 60.2 97.5 59.8C97.3 59.5 97.2 59.3 97.2 59.3C97.2 59.3 97.3 59.5 97.4 59.8C97.6 60.2 97.9 60.7 98.2 61.3C99 62.6 100.1 64.4 101.7 66.4C103.4 68.5 105.5 70.8 108.2 73C110.9 75.2 114.2 77.3 117.8 79C121.5 80.7 125.2 81.7 128.6 82.4C132 83.1 135 84.1 137.1 85.6C139.2 87.1 140.5 88.9 141 90.2C141.9 91.8 141.9 92.6 141.9 92.6Z" fill="#455A64"/>
<path d="M129.6 110.7C129.6 110.6 130.5 110.5 132 110.1C133.5 109.7 135.7 108.8 137.8 106.9C139.9 105.1 141.8 102.2 143.2 98.7C144.5 95.2 145.3 91.1 145.4 86.8C145.4 84.6 145.3 82.5 144.9 80.5C144.5 78.5 143.9 76.6 143.2 74.9C141.7 71.5 139.8 68.7 137.8 66.6C133.9 62.4 130.7 60.7 130.9 60.6C130.9 60.6 131.1 60.7 131.5 60.9C131.9 61.1 132.4 61.4 133.1 61.9C134.4 62.8 136.3 64.2 138.3 66.3C140.3 68.4 142.3 71.2 143.9 74.7C144.7 76.5 145.3 78.4 145.7 80.4C146.1 82.4 146.3 84.6 146.2 86.8C146.1 91.2 145.3 95.4 143.9 98.9C142.5 102.5 140.5 105.4 138.3 107.2C136.1 109.1 133.8 110 132.3 110.3C131.5 110.5 130.9 110.5 130.5 110.6C129.8 110.8 129.6 110.8 129.6 110.7Z" fill="#455A64"/>
<path d="M65.1 155.5L65.4 155.2C76.8 143.2 97.7 139.1 97.7 139.1C97.7 139.1 99 147 110.7 147.9C122.4 148.8 131.1 136.8 131.1 136.8L146.8 139C146.8 139 154.7 139.9 159.6 142.8C170.7 149.3 176.5 171.7 176.5 171.7L55.7 172.2L65.1 155.5Z" fill="#455A64"/>
<path d="M54.1 37.3C54.1 37.3 53.8 37.3 53.3 37.4C53 37.4 52.7 37.4 52.3 37.5C51.9 37.5 51.4 37.6 50.9 37.7C48.8 38.1 45.5 38.9 42.1 41.6C40.4 42.9 38.8 44.6 37.4 46.8C36 49 35 51.7 34.6 54.7C34.4 56.2 34.4 57.8 34.4 59.5C34.4 61.2 34.4 62.8 34.4 64.6C34.4 68.1 34.4 71.8 34.4 75.8C34.4 91.5 34.4 110.6 34.4 132.3C34.4 137.7 34.4 143.3 34.4 149.1C34.4 150.5 34.4 152 34.5 153.4C34.6 154.8 34.9 156.3 35.3 157.7C36.1 160.5 37.7 163.1 39.7 165.3C40.7 166.4 41.9 167.4 43.1 168.2C44.4 169 45.7 169.8 47.2 170.3L48.3 170.7L49.4 171C50.1 171.2 50.9 171.3 51.7 171.4C52.5 171.5 53.2 171.5 54 171.6C54.8 171.6 55.6 171.6 56.4 171.6C62.7 171.6 69.2 171.6 75.8 171.6H76V171.8C76 181.6 76 192 76 202.7L75.6 202.5C80.7 197.7 85.9 192.7 91.2 187.6C96.4 182.5 101.8 177.2 106.9 171.7L107 171.6H107.1C123.5 171.6 140.7 171.6 158.1 171.6C163.4 171.6 168.6 171.6 173.8 171.6C175.1 171.6 176.4 171.6 177.7 171.6C179 171.6 180.3 171.6 181.6 171.5C184.1 171.3 186.6 170.6 188.9 169.4C193.4 167.1 196.9 163 198.5 158.3C199.3 155.9 199.6 153.5 199.6 151C199.6 148.5 199.6 146 199.6 143.5C199.6 123.7 199.6 104.5 199.6 86.3C199.6 77.2 199.6 68.3 199.6 59.7C199.6 57.5 199.6 55.4 199.2 53.3C198.8 51.2 198 49.3 197 47.5C196 45.7 194.6 44.1 193.1 42.7C191.6 41.3 189.9 40.2 188.1 39.4C186.3 38.6 184.3 38 182.4 37.8C180.5 37.6 178.5 37.6 176.5 37.6C172.6 37.6 168.7 37.6 165 37.6C157.5 37.6 150.2 37.6 143.4 37.6C115.8 37.6 93.5 37.5 78.1 37.5C70.4 37.5 64.4 37.5 60.3 37.5C58.3 37.5 56.7 37.5 55.7 37.5C54.6 37.3 54.1 37.3 54.1 37.3C54.1 37.3 54.6 37.3 55.7 37.3C56.7 37.3 58.3 37.3 60.3 37.3C64.4 37.3 70.4 37.3 78.1 37.3C93.5 37.3 115.8 37.3 143.4 37.2C150.3 37.2 157.5 37.2 165 37.2C168.8 37.2 172.6 37.2 176.5 37.2C178.4 37.2 180.4 37.1 182.4 37.4C184.4 37.6 186.4 38.2 188.2 39.1C190.1 39.9 191.8 41.1 193.3 42.5C194.8 43.9 196.2 45.5 197.2 47.4C198.3 49.2 199 51.2 199.5 53.4C199.9 55.5 199.9 57.7 199.9 59.9C199.9 68.5 199.9 77.4 199.9 86.5C199.9 104.7 199.9 123.9 199.9 143.7C199.9 146.2 199.9 148.7 199.9 151.2C199.9 153.7 199.7 156.3 198.8 158.7C197.2 163.5 193.6 167.7 188.9 170.1C186.6 171.3 184 172 181.4 172.2C180.1 172.3 178.8 172.3 177.5 172.3C176.2 172.3 174.9 172.3 173.6 172.3C168.4 172.3 163.2 172.3 157.9 172.3C140.4 172.3 123.3 172.3 106.9 172.3L107.1 172.2C102 177.8 96.6 183 91.4 188.2C86.3 193 81.1 198 76 202.8L75.6 203.2V202.6C75.6 191.9 75.6 181.5 75.6 171.7L75.8 171.9C69.2 171.9 62.7 171.9 56.4 171.9C55.6 171.9 54.8 171.9 54 171.9C53.2 171.8 52.4 171.9 51.6 171.7C50.8 171.6 50 171.5 49.3 171.3L48.2 171L47.1 170.6C45.6 170.1 44.3 169.3 42.9 168.5C41.6 167.6 40.4 166.6 39.4 165.5C37.3 163.3 35.8 160.6 34.9 157.7C34.5 156.3 34.2 154.8 34.1 153.3C34 151.8 34 150.4 34 148.9C34 143.1 34 137.5 34 132.1C34 110.4 34 91.3 34 75.6C34 71.7 34 67.9 34 64.4C34 62.6 34 60.9 34 59.3C34 57.7 34 56.1 34.2 54.5C34.6 51.4 35.7 48.7 37.1 46.5C38.5 44.3 40.2 42.5 41.9 41.3C45.3 38.7 48.6 37.8 50.7 37.5C51.2 37.4 51.7 37.3 52.1 37.3C52.5 37.3 52.9 37.3 53.1 37.3C53.8 37.3 54.1 37.3 54.1 37.3Z" fill="#263238"/>
<path d="M309 466.1L184.2 466C169.2 466 157 454.4 157 440.1L157.1 142C157.1 127.7 169.3 116.1 184.3 116.1L309.1 116.2C324.1 116.2 336.3 127.8 336.3 142.1L336.2 440.2C336.2 454.5 324 466.1 309 466.1Z" fill="#263238"/>
<path d="M309 126.8H284.8C281.6 126.8 278.9 129.4 278.9 132.6V136.8C278.9 140 276.3 142.7 273 142.7H225.9C222.7 142.7 220 140.1 220 136.8V132.6C220 129.4 217.4 126.8 214.1 126.7H205.6H184.4C173.9 126.7 165.4 134.8 165.3 144.8L165.2 435.8C165.2 445.8 173.7 453.9 184.2 453.9L308.7 454C319.2 454 327.7 445.9 327.7 435.9V145C328 134.9 319.5 126.8 309 126.8Z" fill="white"/>
<path d="M242.5 199.3C246 199 249 195.9 249.1 192.4C249.2 188.9 246.3 185.6 242.9 185.2C244.6 182.6 244.5 179 242.5 176.6C240.6 174.2 237.1 173.2 234.2 174.2C233.5 171.2 231.2 168.7 228.3 167.8C225.4 166.9 222.1 167.6 219.8 169.6C216 167.4 210.6 168.3 207.7 171.7C204.7 171.7 201.8 173.9 201 176.7C200.1 179.6 201.4 182.9 203.9 184.6" fill="#263238"/>
<path d="M243.7 200.1C239.5 185 224.4 175.6 209 178.5L207.5 178.8C191.2 182.9 185.5 199.1 190.1 215.3L201.5 274.2L235.2 300.2L243.9 278.5L240.5 258.9C240.5 258.9 255.9 253.4 253.1 237.5C251.7 229.8 247.6 214.1 243.7 200.1Z" fill="#FFBF9D"/>
<path d="M240.6 258.8C240.6 258.8 230.6 261.3 218.6 256.7C218.6 256.7 225.5 267.6 241.1 263.1L240.6 258.8Z" fill="#FF9A6C"/>
<path d="M242.3 215.3C242.6 216.5 241.8 217.7 240.5 218C239.2 218.3 238 217.6 237.8 216.4C237.5 215.2 238.3 214 239.6 213.7C240.8 213.4 242 214.1 242.3 215.3Z" fill="#263238"/>
<path d="M241.8 208.5C241.6 208.9 239.6 207.9 237.2 208.4C234.8 208.8 233.2 210.4 232.9 210.2C232.7 210.1 232.9 209.5 233.6 208.8C234.3 208.1 235.5 207.3 237 207C238.5 206.7 239.9 207 240.8 207.5C241.6 207.8 241.9 208.3 241.8 208.5Z" fill="#263238"/>
<path d="M220.2 220C220.5 221.2 219.7 222.4 218.4 222.7C217.2 223 215.9 222.3 215.7 221.1C215.4 219.9 216.2 218.7 217.5 218.4C218.7 218.1 219.9 218.8 220.2 220Z" fill="#263238"/>
<path d="M217.9 213.5C217.7 213.9 215.7 212.9 213.3 213.4C210.9 213.8 209.3 215.4 209 215.2C208.8 215.1 209 214.5 209.7 213.8C210.4 213.1 211.6 212.3 213.1 212C214.6 211.7 216 212 216.9 212.5C217.6 212.9 218 213.4 217.9 213.5Z" fill="#263238"/>
<path d="M230.2 229.9C230.2 229.8 231.6 229.2 234 228.4C234.6 228.2 235.2 228 235.2 227.5C235.3 227 234.9 226.4 234.4 225.7C233.5 224.3 232.6 222.8 231.6 221.3C227.7 215 224.8 209.8 225.1 209.7C225.3 209.6 228.7 214.5 232.5 220.8C233.4 222.4 234.3 223.8 235.2 225.2C235.6 225.9 236.1 226.6 236 227.6C235.9 228.1 235.5 228.5 235.1 228.7C234.7 228.9 234.4 229 234.1 229.1C231.8 229.8 230.2 230.1 230.2 229.9Z" fill="#263238"/>
<path d="M217 205.1C216.8 205.8 214.6 205.5 212 205.9C209.4 206.3 207.3 207.1 207 206.5C206.8 206.2 207.2 205.6 208 204.9C208.8 204.2 210.1 203.6 211.7 203.3C213.3 203.1 214.7 203.3 215.6 203.7C216.6 204.2 217.1 204.7 217 205.1Z" fill="#263238"/>
<path d="M240.4 199.8C240 200.4 237.9 200.3 235.4 200.7C233 201.1 231 201.9 230.4 201.4C230.1 201.2 230.4 200.5 231.2 199.8C232 199.1 233.4 198.4 235.1 198.1C236.8 197.8 238.3 198.1 239.3 198.5C240.2 199 240.6 199.5 240.4 199.8Z" fill="#263238"/>
<path d="M195.6 230.2C195 227.8 192.5 226.2 190.2 226.9C187.3 227.8 184.3 230.1 185.7 236.1C188.1 246.9 198.5 242.2 198.4 241.9C198.3 241.8 196.6 234.8 195.6 230.2Z" fill="#FFBF9D"/>
<path d="M195.1 238.5C195 238.5 194.9 238.7 194.7 238.9C194.4 239.1 193.9 239.3 193.3 239.2C192.1 239 190.7 237.4 190.2 235.5C190 234.5 190 233.5 190.1 232.7C190.2 231.8 190.6 231.2 191.2 230.9C191.7 230.6 192.2 230.9 192.4 231.2C192.6 231.5 192.6 231.7 192.6 231.7C192.6 231.7 192.8 231.5 192.6 231C192.5 230.8 192.3 230.6 192 230.4C191.7 230.3 191.3 230.2 190.9 230.4C190.1 230.6 189.5 231.6 189.3 232.5C189.1 233.4 189 234.6 189.3 235.6C189.9 237.8 191.4 239.5 193.1 239.7C193.9 239.7 194.5 239.4 194.8 239C195.1 238.8 195.1 238.5 195.1 238.5Z" fill="#FF9A6C"/>
<path d="M230.4 179.2C230.3 179 230.1 178.7 229.9 178.5C228.4 176.9 226.1 176.2 223.9 176.4C222.5 176 221.1 175.7 219.8 175.5C217.8 173.2 214.7 171.9 211.7 172.1C208.3 172.4 205.1 174.7 203.6 177.9C203.2 178 202.7 178.2 202.3 178.4C199.8 177.2 196.7 177.1 194.1 178.3C191.2 179.6 189 182.3 188.4 185.4C185.6 185.2 182.8 186.8 181.5 189.3C180.2 191.8 180.6 195 182.4 197.1C180.7 198.6 179.4 200.8 179.8 203.1C180.2 205.2 182.5 206.9 184.5 206.3C185.1 211.6 186.8 217.6 188.1 222.9C189 226.7 194.3 228 195.1 230.5C199.3 243.4 202.2 235.3 198.7 207.7C198.9 207.4 199.2 207.2 199.4 206.8C199.9 206.2 199.9 205.5 200.3 204.8C200.8 204 201.9 204 202.8 203.9C206 203.6 208.8 200.8 209 197.6C210 198.7 211.9 198.2 213 197.2C214.1 196.2 214.6 194.8 215.4 193.5C216.2 192.2 217.3 191 218.8 190.9C219.6 190.9 220.5 191.2 221.3 191C222.7 190.6 223.1 188.8 223 187.3C222.9 186.1 222.9 184.7 223.4 183.7C224.2 183.1 225 182.6 226 182.4C226.6 182.4 227.1 182.4 227.7 182.3C227.9 182.3 228.2 182.2 228.5 182.2C228.8 182.2 229.2 182.3 229.6 182.4C234.8 183.8 240.9 193 240.9 193C239.9 186.7 235.5 182.1 230.4 179.2Z" fill="#263238"/>
<path d="M181.1 197.9C181.1 197.9 181.1 197.8 181.2 197.7C181.3 197.6 181.3 197.4 181.5 197.2C181.8 196.8 182.2 196.2 183 195.6C183.7 195 184.8 194.5 186.1 194.3C187.4 194.1 189 194.2 190.4 195L190.1 195.1C190.2 192.9 191.4 190.5 193.6 188.8C194.7 188 195.9 187.3 197.3 186.9C198.7 186.5 200.2 186.3 201.7 186.4C204.6 186.5 207.3 187.4 209.6 188.4L209.3 188.6C209.8 186 211.4 183.8 213.2 182.5C215 181.2 217 180.8 218.6 180.8C220.2 180.8 221.5 181.2 222.3 181.5C222.7 181.7 223 181.8 223.2 181.9C223.4 182 223.5 182.1 223.5 182.1C223.5 182.1 223.1 181.9 222.3 181.6C221.5 181.3 220.2 181 218.7 181C217.1 181 215.2 181.5 213.5 182.8C211.8 184 210.3 186.1 209.8 188.7L209.7 189L209.5 188.9C207.2 187.9 204.6 187 201.7 186.9C200.3 186.8 198.8 187 197.5 187.4C196.2 187.8 195 188.4 194 189.2C192 190.8 190.8 193.1 190.6 195.2V195.5L190.3 195.3C189 194.5 187.4 194.4 186.2 194.5C184.9 194.7 183.9 195.2 183.2 195.7C181.6 196.9 181.2 198 181.1 197.9Z" fill="#455A64"/>
<path d="M223.4 183.1C223.4 183.1 223.4 183.3 223.3 183.6C223.2 183.9 223.2 184.4 223.1 184.9C223.1 185.5 223.1 186.2 223 187.1C222.9 187.9 223 189 222.4 190C222.1 190.5 221.6 190.9 221 191.1C220.4 191.3 219.8 191.3 219.1 191.3C218.5 191.3 217.8 191.4 217.3 191.8C216.8 192.2 216.3 192.7 215.9 193.3C215.5 193.9 215.2 194.6 214.8 195.2C214.4 195.9 214.1 196.6 213.5 197.2C212.9 197.8 212.1 198.2 211.3 198.4C210.9 198.5 210.4 198.6 210 198.6C209.5 198.6 209 198.4 208.7 198L209.1 197.9C209.1 198.6 209 199.2 208.7 199.9C208.4 200.6 208.1 201.1 207.7 201.7C206.8 202.8 205.6 203.6 204.2 204C203.6 204.2 203.1 204.3 202.5 204.4C201.9 204.5 201.4 204.4 200.9 204.7C200.4 204.9 200.1 205.3 199.9 205.8C199.6 206.3 199.3 206.8 199 207.2C197.7 209 196 210.5 193.9 210.9C191.8 211.2 189.9 210.6 188.4 209.7C186.9 208.7 185.8 207.4 185.2 206L185.4 206.1C184.1 206.7 182.7 206.5 181.7 205.9C180.7 205.4 180.1 204.5 179.8 203.8C179.5 203.1 179.5 202.5 179.5 202.1C179.5 201.9 179.5 201.7 179.6 201.7C179.6 201.6 179.6 201.6 179.6 201.6C179.7 201.6 179.4 202.5 180 203.9C180.3 204.6 180.9 205.3 181.8 205.8C182.7 206.3 184 206.4 185.3 205.9L185.4 205.8L185.5 205.9C186.1 207.2 187.1 208.5 188.6 209.4C190 210.3 191.9 210.8 193.8 210.5C195.7 210.1 197.4 208.7 198.6 207C198.9 206.6 199.2 206.1 199.4 205.6C199.6 205.1 200 204.5 200.6 204.3C200.9 204.2 201.2 204.1 201.5 204L202.4 203.9C203 203.8 203.5 203.7 204 203.5C205.3 203.1 206.5 202.3 207.3 201.3C207.7 200.8 208 200.2 208.3 199.6C208.5 199 208.6 198.4 208.7 197.8V197.3L209.1 197.7C209.6 198.3 210.5 198.2 211.3 198C212.1 197.8 212.8 197.4 213.4 196.9C214 196.4 214.3 195.7 214.6 195C215 194.3 215.3 193.7 215.7 193C216.1 192.4 216.6 191.8 217.2 191.4C217.8 191 218.6 190.9 219.2 190.9C219.8 190.9 220.5 190.9 221 190.7C221.6 190.6 222 190.2 222.2 189.8C222.7 188.9 222.7 187.9 222.8 187C222.9 186.2 222.9 185.4 222.9 184.8C223 184.2 223.1 183.8 223.1 183.5C223.3 183.2 223.4 183.1 223.4 183.1Z" fill="#455A64"/>
<path d="M223.4 235.6C223 238.6 224.2 241.5 227.1 242.5C228.1 242.9 229.2 242.8 230.2 242.3C231.3 241.7 232.3 240.9 232.6 239.6C232.8 238.4 233 237.1 232.7 235.8C230 235.8 226 235.8 223.4 235.6Z" fill="#FF9A6C"/>
<path d="M232 240.9C232 240.9 232 241 231.9 241.1C231.8 241.2 231.7 241.4 231.5 241.6C231.1 242 230.3 242.5 229.3 242.7C228.2 242.9 226.9 242.7 225.7 242C224.5 241.2 223.5 239.8 223.3 238.2C223.2 237.8 223.2 237.4 223.2 237C223.2 236.6 223.3 236.2 223.5 235.8C223.6 235.6 223.8 235.4 224.1 235.4C224.3 235.3 224.5 235.3 224.7 235.3C225.1 235.3 225.4 235.3 225.8 235.3C227.2 235.4 228.4 235.5 229.4 235.6C231.5 235.8 232.7 235.9 232.7 236C232.7 236.1 231.4 236.1 229.3 236C228.3 235.9 227 235.8 225.7 235.8C225.4 235.8 225 235.8 224.7 235.8C224.3 235.8 224.1 235.9 223.9 236.1C223.7 236.3 223.7 236.7 223.7 237.1C223.7 237.5 223.7 237.8 223.8 238.2C224 239.7 224.9 241 226 241.7C227.1 242.4 228.4 242.6 229.3 242.5C230.3 242.4 231 242 231.5 241.6C231.8 241.1 232 240.8 232 240.9Z" fill="#263238"/>
<path d="M292.4 206.4C292.4 206.4 305.1 204.8 324.1 189.7C343.1 174.6 353.5 153 355.6 153.3C357.7 153.6 367.5 150.2 381.6 190.4C395.7 230.7 387.9 239 384.4 238.6C380.9 238.2 357.5 229.2 342.4 229.5C327.3 229.8 307.3 235.8 307.3 235.8L292.4 206.4Z" fill="#FF725E"/>
<path d="M269.6 236.4L276.4 235L272.7 226.1L267 228.9L269.6 236.4Z" fill="#455A64"/>
<path d="M270.4 225.8L272.9 233.3L274.5 237.1C276.6 242.3 282.5 244.9 287.8 243L315.3 235.3L303.5 200.5L276.2 212C270.7 214.3 268.2 220.5 270.4 225.8Z" fill="#263238"/>
<path d="M280.2 237.4L289.4 253.7L293.6 252.3L322.3 273.7L329.4 258.2C329.4 258.2 312.7 251.8 309.4 246.1C306.1 240.4 309.6 238.9 309.6 238.9L301.5 230.4L280.2 237.4Z" fill="#263238"/>
<path d="M380.1 191C387.6 212.8 389.7 231.8 385 233.5C380.2 235.1 370.3 218.8 362.8 197C355.3 175.2 353.2 156.2 357.9 154.5C362.6 152.8 372.6 169.2 380.1 191Z" fill="#263238"/>
<path d="M361.2 184.5C361.2 184.5 372.6 178.8 377.2 194C381.8 209.2 370.2 210.5 370.2 210.5C366.2 202.8 363.2 194.2 361.2 184.5Z" fill="#FAFAFA"/>
<path d="M351.4 166.1C351.3 166.1 351.4 167.1 351.6 168.9C351.8 170.7 352 173.3 352.4 176.6C352.7 178.2 353 180 353.4 181.8C353.6 182.7 353.8 183.7 354 184.7C354.1 185.2 354.2 185.7 354.3 186.2C354.4 186.7 354.6 187.2 354.7 187.7C355.3 189.8 355.9 192 356.5 194.2C356.7 194.8 356.8 195.3 357 195.9C357.2 196.5 357.4 197 357.6 197.6C358 198.7 358.5 199.9 358.9 201.1C359.3 202.3 359.8 203.4 360.2 204.6C360.4 205.2 360.6 205.7 360.9 206.3C361.1 206.8 361.4 207.4 361.7 207.9C362.7 210 363.7 212.1 364.6 214C364.8 214.5 365.1 215 365.3 215.4C365.6 215.9 365.8 216.3 366.1 216.8C366.6 217.7 367.1 218.6 367.6 219.4C368.6 221.1 369.5 222.6 370.3 224C372.1 226.7 373.7 228.8 374.7 230.3C375.8 231.8 376.4 232.6 376.4 232.5C376.4 232.5 375.9 231.6 375 230.1C374 228.5 372.6 226.3 370.8 223.6C370 222.2 369.2 220.6 368.2 219C367.7 218.2 367.3 217.3 366.8 216.4C366.6 216 366.3 215.5 366 215C365.8 214.5 365.5 214.1 365.3 213.6C364.4 211.7 363.5 209.6 362.5 207.5C362.3 207 362 206.4 361.8 205.9C361.5 205.4 361.4 204.8 361.2 204.2C360.8 203.1 360.3 201.9 359.9 200.8C359.5 199.6 359 198.5 358.6 197.4C358.4 196.8 358.1 196.3 358 195.7C357.8 195.1 357.7 194.6 357.5 194C356.9 191.8 356.2 189.6 355.6 187.5C355.5 187 355.3 186.5 355.2 186C355.1 185.5 355 185 354.9 184.5C354.7 183.5 354.5 182.5 354.3 181.6C353.9 179.7 353.5 178 353.2 176.4C352.7 173.2 352.4 170.6 352.1 168.8C351.7 167 351.5 166.1 351.4 166.1Z" fill="#263238"/>
<path d="M315.2 235.4C315.2 235.4 314.8 235.6 314 235.8C313.1 236 312 236.3 310.6 236.7C307.7 237.4 303.7 238.5 299.4 239.7C295.1 240.9 291.1 242 288.2 242.7C286.8 243.1 285.6 243.3 284.8 243.5C284 243.7 283.5 243.7 283.5 243.7C283.5 243.7 283.9 243.5 284.7 243.3C285.6 243.1 286.7 242.7 288.1 242.3C291.1 241.5 295 240.4 299.3 239.1C303.7 237.9 307.7 236.9 310.6 236.2C312.1 235.9 313.2 235.6 314.1 235.5C314.7 235.4 315.2 235.3 315.2 235.4Z" fill="#455A64"/>
<path d="M299 229.7C299 229.8 298 230.2 296.3 230.8C294.6 231.4 292.3 232.2 289.6 233C287 233.8 284.6 234.4 282.8 234.8C281 235.2 279.9 235.4 279.9 235.3C279.9 235.2 280.9 234.9 282.7 234.4C284.4 233.9 286.8 233.2 289.4 232.5C292 231.8 294.4 231 296.1 230.4C298 229.9 299 229.6 299 229.7Z" fill="#455A64"/>
<path d="M294.7 221.7C294.7 221.8 290.9 223.1 286.2 224.5C281.5 225.9 277.6 227 277.6 226.8C277.6 226.7 281.4 225.4 286.1 224C290.8 222.6 294.6 221.6 294.7 221.7Z" fill="#455A64"/>
<path d="M290.4 214.1C290.5 214.2 287.2 215.8 283.2 217.5C279.2 219.3 275.8 220.6 275.8 220.5C275.8 220.4 279 218.8 283 217.1C287 215.3 290.4 213.9 290.4 214.1Z" fill="#455A64"/>
<path d="M259.5 300.1L242.8 272L199.7 270.2V274.1C199.7 274.1 187.8 286 184 302.2C181.1 314.5 193.3 361.4 196.7 377.6C200.9 397.6 206.7 422.9 206.7 422.9C205.8 427.4 200.1 431 200.5 437L296.4 436L291.5 416.6L259.5 300.1Z" fill="#F7F7F7" stroke="#263238" stroke-width="0.2" stroke-miterlimit="10"/>
<path opacity="0.3" d="M196.3 317.5C196.3 317.5 202.4 328.3 212 336.3C221.6 344.3 250.9 358.6 250.9 358.6L253.3 353.5L275.2 358.6L271.2 345.1L196.3 317.5Z" fill="#999999"/>
<path d="M299.1 282L291.5 323.4L226.1 292.3L215.6 329.2C241.3 341.8 293.3 362.7 300 362.1C309.5 361.2 316.1 355.6 319.1 341.6C320.9 333 320.1 275.1 320.1 275.1L299.1 282Z" fill="#FFBF9D"/>
<path d="M230.4 286.8C230.4 286.8 206 271.7 195.3 290.7C187.7 309.3 196.1 324.1 214.9 333.3C224 337.7 236.3 343.2 248.8 348.4L267 308L230.4 286.8Z" fill="#F7F7F7" stroke="#263238" stroke-width="0.2" stroke-miterlimit="10"/>
<path d="M230.4 286.8C230.4 286.8 230.6 286.9 231.1 287.2C231.6 287.5 232.2 287.8 233 288.3C234.7 289.3 237.2 290.7 240.4 292.5C246.8 296.2 256 301.5 267.1 307.9L267.3 308L267.2 308.2C262 319.7 255.8 333.5 249.1 348.6L249 348.8L248.8 348.7C242.4 346 235.8 343.2 229.1 340.2C226.1 338.9 223.2 337.5 220.3 336.2C217.4 334.8 214.6 333.5 211.8 332C210.4 331.2 209.1 330.4 207.9 329.6C206.7 328.7 205.4 327.9 204.3 326.9C201.9 325 199.9 322.8 198.1 320.6C197.7 320 197.3 319.4 196.9 318.8C196.5 318.2 196.2 317.6 195.8 316.9C195 315.7 194.6 314.4 194 313.1C193.8 312.5 193.6 311.8 193.4 311.1L193.1 310.1C193 309.8 193 309.4 192.9 309.1C192.8 308.4 192.7 307.8 192.6 307.1C192.5 306.4 192.5 305.8 192.5 305.1C192.4 303.8 192.5 302.5 192.6 301.2C192.7 299.9 193 298.7 193.2 297.5C193.5 296.3 193.8 295.1 194.1 294C194.5 292.9 194.9 291.8 195.3 290.7C196.8 288 198.8 285.8 201.1 284.2C203.4 282.6 206 281.7 208.4 281.3C213.3 280.6 217.5 281.5 220.8 282.5C224.1 283.5 226.6 284.7 228.2 285.5C229 285.9 229.6 286.3 230 286.5C230.2 286.7 230.4 286.8 230.4 286.8C230.4 286.8 230.2 286.7 229.8 286.5C229.4 286.3 228.8 286 227.9 285.6C226.3 284.8 223.8 283.7 220.5 282.7C217.2 281.8 213 280.9 208.2 281.6C205.8 282 203.3 282.9 201.1 284.4C198.9 286 196.9 288.2 195.5 290.8C195.1 291.9 194.7 293 194.3 294.1C194 295.2 193.7 296.4 193.4 297.6C193.2 298.8 193 300 192.9 301.3C192.9 302.6 192.7 303.8 192.8 305.1C192.8 305.7 192.9 306.4 192.9 307.1C193 307.7 193.1 308.4 193.2 309.1C193.3 309.4 193.3 309.8 193.4 310.1L193.7 311.1C193.9 311.7 194.1 312.4 194.3 313C194.9 314.2 195.3 315.6 196.1 316.8C196.5 317.4 196.7 318 197.2 318.6C197.6 319.2 198 319.8 198.4 320.3C200.2 322.5 202.2 324.7 204.5 326.5C205.6 327.5 206.9 328.3 208.1 329.2C209.4 330 210.7 330.8 212 331.6C214.7 333.1 217.6 334.4 220.4 335.8C223.3 337.2 226.2 338.5 229.2 339.8C235.9 342.8 242.5 345.6 248.9 348.3L248.6 348.4C255.4 333.4 261.6 319.6 266.8 308.1L266.9 308.4C255.8 301.9 246.6 296.5 240.3 292.8C237.1 290.9 234.7 289.5 233 288.5C232.2 288 231.5 287.6 231.1 287.4C230.6 287 230.4 286.8 230.4 286.8Z" fill="#E8E8E8"/>
<path d="M230.4 286.8C230.4 286.8 230.6 286.9 231.1 287.2C231.6 287.5 232.2 287.8 233 288.3C234.7 289.3 237.2 290.7 240.4 292.5C246.8 296.2 256 301.5 267.1 307.9L267.3 308L267.2 308.2C262 319.7 255.8 333.5 249.1 348.6L249 348.8L248.8 348.7C242.4 346 235.8 343.2 229.1 340.2C226.1 338.9 223.2 337.5 220.3 336.2C217.4 334.8 214.6 333.5 211.8 332C210.4 331.2 209.1 330.4 207.9 329.6C206.7 328.7 205.4 327.9 204.3 326.9C201.9 325 199.9 322.8 198.1 320.6C197.7 320 197.3 319.4 196.9 318.8C196.5 318.2 196.2 317.6 195.8 316.9C195 315.7 194.6 314.4 194 313.1C193.8 312.5 193.6 311.8 193.4 311.1L193.1 310.1C193 309.8 193 309.4 192.9 309.1C192.8 308.4 192.7 307.8 192.6 307.1C192.5 306.4 192.5 305.8 192.5 305.1C192.4 303.8 192.5 302.5 192.6 301.2C192.7 299.9 193 298.7 193.2 297.5C193.5 296.3 193.8 295.1 194.1 294C194.5 292.9 194.9 291.8 195.3 290.7C196.8 288 198.8 285.8 201.1 284.2C203.4 282.6 206 281.7 208.4 281.3C213.3 280.6 217.5 281.5 220.8 282.5C224.1 283.5 226.6 284.7 228.2 285.5C229 285.9 229.6 286.3 230 286.5C230.2 286.7 230.4 286.8 230.4 286.8ZM230.4 286.8C230.4 286.8 230.2 286.7 229.8 286.5C229.4 286.3 228.8 286 227.9 285.6C226.3 284.8 223.8 283.7 220.5 282.7C217.2 281.8 213 280.9 208.2 281.6C205.8 282 203.3 282.9 201.1 284.4C198.9 286 196.9 288.2 195.5 290.8C195.1 291.9 194.7 293 194.3 294.1C194 295.2 193.7 296.4 193.4 297.6C193.2 298.8 193 300 192.9 301.3C192.9 302.6 192.7 303.8 192.8 305.1C192.8 305.7 192.9 306.4 192.9 307.1C193 307.7 193.1 308.4 193.2 309.1C193.3 309.4 193.3 309.8 193.4 310.1L193.7 311.1C193.9 311.7 194.1 312.4 194.3 313C194.9 314.2 195.3 315.6 196.1 316.8C196.5 317.4 196.7 318 197.2 318.6C197.6 319.2 198 319.8 198.4 320.3C200.2 322.5 202.2 324.7 204.5 326.5C205.6 327.5 206.9 328.3 208.1 329.2C209.4 330 210.7 330.8 212 331.6C214.7 333.1 217.6 334.4 220.4 335.8C223.3 337.2 226.2 338.5 229.2 339.8C235.9 342.8 242.5 345.6 248.9 348.3L248.6 348.4C255.4 333.4 261.6 319.6 266.8 308.1L266.9 308.4C255.8 301.9 246.6 296.5 240.3 292.8C237.1 290.9 234.7 289.5 233 288.5C232.2 288 231.5 287.6 231.1 287.4C230.6 287 230.4 286.8 230.4 286.8Z" stroke="#263238" stroke-width="0.2" stroke-miterlimit="10"/>
<path d="M298.2 289.1L299.7 273.7C299.7 273.7 293.8 261.8 293.9 260.6C294 259.4 294.4 252.9 294.4 252.9L309.2 239.6C309.2 239.6 314 239.6 314.1 244.3C314.1 244.3 318.7 243.3 318.8 248.8C318.8 248.8 323.8 249 323.9 253C323.9 253 326.9 252.6 326.8 256.8C326.7 259.8 325.4 271.4 325.4 271.4L319.2 282.1L318.7 292.8L298.2 289.1Z" fill="#FFBF9D"/>
<path d="M299.7 338.6C299.5 338.7 298.4 334.9 296.2 330.7C294 326.5 291.4 323.6 291.5 323.5C291.5 323.5 292.3 324.1 293.3 325.4C294.3 326.6 295.6 328.4 296.7 330.5C297.8 332.6 298.6 334.7 299.1 336.2C299.5 337.6 299.8 338.6 299.7 338.6Z" fill="#FF9A6C"/>
<path d="M199.8 455.6L201.8 437.1L293.3 436.1L295.6 455.6H199.8Z" fill="#263238"/>
<path d="M313 454C313 454.1 284.8 454.3 250.1 454.3C215.3 454.3 187.2 454.2 187.2 454C187.2 453.8 215.4 453.7 250.1 453.7C284.8 453.7 313 453.8 313 454Z" fill="#455A64"/>
<path d="M262 136.6H228C226.9 136.6 226 135.7 226 134.6V133C226 131.9 226.9 131 228 131H262C263.1 131 264 131.9 264 133V134.5C264.1 135.6 263.2 136.6 262 136.6Z" fill="#455A64"/>
<path d="M273.3 133.8C273.3 135.3 272.1 136.6 270.5 136.6C268.9 136.6 267.7 135.4 267.7 133.8C267.7 132.3 268.9 131 270.5 131C272.1 131 273.3 132.3 273.3 133.8Z" fill="#455A64"/>
<path d="M160.3 220.5H158.1C154.7 220.5 151.9 217.7 151.9 214.3V180.3C151.9 176.9 154.7 174.1 158.1 174.1H160.3V220.5Z" fill="#263238"/>
<path d="M159.8 287.9H157.6C154.2 287.9 151.4 285.1 151.4 281.7V247.7C151.4 244.3 154.2 241.5 157.6 241.5H159.8V287.9Z" fill="#263238"/>
<path d="M157.7 310.3C157.6 310.3 157.4 276.6 157.4 235.1C157.4 193.5 157.5 159.9 157.7 159.9C157.9 159.9 158 193.6 158 235.1C157.9 276.6 157.8 310.3 157.7 310.3Z" fill="#455A64"/>
<path d="M243.2 345.7C245 346.5 246.8 347.3 248.6 348.1L266.6 308.2C264.8 307.2 263 306.2 261.3 305.2C255.3 318.6 249.2 332.2 243.2 345.7Z" fill="#FF0303"/>
<path d="M126.4 364.3H30C23.7 364.3 18.6 359.2 18.6 352.9V278.9C18.6 272.6 23.7 267.5 30 267.5H126.4C132.7 267.5 137.8 272.6 137.8 278.9V352.9C137.8 359.2 132.7 364.3 126.4 364.3Z" fill="white"/>
<path d="M83 361.4C84.2 364.4 107.9 386.6 107.9 386.6V361.4H83Z" fill="#FF725E"/>
<path d="M99.6 289C98.4 285.2 95.7 282 92.2 280.2C88.3 278.2 83.7 278.1 79.5 279C75.3 280 71.4 282 67.7 284.3C65.6 285.6 63.6 287 62.1 288.9C59.4 292.4 56.9 298.2 56.7 302.7C56.6 306.3 58.2 315.2 59.8 318.4C60.4 319.5 61.7 320.5 63.3 321.4C65 324.6 67.3 327.4 70 329.8C70.8 327.4 71.5 324.9 72.3 322.5L99.6 289Z" fill="#263238"/>
<path d="M97.4 284.7L90.3 283.6C94.4 292.7 96.1 313.7 98.6 323.3C101.1 319.4 106.8 307.8 106.4 303.2C105.9 298.7 105.8 283.6 97.4 284.7Z" fill="#263238"/>
<path d="M64.4 300.9C64.6 295.5 68 291 73.2 289.5L89.4 284.9C96.4 283.9 101.3 292.4 102 299.5C102.7 307.3 103.3 315.6 102.5 321.5C101 333.3 92 335.1 92 335.1C92 335.1 92.2 340.7 92.2 344.1L89.6 359.5L68.3 341.3L64.4 301C64.3 300.9 64.4 301.2 64.4 300.9Z" fill="#FFBF9D"/>
<path d="M98.3 309.3C98.4 310.1 97.7 310.8 96.9 310.9C96.1 311 95.4 310.4 95.3 309.6C95.2 308.8 95.9 308.1 96.7 308C97.6 307.9 98.3 308.5 98.3 309.3Z" fill="#263238"/>
<path d="M100.3 304.2C100.1 304.4 99 303.6 97.3 303.7C95.7 303.7 94.5 304.6 94.3 304.4C94.2 304.3 94.4 303.9 94.9 303.6C95.4 303.2 96.3 302.8 97.3 302.8C98.3 302.8 99.2 303.1 99.7 303.5C100.2 303.8 100.4 304.1 100.3 304.2Z" fill="#263238"/>
<path d="M83.7 309.3C83.8 310.1 83.1 310.8 82.3 310.9C81.5 311 80.8 310.4 80.7 309.6C80.6 308.8 81.3 308.1 82.1 308C83 307.9 83.7 308.5 83.7 309.3Z" fill="#263238"/>
<path d="M84.9 304.6C84.7 304.8 83.6 304 81.9 304.1C80.3 304.1 79.1 305 78.9 304.8C78.8 304.7 79 304.3 79.5 304C80 303.6 80.9 303.2 81.9 303.2C82.9 303.2 83.8 303.5 84.3 303.9C84.8 304.2 84.9 304.5 84.9 304.6Z" fill="#263238"/>
<path d="M90.3 317.2C90.3 317.1 91.3 316.9 92.9 316.6C93.3 316.5 93.7 316.5 93.8 316.2C93.9 315.9 93.7 315.5 93.5 315C93.1 314 92.6 313 92.2 311.9C90.4 307.5 89 303.8 89.2 303.7C89.4 303.6 91 307.2 92.9 311.6C93.3 312.7 93.8 313.7 94.2 314.7C94.4 315.2 94.7 315.7 94.5 316.3C94.4 316.6 94.1 316.8 93.8 316.9C93.5 317 93.3 317 93.1 317C91.3 317.3 90.3 317.3 90.3 317.2Z" fill="#263238"/>
<path d="M76.2 331.4C76.2 331.4 80.3 339.4 92 337.9L91.9 335.1C92 335.1 84.2 335.8 76.2 331.4Z" fill="#FF9A6C"/>
<path d="M84.2 298.8C84 299.3 82.4 299.1 80.5 299.4C78.6 299.6 77.1 300.3 76.8 299.9C76.7 299.7 76.9 299.3 77.5 298.8C78.1 298.3 79.1 297.9 80.2 297.8C81.3 297.7 82.4 297.8 83.1 298C83.9 298.2 84.2 298.6 84.2 298.8Z" fill="#263238"/>
<path d="M99.6 299.2C99.3 299.6 98.2 299.2 96.8 299.2C95.5 299.2 94.3 299.5 94 299.2C93.9 299 94.1 298.6 94.5 298.3C95 297.9 95.8 297.6 96.7 297.6C97.6 297.6 98.4 297.9 98.9 298.3C99.6 298.7 99.7 299.1 99.6 299.2Z" fill="#263238"/>
<path d="M98.4 288.9C97.6 287.1 95.7 286.1 93.7 286.1C91.8 286.1 89.9 286.8 88.3 287.8C81.4 292 78.1 301.9 71.3 306.3C69.6 307.4 67.4 306.5 66 307.9C64.6 309.3 63.7 311.5 64.6 313.3C63.6 312.1 62.6 310.8 62.1 309.3C61.6 307.8 61.4 306.1 62.2 304.7C62.8 303.7 63.8 302.8 64.1 301.7C64.3 300.7 63.9 299.6 63.9 298.6C63.9 297.5 64.4 296.5 64.9 295.6C67.5 290.7 71.1 286.3 75.8 283.5C78.9 281.6 82.5 280.5 86 280.5C89.6 280.5 93.2 281.7 95.9 284.1C97.5 285.5 99.2 286.9 98.4 288.9Z" fill="#263238"/>
<path d="M66.2 309.4C66.1 309.1 59.9 307 60 313.5C60.1 319.8 66.5 318.4 66.5 318.2C66.5 318.1 66.2 309.4 66.2 309.4Z" fill="#FFBF9D"/>
<path d="M64.5 315.9C64.5 315.9 64.4 316 64.2 316.1C64 316.2 63.7 316.2 63.4 316.1C62.7 315.9 62.1 314.8 62.1 313.7C62.1 313.1 62.2 312.6 62.4 312.1C62.6 311.6 62.9 311.3 63.2 311.2C63.5 311.1 63.8 311.3 63.9 311.5C64 311.7 63.9 311.8 64 311.8C64 311.8 64.1 311.7 64.1 311.4C64.1 311.3 64 311.1 63.8 311C63.6 310.9 63.4 310.8 63.2 310.9C62.7 310.9 62.3 311.4 62.1 311.9C61.9 312.4 61.7 313 61.8 313.7C61.9 315 62.5 316.2 63.5 316.4C64 316.5 64.3 316.4 64.5 316.2C64.5 316.1 64.5 315.9 64.5 315.9Z" fill="#FF9A6C"/>
<path d="M63.6 306.2C63.6 306.2 63.7 306.1 64 306C64.2 305.8 64.6 305.6 65 305.3C65.9 304.6 67.1 303.6 68.3 302.1C69.6 300.6 70.9 298.7 72.3 296.6C73.7 294.5 75.3 292.1 77.3 289.9C78.3 288.9 79.4 287.9 80.6 287.1C81.8 286.3 83 285.8 84.2 285.3C86.6 284.4 89 284.2 90.9 284.3C92.8 284.4 94.4 284.7 95.4 285.1C95.9 285.2 96.3 285.4 96.6 285.5C96.9 285.6 97 285.6 97 285.6C97 285.6 96.9 285.5 96.6 285.4C96.3 285.3 95.9 285.1 95.4 284.9C94.4 284.5 92.8 284.1 90.8 284C88.9 283.9 86.5 284.1 84 285C82.8 285.4 81.5 286 80.3 286.8C79.1 287.6 78 288.5 77 289.6C74.9 291.8 73.4 294.2 71.9 296.3C70.5 298.4 69.2 300.4 67.9 301.9C66.6 303.4 65.5 304.5 64.7 305.1C64.3 305.4 63.9 305.7 63.7 305.9C63.8 306.1 63.6 306.2 63.6 306.2Z" fill="white"/>
<path d="M65.3 308C65.2 309.7 65.2 311.6 66.1 313.1C66.9 314.6 69 315.6 70.5 314.7C71.7 314 72 312.4 72.2 311C72.7 307 72.8 302.9 73.4 298.8L65.3 308Z" fill="#263238"/>
<path d="M96.8 285.9C96.8 285.9 96.2 285.8 95.2 285.8C94.2 285.8 92.7 286 91 286.7C90.2 287.1 89.3 287.5 88.4 288.1C87.5 288.7 86.6 289.4 85.7 290.2C83.9 291.8 82.1 293.8 80.6 296.1C79.8 297.2 79.2 298.4 78.4 299.5C77.7 300.6 76.8 301.6 75.9 302.4C74.1 304 72.2 305.2 70.7 306.1C69.1 307 67.8 307.6 66.8 308.1C66.4 308.3 66 308.5 65.7 308.6C65.5 308.7 65.3 308.8 65.3 308.7C65.3 308.7 65.4 308.6 65.6 308.5C65.9 308.4 66.2 308.2 66.6 308C67.5 307.5 68.8 306.9 70.4 305.9C72 304.9 73.8 303.8 75.6 302.1C76.5 301.3 77.3 300.3 78 299.2C78.7 298.1 79.4 296.9 80.2 295.8C81.8 293.5 83.6 291.5 85.4 289.9C86.3 289.1 87.2 288.4 88.1 287.8C89 287.2 89.9 286.7 90.8 286.4C92.5 285.7 94 285.6 95.1 285.6C95.6 285.6 96 285.7 96.3 285.7C96.6 285.9 96.8 285.9 96.8 285.9Z" fill="#455A64"/>
<path d="M65 304C65 304 64.8 304.2 64.4 304.4C64 304.7 63.4 305 62.8 305.4C62.6 305.5 62.5 305.6 62.3 305.7C62.1 305.8 61.9 305.9 61.6 305.9C61.5 305.9 61.3 305.9 61.2 305.8C61.1 305.7 61 305.6 61 305.4C61 305.1 61.2 304.8 61.3 304.6C61.8 303.7 62.4 302.6 63.1 301.6L63.4 301.8C62.8 302.3 62.1 302.6 61.4 302.9C60.6 303.1 59.9 303.3 59.1 303.2C58.9 303.2 58.7 303.2 58.5 303.1C58.3 303 58.1 302.9 58 302.7C57.9 302.5 58 302.2 58.1 302.1C58.2 301.9 58.3 301.8 58.4 301.7C59.3 300.8 60 299.8 60.5 298.9C61.5 297.2 61.7 295.9 61.8 295.9C61.8 295.9 61.8 296.2 61.6 296.8C61.4 297.3 61.2 298.1 60.7 299C60.2 299.9 59.6 300.9 58.6 301.9C58.4 302.1 58.1 302.4 58.2 302.6C58.3 302.8 58.6 302.9 59 302.9C59.7 302.9 60.4 302.8 61.1 302.6C61.8 302.4 62.4 302 63 301.6L63.7 301L63.2 301.8C62.5 302.9 61.9 303.9 61.4 304.8C61.3 305 61.1 305.2 61.2 305.4C61.2 305.6 61.4 305.7 61.6 305.7C62 305.7 62.4 305.4 62.7 305.2C63.4 304.8 63.9 304.5 64.3 304.3C64.8 304.1 65 304 65 304Z" fill="white"/>
<path d="M84.2 320.4C84.4 319.4 85.4 318.7 86.3 318.7C87 318.7 87.7 319.2 88 319.9C88.3 320.6 88.4 321.3 88.2 322V322.1C87.6 322.9 86.4 323.1 85.5 322.7C84.6 322.4 84 321.4 84.2 320.4Z" fill="#FF9A6C"/>
<path d="M89.4 322.2C89.4 322 87.8 322.1 86.5 320.8C85.2 319.5 85.3 317.7 85 317.7C84.9 317.7 84.7 318.1 84.8 318.8C84.8 319.5 85.1 320.6 85.9 321.4C86.7 322.2 87.7 322.5 88.3 322.5C89 322.5 89.4 322.3 89.4 322.2Z" fill="#263238"/>
<path d="M115.6 352.6L115.4 352.4C107.2 343.7 92.1 340.8 92.1 340.8C92.1 340.8 91.2 346.5 82.7 347.1C74.3 347.7 68 339.1 68 339.1L56.7 340.7C56.7 340.7 51 341.4 47.5 343.5C39.5 348.2 35.3 364.3 35.3 364.3L122.3 364.7L115.6 352.6Z" fill="#FF725E"/>
<path d="M123.5 267.5C123.5 267.5 123.7 267.5 124.1 267.5C124.5 267.5 125.1 267.5 125.9 267.7C127.4 268 129.8 268.6 132.3 270.5C133.5 271.4 134.7 272.7 135.7 274.3C136.7 275.9 137.5 277.9 137.8 280.1C137.9 281.2 137.9 282.4 137.9 283.5C137.9 284.7 137.9 285.9 137.9 287.2C137.9 289.7 137.9 292.4 137.9 295.2C137.9 306.5 137.9 320.2 138 335.9C138 339.8 138 343.8 138 348C138 349 138 350.1 137.9 351.1C137.8 352.2 137.6 353.2 137.3 354.3C136.7 356.4 135.5 358.3 134.1 359.9C132.6 361.5 130.7 362.8 128.6 363.6L127.8 363.9L127 364.1C126.4 364.3 125.9 364.3 125.3 364.4C124.2 364.5 123 364.5 121.9 364.5C117.3 364.5 112.7 364.5 107.9 364.5L108.1 364.3C108.1 371.3 108.1 378.8 108.1 386.5V387.1L107.7 386.7C104 383.2 100.3 379.7 96.5 376C92.7 372.3 88.9 368.5 85.2 364.5L85.4 364.6C73.6 364.6 61.2 364.6 48.7 364.6C44.9 364.6 41.2 364.6 37.4 364.6H34.6C33.7 364.6 32.7 364.6 31.8 364.5C29.9 364.3 28.1 363.8 26.4 363C23 361.3 20.4 358.3 19.3 354.8C18.7 353.1 18.5 351.2 18.5 349.4C18.5 347.6 18.5 345.8 18.5 344C18.5 329.7 18.5 315.9 18.5 302.8C18.5 296.2 18.5 289.8 18.5 283.6C18.5 282.1 18.5 280.5 18.8 278.9C19.1 277.4 19.7 275.9 20.4 274.6C21.2 273.3 22.1 272.1 23.3 271.1C24.4 270.1 25.7 269.2 27 268.6C28.4 268 29.8 267.6 31.2 267.4C32.6 267.2 34.1 267.3 35.5 267.3C38.3 267.3 41.1 267.3 43.8 267.3C49.2 267.3 54.4 267.3 59.4 267.3C79.2 267.3 95.3 267.4 106.4 267.4C111.9 267.4 116.2 267.4 119.2 267.4C120.6 267.4 121.8 267.4 122.5 267.4C123.2 267.5 123.5 267.5 123.5 267.5C123.5 267.5 123.1 267.5 122.4 267.5C121.6 267.5 120.5 267.5 119.1 267.5C116.2 267.5 111.9 267.5 106.3 267.5C95.2 267.5 79.1 267.5 59.3 267.6C54.3 267.6 49.1 267.6 43.7 267.6C41 267.6 38.2 267.6 35.4 267.6C34 267.6 32.6 267.6 31.2 267.7C29.8 267.8 28.4 268.3 27.1 268.9C25.8 269.5 24.6 270.3 23.5 271.3C22.4 272.3 21.5 273.4 20.7 274.7C20 276 19.4 277.4 19.1 278.9C18.8 280.4 18.8 281.9 18.8 283.5C18.8 289.7 18.8 296.1 18.8 302.7C18.8 315.8 18.8 329.6 18.8 343.9C18.8 345.7 18.8 347.5 18.8 349.3C18.8 351.1 19 352.9 19.6 354.5C20.7 357.9 23.3 360.8 26.5 362.4C28.1 363.2 29.9 363.7 31.7 363.9C32.6 364 33.5 364 34.5 364H37.3C41 364 44.8 364 48.6 364C61.2 364 73.5 364 85.3 364H85.4L85.5 364.1C89.2 368.1 93 371.9 96.8 375.6C100.6 379.3 104.3 382.9 108 386.3L107.6 386.5C107.6 378.8 107.6 371.3 107.6 364.3V364.1H107.8C112.6 364.1 117.2 364.1 121.8 364.1C123 364.1 124.1 364.1 125.2 364C125.8 363.9 126.3 363.9 126.8 363.7L127.6 363.5L128.4 363.2C130.5 362.4 132.3 361.2 133.8 359.6C135.3 358 136.4 356.1 137 354.1C137.3 353.1 137.5 352.1 137.6 351C137.7 350 137.7 348.9 137.7 347.9C137.7 343.8 137.7 339.7 137.7 335.8C137.7 320.2 137.7 306.4 137.8 295.1C137.8 292.3 137.8 289.6 137.8 287.1C137.8 285.8 137.8 284.6 137.8 283.4C137.8 282.2 137.8 281.1 137.7 280C137.4 277.8 136.7 275.9 135.7 274.3C134.7 272.7 133.5 271.5 132.3 270.5C129.9 268.6 127.5 268 126 267.7C125.2 267.6 124.6 267.5 124.2 267.5C123.7 267.5 123.5 267.5 123.5 267.5Z" fill="#263238"/>
<path d="M352.6 388.8H466.2C472.5 388.8 477.7 383.7 477.7 377.3V289.4C477.7 283.1 472.6 277.9 466.2 277.9H352.6C346.3 277.9 341.1 283 341.1 289.4V377.3C341.2 383.7 346.3 388.8 352.6 388.8Z" fill="white"/>
<path d="M403.9 385.5C402.5 388.9 375.4 414.3 375.4 414.3V385.5H403.9Z" fill="#455A64"/>
<path d="M393.4 362.2C393.4 358.7 393.4 355.8 393.4 355.4C393.4 355.4 381.6 354.3 380.7 342.6C380.3 336.9 380.4 325.2 380.6 314.6C380.8 303.2 389.8 293.9 401.2 293.2L402.3 293.1C414.5 293.1 421.4 303.5 421.1 315.7L420.7 361.6L400.9 377.5L399.5 377.4L393.4 362.2Z" fill="#FFBF9D"/>
<path d="M393.4 355.5C393.4 355.5 400.8 355.5 408.4 350.1C408.4 350.1 405.2 358.9 393.4 358.5V355.5Z" fill="#FF9A6C"/>
<path d="M400.6 319.7C400.8 319.9 402.2 318.9 404.2 318.8C406.2 318.7 407.6 319.8 407.8 319.5C407.9 319.4 407.7 319 407 318.5C406.4 318 405.3 317.6 404.1 317.6C402.9 317.6 401.9 318.1 401.3 318.6C400.7 319.1 400.5 319.6 400.6 319.7Z" fill="#263238"/>
<path d="M402 325C402 325.8 402.8 326.5 403.6 326.5C404.5 326.5 405.2 325.8 405.1 325C405.1 324.2 404.3 323.5 403.5 323.5C402.7 323.5 402 324.2 402 325Z" fill="#263238"/>
<path d="M395.5 333.2C395.5 333.1 394.4 333 392.5 332.8C392 332.8 391.6 332.7 391.5 332.4C391.4 332.1 391.5 331.6 391.7 331C392.1 329.9 392.5 328.7 392.8 327.4C394.4 322.3 395.5 318.1 395.3 318C395.1 317.9 393.6 322 392.1 327.1C391.7 328.4 391.3 329.6 391 330.7C390.9 331.2 390.6 331.8 390.9 332.5C391 332.8 391.4 333.1 391.7 333.1C392 333.2 392.3 333.2 392.5 333.2C394.4 333.4 395.5 333.4 395.5 333.2Z" fill="#263238"/>
<path d="M401.6 313.4C401.8 313.8 403.4 313.5 405.2 313.6C407.1 313.7 408.6 314.2 408.8 313.7C408.9 313.5 408.6 313.1 408 312.7C407.4 312.3 406.4 311.9 405.3 311.9C404.2 311.9 403.2 312.1 402.5 312.4C401.8 312.8 401.5 313.2 401.6 313.4Z" fill="#263238"/>
<path d="M383.2 314.5C383.4 314.9 384.9 314.5 386.8 314.5C388.7 314.4 390.2 314.7 390.4 314.4C390.5 314.2 390.2 313.9 389.5 313.6C388.9 313.3 387.9 313.1 386.8 313.1C385.7 313.1 384.7 313.4 384.1 313.7C383.4 314 383.1 314.3 383.2 314.5Z" fill="#263238"/>
<path d="M420.7 324.5C420.9 324.4 428.6 321.6 428.8 329.7C429 337.7 420.9 336.3 420.9 336.1C420.9 335.8 420.7 324.5 420.7 324.5Z" fill="#FFBF9D"/>
<path d="M423.3 332.9C423.3 332.9 423.4 333 423.7 333.1C423.9 333.2 424.3 333.3 424.7 333.1C425.5 332.8 426.2 331.4 426.2 330C426.2 329.3 426 328.6 425.7 328C425.4 327.4 425.1 327 424.6 327C424.2 326.9 423.9 327.2 423.8 327.4C423.7 327.6 423.8 327.8 423.7 327.8C423.7 327.8 423.5 327.7 423.6 327.3C423.6 327.1 423.7 326.9 423.9 326.8C424.1 326.6 424.4 326.6 424.7 326.6C425.3 326.6 425.9 327.2 426.2 327.8C426.5 328.4 426.7 329.2 426.7 330C426.7 331.6 425.9 333.2 424.8 333.5C424.2 333.7 423.8 333.5 423.5 333.3C423.3 333.1 423.3 333 423.3 332.9Z" fill="#FF9A6C"/>
<path d="M398 340.1C397.9 339.9 399.5 339.5 400.6 338C401.2 337.3 401.5 336.5 401.7 335.9C401.9 335.3 402.1 335 402.2 335C402.3 335 402.3 335.4 402.1 336C402 336.6 401.7 337.5 401 338.3C400.4 339.1 399.5 339.6 398.9 339.8C398.4 340.1 398 340.1 398 340.1Z" fill="#263238"/>
<path d="M431.5 311.7C429.9 308.8 429.5 305.5 428.6 302.3C427.7 299.1 426 295.8 422.9 294.7H422.8C420 293.6 416.6 293.5 414.3 295.4C413.8 291.2 410.2 287.9 406.1 286.8C402 285.7 395.5 286.2 391.6 287.8C388.6 289 385.6 291.4 382 295C380.5 296.5 379.1 298.2 377.8 299.9L374.1 310.8L377.1 316.6C377.3 317 377.5 317.4 377.7 317.8L380.3 329.9C380.5 326.6 380.4 315.1 380.6 311.9C385.7 311.8 390.3 309.8 393.8 306C395.6 304 397.1 301.5 399.5 300.4C402.6 298.9 406.3 300.1 409.6 301.3L409.5 301.2C411.2 302 412.7 303.2 414 304.5C413.2 311 413.8 317.6 415.7 323.9C416 324.8 416.8 326.8 417.7 327.1C419.5 327.8 420 326 421.1 325C421.9 324.3 423.1 324.2 424.4 324.2C425.2 322.2 426 318.8 426.7 315.9C427.8 316.2 428.9 316.4 430.1 316.2C429.8 315.4 429.4 314.5 429.1 313.7C429.6 314 430 314.3 430.5 314.4C431 314.5 431.6 314.3 431.9 313.8C432.3 313 431.9 312.2 431.5 311.7Z" fill="#263238"/>
<path d="M410.7 296.6C410.7 296.6 411.2 296.9 411.9 297.7C412.6 298.5 413.3 299.8 413.7 301.6C413.9 302.5 414 303.5 414 304.6C414 305.7 413.9 306.8 413.8 308.1C413.7 309.3 413.6 310.6 413.7 311.9C413.7 312.6 413.8 313.3 413.9 313.9C414 314.6 414.2 315.3 414.7 315.9C415.1 316.4 415.8 316.6 416.3 316.5C416.9 316.4 417.4 316.1 417.8 315.7C418.6 314.8 418.8 313.7 419 312.7H418.8C419.2 313.6 419.6 314.5 420.2 315.2C420.8 315.9 421.6 316.4 422.5 316.5C422.9 316.5 423.4 316.5 423.7 316.3C424.1 316.1 424.3 315.8 424.5 315.5C424.7 315.2 424.8 314.8 424.8 314.5C424.8 314.1 424.7 313.8 424.4 313.6L424.3 313.7C425.2 314.7 426.1 315.3 426.8 315.6C427.1 315.8 427.4 315.8 427.6 315.9C427.8 316 427.9 316 427.9 316C427.9 316 427.8 316 427.6 315.9C427.4 315.8 427.2 315.7 426.8 315.5C426.2 315.2 425.3 314.6 424.4 313.5L424.3 313.6C424.7 314 424.7 314.8 424.4 315.3C424.2 315.6 424 315.9 423.6 316C423.3 316.1 422.9 316.2 422.5 316.2C421.7 316.1 421 315.7 420.4 315C419.8 314.3 419.4 313.5 419.1 312.6L418.9 312.2L418.8 312.6C418.6 313.6 418.4 314.6 417.7 315.4C417.3 315.8 416.9 316 416.4 316.1C415.9 316.2 415.4 316 415 315.6C414.6 315.1 414.4 314.4 414.3 313.7C414.2 313 414.1 312.4 414.1 311.7C414 310.4 414.1 309.1 414.2 307.9C414.3 306.7 414.4 305.5 414.4 304.4C414.4 303.3 414.3 302.3 414.1 301.4C413.7 299.6 413 298.2 412.2 297.5C411.3 296.9 410.7 296.6 410.7 296.6Z" fill="#455A64"/>
<path d="M374.4 307.6C374.6 307.7 374.7 307.8 374.8 307.9C374.9 308 375.1 308.1 375.3 308.2C375.5 308.3 375.7 308.5 376 308.6C377.1 309.1 378.8 309.7 381 309.6C383.2 309.5 385.8 308.8 388.1 307.1C390.5 305.5 392.6 303 394.3 300.2C395.2 298.8 395.9 297.3 396.7 296C397.5 294.7 398.3 293.4 399.4 292.5C400.4 291.5 401.6 290.8 402.8 290.5C403.4 290.3 404 290.3 404.6 290.3C405.2 290.3 405.7 290.5 406.2 290.6C407.2 291 408 291.5 408.6 292.1C409.2 292.7 409.6 293.3 409.9 293.8C410.4 294.9 410.4 295.6 410.5 295.6C410.5 295.6 410.5 295.6 410.5 295.5C410.5 295.4 410.5 295.3 410.5 295.1C410.5 294.8 410.3 294.3 410.1 293.8C409.8 293.3 409.4 292.6 408.8 292C408.2 291.4 407.4 290.8 406.3 290.4C405.8 290.2 405.2 290.1 404.6 290C404 290 403.4 290 402.7 290.2C401.5 290.5 400.2 291.2 399.2 292.2C398.1 293.2 397.3 294.4 396.5 295.8C395.7 297.2 395 298.6 394.1 300C392.4 302.8 390.3 305.2 388 306.9C385.7 308.6 383.2 309.3 381 309.4C378.9 309.5 377.1 309 376.1 308.5C374.9 308 374.4 307.5 374.4 307.6Z" fill="#455A64"/>
<path d="M382.7 320.2C382.9 320.4 384.3 319.4 386.3 319.3C388.3 319.2 389.7 320.3 389.9 320C390 319.9 389.8 319.5 389.1 319C388.5 318.5 387.4 318.1 386.2 318.1C385 318.1 384 318.6 383.4 319.1C382.8 319.6 382.6 320.1 382.7 320.2Z" fill="#263238"/>
<path d="M385.7 325.3C385.7 326.1 386.5 326.8 387.3 326.8C388.2 326.8 388.9 326.1 388.8 325.3C388.8 324.5 388 323.8 387.2 323.8C386.4 323.8 385.7 324.4 385.7 325.3Z" fill="#263238"/>
<path d="M379 298.5C378 299.8 376.5 301 374.8 300.8C374.3 300.8 373 300.3 373 300.3C372.4 300.7 372.6 302.6 373 303.2C373.4 303.7 374.2 304.5 374.2 304.5C372.3 305.5 370.5 305 368.5 304.3C368.9 307.8 371.2 311 374.5 312.4C375.5 312.8 376.8 313.1 377.7 312.5C378.5 312 378.9 310.9 379.1 310C380 306.5 380.5 302.9 380.5 299.2L379 298.5Z" fill="#263238"/>
<path d="M366.6 375.5L366.8 375.2C376.2 365.3 393.4 362 393.4 362C393.4 362 394.5 368.5 404.1 369.2C413.7 369.9 421 360 421 360L433.9 361.8C433.9 361.8 440.4 362.6 444.4 364.9C453.5 370.3 458.4 388.8 458.4 388.8L358.8 389.2L366.6 375.5Z" fill="#455A64"/>
<path d="M357.5 278C357.5 278 357.3 278 356.8 278C356.6 278 356.3 278 355.9 278C355.6 278 355.2 278.1 354.7 278.2C352.9 278.5 350.2 279.2 347.5 281.4C346.1 282.5 344.8 283.9 343.6 285.7C342.5 287.5 341.6 289.7 341.3 292.2C341.2 293.4 341.2 294.7 341.2 296.1C341.2 297.5 341.2 298.9 341.2 300.3C341.2 303.2 341.2 306.3 341.2 309.5C341.2 322.5 341.2 338.2 341.2 356.1C341.2 360.6 341.2 365.2 341.2 369.9C341.2 371.1 341.2 372.3 341.3 373.5C341.4 374.7 341.6 375.9 341.9 377C342.6 379.3 343.9 381.5 345.5 383.3C347.2 385.1 349.3 386.6 351.7 387.4L352.6 387.7L353.5 387.9C354.1 388.1 354.7 388.1 355.4 388.3C356.7 388.4 358 388.4 359.3 388.4C364.5 388.4 369.9 388.4 375.3 388.4H375.5V388.6C375.5 396.6 375.5 405.2 375.5 414.1L375.1 413.9C379.3 409.9 383.6 405.8 387.9 401.6C392.2 397.4 396.6 393.1 400.9 388.5L401 388.4H401.1C414.6 388.4 428.8 388.4 443.2 388.4C447.5 388.4 451.8 388.4 456.1 388.4C457.2 388.4 458.2 388.4 459.3 388.4C460.4 388.4 461.4 388.4 462.5 388.3C464.6 388.1 466.6 387.5 468.5 386.6C472.2 384.7 475.1 381.4 476.4 377.5C477.1 375.6 477.3 373.5 477.3 371.5C477.3 369.4 477.3 367.4 477.3 365.3C477.3 348.9 477.3 333.2 477.3 318.1C477.3 310.6 477.3 303.3 477.3 296.1C477.3 294.3 477.3 292.6 477 290.9C476.6 289.2 476 287.6 475.2 286.1C474.4 284.6 473.3 283.3 472 282.2C470.8 281.1 469.4 280.1 467.9 279.5C466.4 278.8 464.8 278.3 463.2 278.2C461.6 278 460 278.1 458.3 278.1C455.1 278.1 451.9 278.1 448.8 278.1C442.6 278.1 436.6 278.1 431 278.1C408.3 278.1 389.9 278 377.2 278C370.8 278 365.9 278 362.6 278C360.9 278 359.7 278 358.8 278C358 278 357.5 278 357.5 278C357.5 278 357.9 278 358.8 278C359.7 278 360.9 278 362.6 278C366 278 370.9 278 377.2 278C389.9 278 408.3 278 431 277.9C436.7 277.9 442.6 277.9 448.8 277.9C451.9 277.9 455.1 277.9 458.3 277.9C459.9 277.9 461.5 277.9 463.2 278C464.9 278.2 466.5 278.7 468 279.4C469.5 280.1 471 281 472.3 282.2C473.6 283.3 474.7 284.7 475.6 286.2C476.5 287.7 477.1 289.4 477.5 291.1C477.9 292.9 477.8 294.7 477.8 296.4C477.8 303.5 477.8 310.9 477.8 318.4C477.8 333.4 477.8 349.2 477.8 365.6C477.8 367.6 477.8 369.7 477.8 371.8C477.8 373.9 477.6 376 476.9 378C475.5 382 472.6 385.5 468.7 387.4C466.8 388.4 464.7 389 462.5 389.2C461.4 389.3 460.4 389.3 459.3 389.3C458.2 389.3 457.2 389.3 456.1 389.3C451.8 389.3 447.5 389.3 443.2 389.3C428.8 389.3 414.7 389.3 401.1 389.3L401.3 389.2C397.1 393.8 392.7 398.1 388.3 402.3C384 406.5 379.7 410.6 375.4 414.6L375 415V414.4C375 405.6 375 397 375 388.9L375.2 389.1C369.7 389.1 364.4 389.1 359.2 389.1C357.9 389.1 356.6 389.1 355.3 389C354.7 388.9 354 388.8 353.4 388.6L352.4 388.4L351.5 388.1C349.1 387.2 346.9 385.7 345.2 383.9C343.5 382 342.2 379.8 341.5 377.5C341.2 376.3 340.9 375.1 340.8 373.9C340.7 372.7 340.8 371.5 340.7 370.3C340.7 365.5 340.7 360.9 340.7 356.5C340.7 338.6 340.7 322.9 340.7 309.9C340.7 306.7 340.7 303.6 340.7 300.7C340.7 299.2 340.7 297.8 340.7 296.5C340.7 295.1 340.7 293.8 340.8 292.6C341.1 290.1 342 287.8 343.2 286C344.3 284.2 345.7 282.7 347.1 281.7C349.9 279.5 352.6 278.8 354.4 278.5C354.9 278.4 355.3 278.4 355.6 278.3C355.9 278.3 356.2 278.3 356.5 278.3C357.3 278 357.5 278 357.5 278Z" fill="#263238"/>
<path d="M199.8 270.4L199.7 274.2L232.4 280L236.5 280.8L243.9 281.9L248.9 282.4L242.8 272.1L199.8 270.4Z" fill="#FF0303"/>
</g>
<defs>
<clipPath id="clip0">
<rect width="500" height="500" fill="white"/>
</clipPath>
</defs>
</svg>
