<svg width="40" height="42" viewBox="0 0 40 42" fill="none" xmlns="http://www.w3.org/2000/svg">
<path d="M35.6967 9.76756C35.6916 9.21114 35.2436 8.77039 34.7136 8.77039H5.04237C4.51237 8.77039 4.0644 9.21114 4.0594 9.76756C4.05933 9.77158 4.05933 9.7756 4.05933 9.77953V30.8015C4.05933 31.4907 4.59144 32.0494 5.24776 32.0494H34.5083C35.1646 32.0494 35.6967 31.4907 35.6967 30.8015V9.77953C35.6967 9.77552 35.6967 9.7715 35.6967 9.76756Z" fill="#009AEF"/>
<path d="M5.66917 30.8015V9.77953C5.66917 9.7756 5.66917 9.77158 5.66925 9.76756C5.67433 9.21114 6.1223 8.77039 6.6523 8.77039H5.04245C4.51245 8.77039 4.06448 9.21114 4.0594 9.76756C4.05933 9.77158 4.05933 9.7756 4.05933 9.77953V30.8015C4.05933 31.4907 4.59144 32.0494 5.24776 32.0494H6.85753C6.2012 32.0494 5.66917 31.4907 5.66917 30.8015Z" fill="#057ED8"/>
<path d="M20.444 21.6903C20.1081 21.9526 19.6481 21.9526 19.3123 21.6903L18.1819 20.8076L5.2478 32.0493H34.5083L21.5743 20.8076L20.444 21.6903Z" fill="#00C3FF"/>
<path d="M33.2469 30.9532L21.574 20.8076L20.4437 21.6902C20.1079 21.9525 19.6479 21.9525 19.312 21.6902L18.1817 20.8076L5.24756 32.0493H33.2469V30.9532Z" fill="#00AAF0"/>
<path d="M4.05948 9.77962L4.05933 9.77954V30.8015C4.05933 31.4907 4.59144 32.0494 5.24776 32.0494L18.1819 20.8077L4.05948 9.77962Z" fill="#00AAF0"/>
<path d="M5.66909 30.8015V11.0365L4.05948 9.7795L4.05933 9.77942V30.8014C4.05933 31.3498 4.39675 31.8145 4.86511 31.9819C4.87495 31.9854 4.8844 31.9899 4.8944 31.9932C4.92753 32.004 4.96144 32.0127 4.99565 32.0205C4.99995 32.0215 5.00401 32.0229 5.00823 32.0239C5.08558 32.0405 5.16573 32.0493 5.24776 32.0493L5.87542 31.5038C5.74534 31.3037 5.66909 31.062 5.66909 30.8015Z" fill="#009AEF"/>
<path d="M21.5742 20.8077L34.5084 32.0494C35.1647 32.0494 35.6968 31.4907 35.6968 30.8015V9.77954V9.77962L21.5742 20.8077Z" fill="#00AAF0"/>
<path d="M33.2471 30.9531C33.2471 30.9466 33.2471 14.7546 33.2471 14.748C33.242 14.1916 32.7941 13.7509 32.2641 13.7509H30.611L21.5742 20.8076L33.2471 30.9531Z" fill="#009AEF"/>
<path d="M31.6373 14.748C31.6323 14.1916 31.1843 13.7509 30.6543 13.7509H0.983047C0.453047 13.7509 0.00507813 14.1916 7.8125e-05 14.748C0 14.752 0 14.7561 0 14.76V35.782C0 36.4711 0.532109 37.0298 1.18844 37.0298H30.449C31.1053 37.0298 31.6374 36.4711 31.6374 35.782V14.76C31.6373 14.7561 31.6373 14.752 31.6373 14.748Z" fill="#00AAF0"/>
<path d="M1.60977 35.782V14.76C1.60977 14.7561 1.60977 14.752 1.60984 14.748C1.61492 14.1916 2.06281 13.7509 2.59281 13.7509H0.983047C0.453047 13.7509 0.00507813 14.1916 7.8125e-05 14.748C0 14.752 0 14.7561 0 14.76V35.782C0 36.4711 0.532031 37.0298 1.18844 37.0298H2.7982C2.1418 37.0298 1.60977 36.4711 1.60977 35.782Z" fill="#009AEF"/>
<path d="M16.3846 26.6709C16.0487 26.9332 15.5887 26.9332 15.2529 26.6709L14.1225 25.7882L1.18848 37.0299H30.449L17.5149 25.7882L16.3846 26.6709Z" fill="#5BDDFC"/>
<path d="M1.18848 37.03H2.79824C2.39004 37.03 2.03004 36.8138 1.81613 36.4845L1.18848 37.03Z" fill="#00C3FF"/>
<path d="M0.00015625 14.7602L0 14.7601V35.7821C0 36.4713 0.532109 37.03 1.18844 37.03L14.1225 25.7882L0.00015625 14.7602Z" fill="#00C3FF"/>
<path d="M1.18844 37.03L1.81602 36.4845C1.68602 36.2844 1.60977 36.0426 1.60977 35.7821V16.0172L0.00015625 14.7602L0 14.7601V35.7821C0 36.4713 0.532031 37.03 1.18844 37.03Z" fill="#00AAF0"/>
<path d="M17.5149 25.7882L30.449 37.03C31.1054 37.03 31.6375 36.4713 31.6375 35.7821V14.7601V14.7602L17.5149 25.7882Z" fill="#00C3FF"/>
<path d="M31.6374 22.5316C36.2559 22.5316 39.9999 18.6004 39.9999 13.751C39.9999 8.90156 36.2559 4.97034 31.6374 4.97034C27.0189 4.97034 23.2749 8.90156 23.2749 13.751C23.2749 18.6004 27.0189 22.5316 31.6374 22.5316Z" fill="#FF5050"/>
<path d="M24.8844 13.7509C24.8844 9.18658 28.2013 5.43611 32.4422 5.01078C32.1772 4.9842 31.9089 4.97009 31.6373 4.97009C27.0188 4.97009 23.2747 8.90136 23.2747 13.7508C23.2747 18.6003 27.0187 22.5316 31.6373 22.5316C31.9089 22.5316 32.1772 22.5175 32.4422 22.4909C28.2014 22.0656 24.8844 18.3153 24.8844 13.7509Z" fill="#F24040"/>
<path d="M30.743 16.7919H33.5519C34.5484 16.7919 34.5337 17.6085 34.238 17.9332C34.1213 18.0613 33.9447 18.1253 33.708 18.1253H29.7475C29.4784 18.1253 29.2686 18.0472 29.118 17.8909C28.7938 17.5547 28.8693 17.1888 29.0373 16.8004C29.1341 16.5763 29.2399 16.4002 29.3548 16.2721C29.8318 15.7523 30.2623 15.3069 30.6462 14.9359C31.03 14.5649 31.3044 14.321 31.4695 14.2042C31.7636 13.9857 32.0084 13.7663 32.204 13.5459C32.3994 13.3255 32.5484 13.0995 32.6506 12.8679C33.1056 11.837 32.4877 10.9383 31.5772 10.9383C31.1072 10.9383 30.7377 11.155 30.4687 11.5881C30.4327 11.6446 30.3727 11.7991 30.2884 12.0514C30.0569 12.7446 29.822 12.8368 29.5377 12.8368C29.3584 12.8368 29.2095 12.7746 29.0911 12.6503C28.9727 12.526 28.9135 12.3565 28.9135 12.1418C28.9135 11.1375 29.7034 9.79138 31.6094 9.79138C32.1583 9.79138 32.6264 9.88178 33.0139 10.0626C34.2264 10.6452 34.6329 12.2398 33.9474 13.4273C33.5487 14.1182 33.3405 14.2961 32.1179 15.3455C31.5779 15.8088 31.2075 16.1686 31.0067 16.4247C30.9206 16.5264 30.8327 16.6488 30.743 16.7919Z" fill="#E4EAF8"/>
</svg>
