<svg width="154" height="543" viewBox="0 0 154 543" fill="none" xmlns="http://www.w3.org/2000/svg">
<path d="M141.376 525.601L133.86 529.893L124.576 520.389L121.776 489.882L137.987 487.736L141.376 525.601Z" fill="#F9B995"/>
<path d="M50.4457 532.5L32.6136 522.075L35.5611 492.335H53.2456L50.4457 532.5Z" fill="#F9B995"/>
<path d="M86.7039 224.673C84.0512 274.955 105.273 434.847 109.694 492.335H144.178C136.073 431.168 131.357 326.311 131.799 270.203C132.241 226.666 125.904 210.263 122.957 186.041L93.6302 186.194L86.7039 224.673Z" fill="#B1BD99"/>
<path d="M55.3107 186.501C52.0686 203.364 40.8685 263.458 38.2158 308.528C34.5315 369.542 30.5525 432.548 25.2472 492.335H58.8476C65.6266 363.869 78.4478 307.455 88.3216 252.88C92.5954 229.885 94.9533 213.175 96.427 186.041L55.3107 186.501Z" fill="#B1BD99"/>
<path d="M0.932409 541.544C1.66927 542.157 2.5536 542.31 3.43783 542.31C18.7645 543.23 34.2384 543.23 49.565 542.31C51.0387 542.157 52.3651 540.93 52.5124 539.397C52.8072 535.105 52.8072 530.659 52.2178 526.367C52.0704 525.754 51.4809 525.294 50.8914 525.6C49.565 526.214 48.0914 526.673 46.7651 526.98C44.8493 527.287 42.9333 526.98 41.4596 525.754C38.8069 523.607 38.0701 519.008 33.9437 519.468C32.6173 519.622 31.5858 520.235 30.5542 521.155C25.691 525.754 19.7961 529.433 13.6065 531.579C11.2486 532.346 8.74317 533.112 6.5326 534.032C4.32202 534.952 -2.45713 538.784 0.932409 541.544Z" fill="#231F20"/>
<path d="M91.5637 541.544C92.3006 542.157 93.185 542.31 94.0692 542.31C109.396 543.23 124.87 543.23 140.197 542.31C141.67 542.157 142.997 540.93 143.144 539.397C143.439 535.105 143.439 530.659 142.849 526.367C142.702 525.754 142.112 525.294 141.523 525.6C140.197 526.214 138.723 526.673 137.397 526.98C135.481 527.287 133.565 526.98 132.091 525.754C129.438 523.607 128.702 519.008 124.575 519.468C123.249 519.622 122.217 520.235 121.186 521.155C116.322 525.754 110.428 529.433 104.238 531.579C101.88 532.346 99.3745 533.112 97.164 534.032C94.9534 534.952 88.0268 538.784 91.5637 541.544Z" fill="#231F20"/>
<path d="M151.546 85.6288C150.219 82.1028 149.041 78.7302 146.977 75.5109C145.062 72.4449 142.998 69.2256 142.261 65.5463C141.082 59.4143 143.588 52.3625 140.198 47.1502C138.724 44.8507 136.072 43.1644 135.188 40.5583C134.451 38.4121 134.745 36.1126 134.893 33.9664C135.482 27.9876 135.04 21.8556 132.977 16.1835C130.914 10.6646 126.787 5.60568 121.482 3.45947C116.177 1.15996 109.545 1.92648 105.271 6.0656C97.6081 0.24017 87.1448 -1.59944 78.0078 1.46658C68.8708 4.37929 61.2076 11.891 57.9654 21.2424C56.3444 25.6881 55.9023 30.9003 57.8181 35.3461C58.8497 37.7989 60.6181 39.7918 61.797 42.0913C64.4497 47.9168 62.8286 55.1219 58.997 60.1808C55.3127 65.2397 49.7127 68.6124 46.0285 73.8246C41.7547 80.1099 40.8705 88.6948 43.8179 95.7466C46.7653 102.798 53.397 108.011 60.7655 108.931L138.135 111.383C155.377 124.414 156.262 98.3527 151.546 85.6288Z" fill="#402840"/>
<path d="M112.49 81.1824C103.059 78.423 107.922 62.7864 109.101 50.829L86.5535 71.9844C87.143 74.7438 87.1429 79.1895 82.7218 80.7225C80.806 81.3357 83.606 82.2555 82.7218 85.1682C78.5954 110.463 94.5115 127.632 97.6062 129.319C100.701 131.005 114.406 119.814 114.701 116.748C115.143 112.762 115.733 91.7601 117.354 88.2342C119.122 84.7083 114.406 84.7083 112.49 81.1824Z" fill="#EFA884"/>
<path d="M116.181 46.0772L110.581 53.8954C106.454 61.5603 102.033 67.2324 94.6647 71.2181C92.6015 72.2912 90.2434 73.3643 87.8855 73.0577C84.7907 72.5978 82.4328 70.2983 80.5169 67.6923C73.7378 58.801 70.2009 47.1503 70.9378 35.8062C74.3273 36.2661 77.8643 35.9595 81.1064 34.7331C85.675 33.0468 89.5067 29.521 91.8646 25.2286C91.1278 29.2144 92.012 34.2732 94.2225 37.3392C96.7278 40.8651 100.707 42.8579 104.833 42.8579C107.044 42.8579 109.254 42.0914 111.465 42.5513C113.381 42.8579 115.149 44.2376 116.181 46.0772Z" fill="#F9B995"/>
<path d="M107.184 44.85C107.037 43.1637 107.921 41.3241 109.247 40.4043C110.574 39.4845 112.49 39.4845 113.964 40.251C115.585 41.1708 116.469 43.0104 116.616 44.85C116.911 47.4561 116.027 50.2155 114.258 52.0551C112.49 53.8947 110.279 55.581 107.774 55.2744L107.184 44.85Z" fill="#F9B995"/>
<path d="M85.9628 66.4665C86.6997 66.7731 87.4365 67.0797 88.1734 66.7731C88.7629 66.4665 89.205 65.8533 89.6471 65.3934C90.384 64.167 91.1208 63.0939 91.8577 61.8675C91.4156 61.4076 91.1208 60.9477 90.5313 60.6411C90.0892 60.3346 89.3524 60.1813 88.9102 60.3346C88.3208 60.4879 88.026 60.9477 87.5839 61.4076C86.847 62.0208 85.9627 62.4807 84.9311 62.634C84.3416 62.634 82.7206 62.1741 82.4259 62.4807C81.3943 63.8604 85.226 66.1599 85.9628 66.4665Z" fill="#EFA884"/>
<path d="M58.107 159.518L55.3069 186.346L123.098 185.886C121.772 176.535 122.803 123.646 125.456 114.755L138.278 111.382C137.688 105.863 137.099 100.191 136.509 94.6724C136.067 90.8399 135.625 86.7008 132.825 84.248C130.172 81.6419 126.193 81.4886 122.509 81.3353C119.119 81.3353 115.73 81.182 112.34 81.182C108.951 83.7881 105.856 87.0074 103.35 90.5333C101.287 93.446 99.2238 96.8187 95.9816 98.0451C91.4131 99.7314 86.4025 96.2054 84.3393 91.7597C82.8656 88.3871 82.5707 84.5546 82.7181 80.7221C80.3601 80.7221 78.0023 80.5688 75.497 80.5688C72.2548 80.5688 68.8652 80.4155 65.9178 81.9485C61.4966 84.248 59.1386 89.307 57.2228 94.2126C56.0438 97.1253 54.2753 102.031 53.0963 104.944L66.9493 108.469C66.3598 110.769 66.2124 111.076 65.6229 113.375H49.2646L48.97 113.988L58.107 159.518Z" fill="#FFCBB3"/>
<path d="M49.5642 113.224H65.9224C66.5118 110.924 66.5117 110.618 67.2485 108.318L53.3959 104.792C51.9222 108.318 51.0379 109.698 49.5642 113.224Z" fill="#F9B995"/>
<path d="M84.4919 91.7617C86.5551 96.3607 91.5658 99.7333 96.1343 98.047C99.3764 96.8206 101.44 93.448 103.503 90.5352C106.008 87.0093 109.103 83.79 112.492 81.1839C102.619 81.0306 92.7447 80.8773 82.8708 80.5707C82.7235 84.4032 83.0182 88.2357 84.4919 91.7617Z" fill="#EFA884"/>
<path d="M20.0932 116.747C23.3354 131.157 28.7881 144.955 36.1566 157.525C36.8935 158.752 38.0726 159.365 39.3989 159.365C58.5571 159.518 77.7151 159.365 96.726 159.365H103.947C106.305 159.365 108.074 157.065 107.631 154.612C105.568 144.955 103.652 135.143 101.589 125.485C100.852 122.113 100.852 115.674 97.6103 113.681C94.5155 111.688 88.1785 113.068 84.6416 113.068C79.9258 113.068 35.7146 113.068 22.746 113.068C21.1249 113.221 19.6511 114.908 20.0932 116.747Z" fill="#251A2C"/>
<path d="M29.5226 150.627C28.491 150.474 27.7542 149.707 27.0173 148.941C22.5961 144.189 20.5328 137.29 21.5644 130.698C23.6276 129.932 25.8383 129.012 27.9015 129.932C29.2279 130.545 30.1121 131.771 30.849 132.998C32.6174 135.604 37.1861 140.356 36.5966 143.575C36.0071 145.875 32.0279 151.087 29.5226 150.627Z" fill="#F9B995"/>
<path d="M105.415 134.992C113.079 143.73 121.037 155.074 128.7 163.659C131.206 166.571 134.3 168.411 137.248 168.258C139.753 168.104 142.111 167.185 142.701 164.732C143.29 162.279 143.437 162.126 143.143 159.52C141.522 143.423 139.901 127.48 138.132 111.383L125.311 114.756C126.637 124.107 127.669 132.232 129.142 142.81C121.774 136.065 114.405 129.32 107.037 122.574L105.415 134.992Z" fill="#F9B995"/>
<path d="M96.5787 108.317L97.1682 113.682C97.1682 113.682 85.2312 104.484 80.81 104.944L78.5995 105.404C77.4205 105.711 76.3889 106.171 75.5047 107.09C75.3573 107.244 75.3572 107.244 75.3572 107.244C75.2098 107.55 75.0625 108.317 76.0941 109.543C85.8205 119.661 97.3156 123.953 105.274 135.144L107.042 122.88C106.158 122.114 104.095 119.048 103.653 117.975C101.884 113.836 99.821 109.696 96.8735 106.324C96.284 106.477 96.5787 108.317 96.5787 108.317Z" fill="#F9B995"/>
</svg>
