<svg width="332" height="614" viewBox="0 0 332 614" fill="none" xmlns="http://www.w3.org/2000/svg">
<path d="M182.324 41.886L46.6958 41.6271L46.3721 212.602L182 212.861L317.628 213.056L317.887 42.0802L182.324 41.886Z" fill="white"/>
<path d="M52.4575 11.912C49.2853 11.912 46.7605 14.4368 46.7605 17.609V26.7372V41.6271L317.887 42.0803V27.1904V18.0622C317.887 14.89 315.362 12.3652 312.19 12.3652L52.4575 11.912Z" fill="#D2D6E3"/>
<path d="M64.758 30.4274C63.7869 30.4274 62.8806 30.0389 62.1684 29.3268C61.4563 28.6147 61.0679 27.7083 61.0679 26.7372C61.0679 24.7303 62.6863 23.0471 64.758 23.0471C65.7291 23.0471 66.6354 23.4356 67.3475 24.1477C68.0597 24.8598 68.4481 25.7662 68.4481 26.7372C68.3834 28.8089 66.7649 30.4274 64.758 30.4274ZM64.758 23.7592C63.0748 23.7592 61.7153 25.1188 61.7153 26.802C61.7153 27.5788 62.039 28.3557 62.6216 28.9384C63.2043 29.521 63.9811 29.8447 64.758 29.8447C66.4412 29.8447 67.8007 28.4852 67.8007 26.802C67.8007 26.0251 67.477 25.2482 66.8944 24.6656C66.3117 24.0829 65.5349 23.7592 64.758 23.7592Z" fill="#131F4B"/>
<path d="M78.1589 30.4921C77.1878 30.4921 76.2814 30.1036 75.5693 29.3915C74.8572 28.6794 74.4688 27.773 74.4688 26.8019C74.4688 24.795 76.0872 23.1118 78.1589 23.1118C79.13 23.1118 80.0363 23.5003 80.7484 24.2124C81.4606 24.9245 81.849 25.8309 81.849 26.8019C81.849 27.773 81.4606 28.6794 80.7484 29.3915C80.0363 30.1036 79.13 30.4921 78.1589 30.4921ZM78.1589 23.7592C76.4757 23.7592 75.1161 25.1187 75.1161 26.8019C75.1161 28.4851 76.4757 29.8447 78.1589 29.8447C79.8421 29.8447 81.2016 28.4851 81.2016 26.8019C81.1369 25.1187 79.8421 23.7592 78.1589 23.7592Z" fill="#131F4B"/>
<path d="M91.56 30.4921C91.56 30.4921 91.4952 30.4921 91.56 30.4921C89.5531 30.4921 87.8699 28.8088 87.8699 26.8019C87.8699 25.8309 88.2583 24.9245 88.9704 24.2124C89.6826 23.5003 90.5889 23.1118 91.56 23.1118C93.5669 23.1118 95.2501 24.795 95.2501 26.8019C95.2501 27.773 94.8617 28.6794 94.1495 29.3915C93.4374 30.1036 92.5311 30.4921 91.56 30.4921ZM91.56 23.8239C90.7831 23.8239 90.0063 24.1476 89.4236 24.7303C88.841 25.3129 88.5173 26.0898 88.5173 26.8667C88.5173 28.5499 89.8768 29.9094 91.56 29.9094C93.2432 29.9094 94.6027 28.5499 94.6027 26.8667C94.538 25.1835 93.1785 23.8239 91.56 23.8239Z" fill="#131F4B"/>
<path d="M66.3249 114.613L66.3237 115.26L92.543 115.306L92.5441 114.658L66.3249 114.613Z" fill="#231F20"/>
<path d="M66.2895 121.948L66.2883 122.595L118.662 122.686L118.663 122.039L66.2895 121.948Z" fill="#231F20"/>
<path d="M66.3254 129.395L66.3242 130.043L118.698 130.134L118.699 129.487L66.3254 129.395Z" fill="#231F20"/>
<path d="M66.2968 136.778L66.2957 137.426L118.669 137.517L118.671 136.869L66.2968 136.778Z" fill="#231F20"/>
<path d="M111.046 72.8313C116.225 83.5132 112.665 94.0657 105.22 99.7627C101.659 102.482 97.2567 104.035 92.4661 104.035C87.6754 104.035 83.2731 102.417 79.7125 99.6979C74.7276 95.8783 71.4907 89.8576 71.5554 83.06C71.5554 68.1701 87.1575 56.9055 102.889 64.6742C106.514 66.3574 109.363 69.2707 111.046 72.8313Z" fill="#FBC049"/>
<path d="M98.6301 85.3802C100.882 82.0264 99.9897 77.4817 96.6359 75.2292C93.2821 72.9768 88.7373 73.8696 86.4849 77.2234C84.2324 80.5772 85.1253 85.122 88.4791 87.3744C91.8329 89.6268 96.3776 88.734 98.6301 85.3802Z" fill="#FEF9F3"/>
<path d="M105.284 99.7626C101.724 102.482 97.3216 104.035 92.5309 104.035C87.7402 104.035 83.338 102.417 79.7773 99.6979C81.59 94.3893 86.6397 90.5697 92.5309 90.5697C98.4869 90.6344 103.472 94.454 105.284 99.7626Z" fill="#FEF9F3"/>
<path d="M155.962 114.769L155.96 115.416L182.18 115.462L182.181 114.814L155.962 114.769Z" fill="#231F20"/>
<path d="M155.991 122.104L155.99 122.751L208.363 122.842L208.365 122.195L155.991 122.104Z" fill="#231F20"/>
<path d="M155.962 129.551L155.961 130.199L208.335 130.291L208.336 129.643L155.962 129.551Z" fill="#231F20"/>
<path d="M155.934 136.935L155.933 137.582L208.306 137.673L208.307 137.026L155.934 136.935Z" fill="#231F20"/>
<path d="M200.709 72.9608C205.889 83.6427 202.328 94.1952 194.883 99.8922C191.322 102.611 186.92 104.165 182.129 104.165C177.339 104.165 172.936 102.546 169.376 99.8275C164.391 96.0079 161.154 89.9871 161.219 83.1896C161.219 68.2996 176.821 57.0351 192.552 64.8037C196.178 66.5517 199.026 69.4649 200.709 72.9608Z" fill="#4070BF"/>
<path d="M189.574 81.5064C189.574 85.585 186.273 88.8219 182.259 88.8219C178.18 88.8219 174.943 85.5202 174.943 81.5064C174.943 77.4279 178.245 74.1909 182.259 74.1909C186.273 74.1909 189.574 77.4279 189.574 81.5064Z" fill="#FEF9F3"/>
<path d="M194.948 99.8921C191.387 102.611 186.985 104.165 182.194 104.165C177.404 104.165 173.001 102.546 169.441 99.8274C171.253 94.5188 176.303 90.6992 182.194 90.6992C188.15 90.764 193.135 94.5836 194.948 99.8921Z" fill="#FEF9F3"/>
<path d="M245.663 114.925L245.662 115.572L271.881 115.618L271.882 114.971L245.663 114.925Z" fill="#231F20"/>
<path d="M245.628 122.26L245.627 122.907L298.001 122.998L298.002 122.351L245.628 122.26Z" fill="#231F20"/>
<path d="M245.599 129.707L245.598 130.355L297.972 130.446L297.973 129.799L245.599 129.707Z" fill="#231F20"/>
<path d="M245.635 137.091L245.634 137.738L298.008 137.829L298.009 137.182L245.635 137.091Z" fill="#231F20"/>
<path d="M290.373 73.155C295.552 83.837 291.992 94.3894 284.547 100.086C280.986 102.805 276.584 104.359 271.793 104.359C267.002 104.359 262.6 102.741 259.039 100.022C254.055 96.2021 250.818 90.1814 250.882 83.3838C250.882 68.4938 266.484 57.2293 282.216 64.9979C285.841 66.6811 288.69 69.5944 290.373 73.155Z" fill="#F89D82"/>
<path d="M279.238 81.6358C279.238 85.7144 275.936 88.9513 271.922 88.9513C267.844 88.9513 264.607 85.6496 264.607 81.6358C264.607 77.5573 267.909 74.3203 271.922 74.3203C275.936 74.3203 279.238 77.622 279.238 81.6358Z" fill="#FEF9F3"/>
<path d="M284.611 100.086C281.051 102.805 276.648 104.359 271.858 104.359C267.067 104.359 262.665 102.741 259.104 100.022C260.917 94.713 265.966 90.8934 271.858 90.8934C277.814 90.8934 282.798 94.7778 284.611 100.086Z" fill="#FEF9F3"/>
<path d="M66.2687 158.734L66.1748 212.661L297.875 213.064L297.969 159.137L66.2687 158.734Z" fill="#F1E9EB"/>
<path d="M106.476 107.723C106.476 107.723 128.633 142.852 100.821 151.044C70.1059 159.93 106.476 107.723 106.476 107.723Z" fill="#F9B995"/>
<path d="M219.249 130.076C229.334 123.828 237.739 118.274 247.366 114.248C248.436 113.831 249.506 114.942 248.741 115.775C246.144 118.691 241.712 120.912 236.822 123.967C238.35 123.55 239.726 124.939 241.406 125.077C242.629 125.216 243.699 125.772 244.31 126.605C245.532 128.41 243.851 129.798 242.629 131.187C242.323 131.603 242.018 132.02 241.712 132.297C239.573 134.797 236.517 136.463 233.002 136.741C231.627 136.879 230.098 136.602 228.723 136.602C227.348 136.602 224.75 136.463 223.222 137.712L219.249 130.076Z" fill="#F9B995"/>
<path d="M222.917 128.548C221.694 128.826 220.472 129.381 219.097 129.936C200.301 139.239 185.172 143.683 167.752 148.82C160.57 150.903 153.082 153.124 144.83 155.901L140.246 157.429C131.841 160.067 124.506 162.289 117.019 164.094C105.405 166.871 95.0138 168.815 81.7192 171.175C78.5101 171.73 75.1483 172.286 71.6336 172.98C71.328 172.98 71.0224 173.119 70.7168 173.119C63.6874 174.785 59.256 181.311 60.6313 187.837C61.2425 190.753 63.0762 193.252 65.9796 194.918C69.3415 196.862 73.773 197.418 77.5933 196.446C77.7461 196.446 77.8989 196.307 78.0517 196.307C106.78 188.254 116.866 183.533 138.871 173.258C140.857 172.286 142.996 171.314 145.289 170.203C146.053 169.787 146.97 169.509 147.886 169.231C178.754 159.373 194.035 152.291 221.847 138.545C227.501 135.768 229.488 132.019 228.571 129.936C228.112 128.409 225.973 127.854 222.917 128.548Z" fill="#F9B995"/>
<path d="M113.353 276.838L108.616 278.921C108.616 278.921 122.98 283.919 125.119 287.668L125.883 289.612C126.342 290.723 126.495 291.833 126.189 292.944C126.189 293.083 126.189 293.083 126.189 293.222C126.036 293.361 125.425 293.638 123.897 293.638C112.895 293.916 104.796 290.723 95.1685 286.418L95.6269 275.449C96.8494 275.727 100.517 276.005 101.739 275.727C106.171 275.033 110.908 274.755 115.34 275.449C115.034 276.282 113.353 276.838 113.353 276.838Z" fill="#F9B995"/>
<path d="M14.4792 595.497L22.8844 599.663L34.193 589.527L35.4156 563.979L17.3828 561.341L14.4792 595.497Z" fill="#F9B995"/>
<path d="M78.5093 612.299C77.5924 612.854 76.5227 613.132 75.4531 613.271C55.8935 614.243 36.3339 614.243 16.7743 613.271C14.7878 613.132 13.2597 611.743 13.1069 609.938C12.6485 605.218 12.8012 600.358 13.4125 595.637C13.5653 594.804 14.4822 594.387 15.2462 594.665C16.9271 595.359 18.608 595.915 20.4417 596.054C22.7339 596.331 25.3316 596.054 27.3181 594.804C30.6799 592.444 31.7496 587.306 36.9452 587.862C38.6261 588 40.0013 588.834 41.2238 589.805C47.489 594.943 54.8238 598.969 62.9227 601.469C65.9789 602.441 69.0351 603.135 71.9385 604.246C74.2306 605.079 82.9407 609.383 78.5093 612.299Z" fill="#231F20"/>
<path d="M106.631 602.022L125.274 592.58L122.218 565.505H103.881L106.631 602.022Z" fill="#F9B995"/>
<path d="M82.788 284.058L126.187 284.614C130.007 330.989 129.548 371.672 129.09 411.105C128.479 462.063 128.02 510.243 136.425 565.505H100.667C96.0826 513.576 78.662 366.674 81.4126 321.131L82.788 284.058Z" fill="#C57462"/>
<path d="M35.2673 283.504L87.9872 284.199C84.167 308.497 80.1939 327.797 75.9151 348.624C65.524 398.054 54.8271 449.151 47.9506 565.506H12.9568C18.6108 511.355 22.5839 454.288 26.4042 399.026C29.3076 358.344 31.9054 319.744 35.2673 283.504Z" fill="#C57462"/>
<path d="M170.349 612.299C169.432 612.854 168.362 613.132 167.293 613.271C147.733 614.243 128.173 614.243 108.613 613.271C106.627 613.132 105.098 611.744 104.946 609.938C104.487 605.079 104.64 600.219 105.404 595.498C105.557 594.804 106.321 594.387 107.085 594.665C108.766 595.359 110.6 595.915 112.433 596.192C114.726 596.47 117.323 596.192 119.31 594.943C122.672 592.582 123.741 587.445 128.937 588C130.618 588.139 131.993 588.972 133.216 589.944C139.481 595.082 146.816 599.108 154.915 601.608C157.971 602.579 161.027 603.274 163.931 604.385C166.07 605.079 174.78 609.383 170.349 612.299Z" fill="#231F20"/>
<path d="M67.514 165.761C56.6643 165.622 46.7314 166.733 41.6886 170.482C33.5895 176.452 42.6055 196.308 44.2864 202.278C46.8843 211.442 47.0371 220.884 47.0371 230.464C47.0371 242.128 39.3964 258.512 35.1177 283.366L126.194 284.476C106.176 238.518 116.567 229.492 122.221 204.5C125.277 191.17 119.012 172.148 115.192 169.51C106.023 163.123 67.514 165.761 67.514 165.761Z" fill="#F4E9E0"/>
<path d="M211.148 260.731C213.44 257.26 213.134 252.678 210.078 249.623C205.952 245.319 199.84 241.57 195.408 238.377C186.698 232.129 177.988 225.742 169.277 219.493C166.527 217.55 160.873 211.44 157.205 211.579C152.774 211.579 150.176 217.966 148.189 220.882C136.27 238.238 135.965 239.21 124.045 256.705C117.474 266.285 111.056 275.727 104.485 285.307C101.735 289.334 98.8313 293.777 99.2898 298.498C99.901 304.468 105.555 308.633 110.751 312.382C122.67 320.713 134.589 329.044 146.356 337.236C146.356 337.236 146.356 337.236 146.508 337.236C151.398 340.707 158.428 339.458 161.79 334.598L211.148 260.731Z" fill="#251A2C"/>
<path d="M157.512 294.613L159.193 296.002C164.083 299.889 168.973 303.916 174.474 307.11C176.766 308.359 179.67 309.748 181.962 309.053C182.726 308.776 183.337 308.359 183.949 307.665C184.865 306.693 185.629 305.443 186.241 304.333L188.38 300.723L190.825 296.557C191.589 295.169 192.506 293.641 192.048 292.53C191.589 291.559 189.908 290.725 188.38 290.031H188.227C186.852 289.476 182.573 287.532 182.268 283.783C181.962 281.423 183.337 279.618 184.407 278.09C184.56 277.813 184.713 277.674 184.865 277.396C185.629 276.424 185.629 275.591 185.629 275.313C185.629 275.313 185.171 275.036 183.032 275.73C183.032 275.73 165 284.2 159.04 279.479L151.094 290.031C152.622 291.142 156.595 293.919 157.512 294.613Z" fill="#F9B995"/>
<path d="M159.197 291.001C156.905 291.834 153.39 292.112 151.098 290.168C150.639 289.751 108.158 254.9 103.115 239.488C100.517 231.296 94.8633 207.414 96.3914 183.393C96.8498 177.701 102.809 173.674 109.075 175.062C113.659 176.173 116.868 180.061 116.715 184.365C115.951 198.111 116.715 221.854 119.313 229.491C129.093 257.955 149.417 272.673 160.267 280.587C165.309 284.197 165.004 286.002 162.864 288.641C161.948 289.612 160.725 290.446 159.197 291.001Z" fill="#F9B995"/>
<path d="M106.629 129.798C105.865 125.91 107.24 122.022 107.851 118.135C108.921 111.609 107.393 104.25 102.197 99.6677C95.7793 93.9749 85.6937 93.5583 76.6779 94.2526C70.5654 94.808 64.1473 95.7799 59.8686 99.6677C52.6865 105.916 53.909 117.163 47.1853 123.827C39.3919 131.464 24.1108 130.214 17.8455 138.823C13.8724 144.377 15.2477 151.736 14.0252 158.262C12.0387 167.843 4.09247 175.479 1.18905 184.782C-1.25593 192.558 0.119412 201.166 4.85656 207.97C7.14873 211.302 10.205 214.218 13.2612 217.134C17.2343 220.883 21.2074 224.632 25.1804 228.519C29.0007 232.13 33.1266 235.879 38.3222 237.128C44.8931 238.655 52.0752 235.878 56.6596 231.296C61.2439 226.714 63.6889 220.744 65.217 214.773C66.7451 208.803 67.5092 202.555 69.4957 196.723C73.0104 185.754 82.7903 187.698 91.1949 179.367C95.4737 175.063 97.7658 159.512 102.503 155.624C105.559 153.125 109.838 150.903 111.06 147.293C113.2 140.628 107.851 135.907 106.629 129.798Z" fill="#402840"/>
</svg>
