<svg width="40" height="38" viewBox="0 0 40 38" fill="none" xmlns="http://www.w3.org/2000/svg">
<g clip-path="url(#clip0)">
<path d="M20 37.8947C31.0457 37.8947 40 29.4117 40 18.9474C40 8.48303 31.0457 0 20 0C8.9543 0 0 8.48303 0 18.9474C0 29.4117 8.9543 37.8947 20 37.8947Z" fill="#EF5261"/>
<path d="M18.0724 20.7531C20.8193 23.3554 23.5115 24.4112 24.4812 23.4925L25.8127 22.2313C26.2532 21.8141 26.8506 21.5796 27.4735 21.5796C28.0964 21.5796 28.6938 21.8141 29.1343 22.2313L32.1237 25.0634C32.5641 25.4807 32.8116 26.0466 32.8116 26.6367C32.8116 27.2269 32.5641 27.7928 32.1237 28.2101L29.7946 30.4166C27.594 32.5014 21.0852 29.7185 14.8471 23.809C11.7296 20.8541 9.68492 18.0709 8.36336 15.4538C7.0418 12.8367 6.77398 10.69 7.87367 9.64821L10.2027 7.44173C10.6432 7.02446 11.2406 6.79004 11.8635 6.79004C12.4864 6.79004 13.0838 7.02446 13.5243 7.44173L16.5137 10.2729C16.9541 10.6902 17.2016 11.2561 17.2016 11.8463C17.2016 12.4364 16.9541 13.0023 16.5137 13.4196L15.1812 14.6841C14.2115 15.6018 15.3255 18.152 18.0724 20.7531Z" fill="#EEEFEE"/>
</g>
<defs>
<clipPath id="clip0">
<rect width="40" height="37.8947" fill="white"/>
</clipPath>
</defs>
</svg>
